<?xml version="1.0" standalone="no"?>
<!DOCTYPE svg PUBLIC "-//W3C//DTD SVG 1.1//EN" "http://www.w3.org/Graphics/SVG/1.1/DTD/svg11.dtd" >
<svg xmlns="http://www.w3.org/2000/svg">
<metadata></metadata>
<defs>
<font id="dk_pisangregular" horiz-adv-x="1017" >
<font-face units-per-em="2048" ascent="1638" descent="-410" />
<missing-glyph horiz-adv-x="716" />
<glyph horiz-adv-x="2048" />
<glyph horiz-adv-x="2048" />
<glyph unicode="&#xd;" horiz-adv-x="2048" />
<glyph unicode=" "  horiz-adv-x="716" />
<glyph unicode="&#x09;" horiz-adv-x="716" />
<glyph unicode="&#xa0;" horiz-adv-x="716" />
<glyph unicode="!" horiz-adv-x="319" d="M102 1208q0 7 2 72.5t2 73.5v155q3 6 3 25v8q0 4 -1.5 15t-1.5 18q0 1 1.5 4t1.5 4v37q13 16 36 16q9 0 18 -2.5t19.5 -15.5t10.5 -35q-1 -4 -5.5 -45t-5.5 -45v-16q0 -21 -4.5 -140t-5.5 -139v-256q0 -11 -2 -33t-2 -35q0 -1 2 -11t2 -11v-29q0 -26 2 -79t2 -82 q0 -5 -2 -49t-2 -48v-22q0 -38 6 -115.5t6 -114.5q0 -15 -11.5 -26t-29.5 -11q-3 2 -10 6t-11 6.5t-8 7.5t-5 11v51q0 3 -1.5 24.5t-1.5 23.5v151q3 3 3 14q0 14 -1.5 18t-1.5 11q0 10 1.5 29.5t1.5 29.5q0 21 -1.5 59.5t-1.5 57.5v60q3 6 3 20q-1 4 -3 6v295q0 7 -2 24 t-2 27zM127 66v4l12 22q8 8 23 8h16q12 0 20 -5t11.5 -9.5t5.5 -17.5t2 -17.5v-21.5v-11q0 -9 -13 -18.5t-22 -9.5q-23 0 -31.5 7t-13.5 32t-10 37z" />
<glyph unicode="&#x22;" horiz-adv-x="495" d="M102 1604v12q0 12 13 18t28 6q29 0 45 -24v-35q0 -16 4 -100t5 -95l-1 -10q-1 -9 -1 -14q0 -7 3 -17.5t3 -17.5q0 -11 -14.5 -17.5t-26.5 -6.5q-33 0 -39 24q0 68 -4 96v58q0 9 -6.5 61.5t-8.5 61.5zM295 1599v13q0 12 13 18t28 6q29 0 45 -24v-35q0 -17 3.5 -100.5 t4.5 -94.5l-1 -10q-1 -9 -1 -14q0 -7 3 -17.5t3 -17.5q0 -11 -14.5 -18t-26.5 -7q-33 0 -39 25q0 68 -4 96v58q0 10 -6 61.5t-8 60.5z" />
<glyph unicode="$" horiz-adv-x="804" d="M102 1266q0 48 10.5 86.5t34.5 93.5q10 25 20 43.5t27.5 35.5t27 26.5t38.5 26t41.5 23t54.5 27.5l27 6q2 0 7 1t7 1q1 0 6.5 -1t8.5 -1q5 0 14 1t15.5 2t7.5 1q11 0 31.5 -7t39.5 -7l47 -25q4 0 23.5 -21t32.5 -38l22 -24q0 -1 2.5 -6.5t5.5 -12.5t4 -10q29 -63 29 -127 v-45q0 -5 -3 -48.5t-3 -47.5v-19q0 -7 -14.5 -14.5t-20.5 -7.5q-18 0 -28.5 8.5t-10.5 21.5q0 20 5 56.5t5 54.5q0 115 -44 187.5t-142 72.5l-4 -168q12 -96 12 -207q0 -28 -1 -86t-1 -86v-39q-2 -6 -2 -55q24 -21 60.5 -60.5t61.5 -68.5l26 -29q37 -62 58 -102.5 t41.5 -103.5t20.5 -117v-164q-4 -57 -30 -100l-21 -31l-6 -8q-4 0 -11.5 -9t-20.5 -24.5t-31.5 -33t-51.5 -36.5t-73 -33l-19 -6q-3 -2 -14 -6.5t-12 -5.5h-19l-4 6q-18 -6 -37 -6q-23 0 -59 16.5t-45 16.5l-21 14q-7 0 -20.5 10.5t-18.5 12.5q-28 37 -51 84l-12 45v28 q0 3 -1 36t-1 36q1 52 7.5 145t8.5 131q9 11 13.5 15t12.5 8t17 4q29 0 29 -29q0 -35 -11.5 -119t-11.5 -141v-21.5v-23.5t0.5 -22t1.5 -24t3 -22t5 -23t7 -20t9.5 -21t13 -17.5t16.5 -16.5q21 -16 54 -32.5t54 -16.5h33q0 15 -3 43.5t-3 46.5v27q0 12 3 36t3 36 q0 21 -2 64.5t-2 66.5q0 4 1 35.5t1 35.5q1 76 -5.5 224t-6.5 215v30q-13 13 -53 44t-52 44l-22 17q-2 2 -8 7t-8.5 8t-2.5 7l-37 35q-83 80 -86 191zM170 1266q0 -57 26 -101.5t76 -89.5q4 -3 25 -22t43 -38.5t35 -29.5v234q0 59 -10.5 162t-10.5 118q0 10 1 30t1 32v8 l-34 -19l-29 -14q-52 -30 -87.5 -112t-35.5 -158zM436 612q6 -17 6 -73v-66q2 -45 2 -133v-70q0 -20 -1 -61.5t-1 -42.5q0 -18 5 -51.5t6 -48.5q4 2 46 30.5t54 28.5q59 59 75.5 114.5t16.5 157.5q-21 145 -57 230t-135 209q-14 14 -17 16l4 -215q-4 -4 -4 -25z" />
<glyph unicode="'" horiz-adv-x="303" d="M102 1604v12q0 12 13 18t28 6q29 0 45 -24v-35q0 -16 4 -100t5 -95l-1 -10q-1 -9 -1 -14q0 -7 3 -17.5t3 -17.5q0 -11 -14.5 -17.5t-26.5 -6.5q-33 0 -39 24q0 68 -4 96v58q0 9 -6.5 61.5t-8.5 61.5z" />
<glyph unicode="(" horiz-adv-x="698" d="M102 803l1 11q1 11 1 17q-2 32 -2 46t4 40t5 35q-2 0 -2 17q0 89 67 266l2 6q13 44 45 116.5t51 72.5l43 59q51 69 123 104q47 35 138 45l-5 -57l-34 -12q-53 -16 -62 -21q-10 -7 -27.5 -23.5t-27.5 -23.5l-21 -16q-4 -3 -11.5 -12t-10.5 -11l-78 -102q-6 -21 -20 -35 q-49 -80 -64 -166q-5 -24 -17 -66.5t-20 -79t-8 -71.5v-39q0 -13 -1 -34t-1 -33q0 -1 1 -13t1 -14v-33q0 -188 86 -411q4 0 4 -11l21 -41q0 -4 17 -36t22 -37q0 -13 40 -58l29 -30q4 -2 18 -12.5t32 -23.5t22 -16q51 -37 125 -47l8 -53h-39q-1 0 -3 -1t-3 -1l-3 2 q-2 3 -7.5 5.5t-12.5 2.5h-4l-8 4h-12q-304 108 -381 602q-3 4 -4 8.5t-1 11t-1 9.5l-13 131q2 4 2 8q0 2 -2 9t-2 12z" />
<glyph unicode=")" horiz-adv-x="698" d="M102 0l9 53q74 10 125 47q5 3 22 16t31 23.5t18 12.5l29 30q4 5 16 18.5t18.5 23t6.5 16.5q5 5 22 37t17 36l20 41q0 11 4 11q86 232 86 411v33q0 2 1 14t1 13q0 12 -1 33t-1 34v39q0 82 -28.5 187.5t-79.5 195.5q-15 15 -21 35l-78 102q-3 2 -10.5 11t-11.5 12l-21 16 q-10 7 -27.5 23.5t-27.5 23.5q-11 6 -61 21l-35 12l-4 57q45 -5 77 -19t63.5 -34.5t53.5 -30.5q0 -2 12.5 -13t29 -26t24.5 -26l43 -59q18 0 49 -68.5t47 -120.5l2 -6q3 -8 17.5 -44.5t20 -53t12 -46.5t6.5 -57q1 -10 6.5 -30.5t5.5 -34.5q0 -17 -2 -17q1 -8 4.5 -34.5 t3.5 -40.5q0 -2 -1 -19.5t-1 -19.5v-4q0 -4 0.5 -11.5t1 -13t0.5 -6.5q0 -5 -2 -12t-2 -9q0 -4 2 -8l-12 -131q-2 -5 -3.5 -15t-3.5 -14q-33 -208 -143 -421q-40 -61 -103.5 -108t-133.5 -73h-13q-6 -4 -8 -4h-4q-4 0 -8 -1t-6.5 -2.5t-4 -3t-3.5 -2.5l-1 -1q-1 0 -3 1t-3 1 h-39z" />
<glyph unicode="," horiz-adv-x="337" d="M102 -135q27 10 43.5 42t16.5 66q0 31 -11.5 91t-11.5 90q0 41 35 41h10q9 -5 11 -5l12 -6q10 -8 19.5 -112.5t9.5 -130.5q0 -111 -89 -111q-27 0 -45 35z" />
<glyph unicode="-" horiz-adv-x="1173" d="M102 836q0 6 8 19t15 13l9 -4q8 -4 13 -4q95 -14 299 -14q34 0 99 2t98 2q13 0 40 -1t42 -1q61 0 162 3t110 3q21 0 30.5 -1t21.5 -8t22 -22q-2 -2 -2 -12q0 -37 -27 -37q-3 3 -13 4t-27 1.5t-27 2.5q-7 0 -18 -2t-15 -2q-18 0 -51 2t-49 2q-52 0 -157.5 -4t-156.5 -4 q-14 0 -38.5 1t-38.5 1h-27q-10 0 -37 -1t-29 -1q-19 0 -59 2t-61 2q-2 -2 -37 -2h-35q-64 0 -64 60z" />
<glyph unicode="." horiz-adv-x="333" d="M104 72q0 25 16 42t46 17h10q40 -5 43 -27l8 -43q4 -12 4 -16q0 -16 -13.5 -28.5t-33.5 -12.5q-6 -2 -18 -2q-28 0 -45 21.5t-17 48.5z" />
<glyph unicode="/" horiz-adv-x="495" d="M102 23q0 10 4 30l-2 10q8 0 9.5 19.5t4 47.5t9.5 42l20 129q3 12 3 23l26 182q11 90 25 147l22 166q6 30 13 107.5t20 115.5v5q0 9 4 29t4 30v14q0 3 6 27l4 74q9 24 9 26v6q0 47 5.5 102t14.5 120.5t12 99.5q0 37 8.5 49t32.5 12q34 0 37 -32q-4 -14 -8 -47.5t-8 -47.5 q-3 -9 -8 -61t-17 -64q0 -3 1 -10.5t1 -11.5q0 -8 -4 -12l-14 -142q-12 -60 -12 -69v-6q0 -5 -1 -18l-1 -13q-7 -40 -13.5 -111t-13.5 -110l-25 -138q0 -51 -32 -215q-6 -34 -16.5 -102t-16.5 -102q-15 -67 -19 -127v-29q0 -22 -5 -42t-5 -28q0 -14 -1.5 -33t-10 -44 t-23.5 -25q-36 0 -39 27z" />
<glyph unicode="0" horiz-adv-x="1030" d="M102 569v174l4 17q-2 53 17 139q10 47 22 131.5t19 122.5q2 12 24.5 62t22.5 57l68 127q4 8 24.5 34t20.5 40v4q47 68 112 119t133 51q30 0 73 -27.5t48 -28.5l47 -45q7 -4 21 -22l41 -62q-1 -5 6.5 -15t7.5 -13l6 -13q11 -27 20.5 -60t15 -51.5t11.5 -23.5l13 -45 q19 -19 31 -111t15 -162t3 -118q0 -72 -19 -197v-8q0 -3 -3 -20t-3 -19l-2 -6l-2 -2l2 -8l-12 -76q0 -10 -3 -22t-8 -24t-6 -17q-2 -7 -7.5 -45.5t-13.5 -66.5t-20 -40q-6 -13 -24 -63t-35 -76q4 2 -3 -8q-23 -36 -46 -57q-3 -3 -4 -3q-14 -19 -32 -34.5t-30 -22.5t-36 -19 l-25 -12q-2 -2 -10 -2h-13q-3 0 -11.5 -3t-10.5 -5h-10q-335 0 -418 420l-10 63q0 15 -5.5 45t-5.5 47zM168 528q10 -12 13 -45t5 -41l13 -43q6 -66 34 -129.5t72.5 -113.5t107.5 -80.5t134 -30.5q54 0 102 51.5t80 120.5l16 27q0 7 3 10q31 69 53 180q5 5 5.5 10t-1 12 t2.5 29t15 54l13 67q0 4 5.5 39.5t10 75.5t4.5 67v132q0 28 -4 36v35l-4 6v27q0 53 -8 92l-17 82q-2 0 -12.5 36.5t-24.5 83t-24 64.5l-35 70q0 -3 -8 8q-48 64 -58 75q-23 24 -36 24l-9 4q-2 0 -7.5 4.5t-15 10.5t-20.5 9q-103 0 -241 -235q0 -1 -21.5 -32t-21.5 -46 l-37 -76q-18 -48 -35 -168q-6 -43 -24 -134t-23 -138q0 -4 1 -12.5t1 -12.5t-4 -12v-193z" />
<glyph unicode="1" horiz-adv-x="743" d="M104 1339v9q35 35 46 53l53 53l18 23l55 71l19 19l29 41l6 18q0 10 2 14h18q22 0 41 -10.5t19 -32.5q0 -2 -3.5 -13t-3.5 -13v-84l-6 -8q0 -3 1 -26.5t1 -39.5t-3 -102t-3 -133v-416q-4 -37 -4 -113v-59q0 -30 4 -89t4 -87v-35q0 -92 6 -119v-45q0 -135 5 -135l6 -8h194 q9 0 21 -18t12 -29q0 -17 -8 -21t-25 -4h-35q-4 0 -35.5 2t-35.5 2h-119q-6 0 -34.5 2t-33.5 2h-57h-19h-21.5t-20.5 0.5t-21 2.5t-18 5t-17 7.5t-12.5 11t-9 16t-2.5 21.5q0 11 7 17.5t17 6.5l6 -4l12 -1q84 -15 156 -15q9 0 14.5 4t7 13.5t2 16t0 20t-0.5 17.5v27 q0 4 -2 38t-2 38v102q0 28 -1 70t-1 47v102q0 2 -2 11t-2 12v24q0 8 -1 21.5t-1 15.5q0 72 6 111v123q0 69 -2 207.5t-2 210.5v84q-4 8 -6 18t-2.5 16.5t-2 24t-2.5 27.5q-47 -55 -67 -80q-11 -12 -34 -40.5t-40 -49.5t-20 -21q-19 0 -34.5 16t-15.5 37z" />
<glyph unicode="2" horiz-adv-x="1097" d="M104 1200l5 8v23q5 112 45 211.5t120 146.5l80 33q45 18 164 18h51q4 -4 11 -4l30 -6q81 -19 135 -44t89 -65.5t55 -81t43 -110.5l4 -8q2 -18 2 -57v-68q-2 -6 -8.5 -42t-14.5 -44l-16 -35v-6l-18 -37q-6 -17 -41 -61l-86 -107l-4 -6l-129 -160q-14 -5 -21.5 -19.5 t-9.5 -14.5l-12 -13q0 -4 -2.5 -7.5t-7.5 -7t-7 -5.5l-106 -133q-75 -94 -144 -214t-80 -190v-16l371 -4q-2 -2 -2 -4q0 -7 4 -7q2 0 2 7v4l324 -2q6 4 8 4q19 -6 37.5 -22.5t19.5 -39.5q-12 -18 -39 -18q0 10 -73 10h-107q-2 0 -22 2t-21 2h-74q-14 0 -16 2h-65 q-56 0 -165 -6t-161 -6q-9 0 -27.5 1t-27.5 1q-6 -6 -13 -6q-10 0 -22 8l-10 6q-21 0 -21 35v4q0 27 8 27h8q4 4 13 33t25 71.5t34 71.5l6 8q1 -1 1.5 1t0 5t0 6.5t1.5 7.5t3 7l17 20l4 15l16 30q0 1 4.5 5.5t6.5 4.5q8 16 18.5 31.5t17 24.5t20.5 26.5t19 24.5l15 18 q7 8 45 64.5t63 73.5l8 6q10 30 23 45l6 6q4 4 11.5 10.5t12 11.5t7.5 9l16 20q6 12 37 43l10 15l8 12q7 0 10.5 4t13.5 18.5t26 30.5q9 14 41.5 57t60.5 78t27 35q6 6 6 14l37 72q20 52 20 150q0 78 -30 146.5t-85 115.5q-8 6 -34 15.5t-31 14.5q-46 21 -107 31 q-4 -2 -6 -2q-6 0 -12 6l-16 -4l-19 4h-18q-5 0 -25 -0.5t-28 -1.5t-23.5 -3t-27.5 -5.5t-23 -9.5l-74 -37l-12 -12l-43 -64q-15 -23 -33 -105.5t-18 -156.5q-20 -20 -35 -20q-18 0 -36 6.5t-18 19.5z" />
<glyph unicode="3" horiz-adv-x="1347" d="M104 492q0 11 9 21.5t22 10.5q11 0 43 -16q7 -37 10 -37v2q2 -4 2 -6l-2 -6l-2 -10v-13q-1 -60 30 -138.5t71 -121.5l22 -24q41 -48 64 -48l10 -6q83 -45 225 -45h64q2 0 11 4t21.5 8.5t20.5 6.5l70 22q13 0 43 17l24 18q78 58 80 59l39 27l70 72l65 104l19 43l4 10 q37 115 37 232q0 112 -33 244q-8 23 -23 45.5t-24.5 33t-34.5 34.5t-31 30l-18 16q-1 0 -19 9l-12 12q-10 9 -21.5 16t-27.5 13.5t-25 10t-29.5 9.5t-25.5 8l-25 8l-6 2q-34 13 -55 13h-41q-13 1 -24 18t-11 33q0 28 12 49q4 0 9 -1t6 -1q12 0 24 12l7 6q22 21 108 97.5 t115 105.5l39 35q4 8 4 16q-39 0 -110 -7t-109 -7h-50q-3 0 -24.5 -4.5t-22.5 -5.5h-18q-6 0 -45 -3t-45 -3h-33q-1 0 -6 -1t-8 -1q-43 -11 -176 -11h-82q-29 22 -29 50v12q0 1 1 5.5t1 6.5l35 4h256q5 0 10 1t6 1l6 -2q1 0 6 1t9 1h10q48 8 88 8l49 5q9 1 39.5 4.5 t48.5 3.5h39q12 0 15 2t4 2q27 0 39 -4q14 14 69 14h45q17 0 41 7t25 7h22q7 -14 25 -22.5t18 -32.5q0 -18 -11 -29.5t-37.5 -29.5t-47.5 -39l-16 -17q-39 -30 -70 -61l-23 -23q-9 -9 -48 -39t-67.5 -56.5t-27.5 -39.5q0 -5 6 -8q10 0 88 -27v-2.5t1 -0.5h2h3t5.5 -1t8 -2.5 t10.5 -5t13.5 -8t17.5 -12t21 -17.5l35 -26q55 -41 90 -75t64 -79l12 -24q7 -10 8.5 -13.5t0.5 -7t-1.5 -9.5t5.5 -25.5t18 -49.5q24 -88 24 -207v-49q0 -18 -2.5 -37t-5 -33t-8.5 -35.5t-9.5 -32t-12 -35t-11.5 -32.5l-8 -26q-4 -15 -12.5 -28t-23.5 -33t-28 -40l-12 -20 q0 -2 -3.5 -9.5t-6.5 -7.5l-47 -43q-23 -23 -47 -41l-6 -6q-33 -24 -97 -61l-22 -14q-13 -11 -39 -22t-37 -11l-100 -33q-18 -4 -58 -4h-14h-27.5h-30t-28.5 0.5t-31 1.5t-27.5 2.5t-29.5 4.5t-25.5 7t-25.5 9t-21 12l-74 33q-13 6 -41 38q-1 0 -15 17.5t-32.5 36.5 t-31.5 24l-15 33l-4 8l-10 21q-49 107 -49 188q0 12 -7.5 31t-7.5 29z" />
<glyph unicode="4" horiz-adv-x="1347" d="M104 575q0 6 1 9.5t3 5t6 7.5t9 15l4 9q13 19 23 59q0 18 19 53t19 55q10 34 33.5 94.5t32.5 88.5l10 20q13 21 26 55t21 61t20 73t17 63q5 5 31.5 91.5t26.5 90.5l26 95q1 4 3.5 15t4.5 18.5t4 7.5q0 2 2 8t4 13.5t3 10.5l12 35q1 2 2 6.5t2 5.5q25 0 44 -7.5t19 -20.5 v-10q-3 -16 -28 -87.5t-33 -107.5l-88 -283q-2 -22 -23 -71l-12 -29q-4 -8 -17.5 -33.5t-21.5 -45t-8 -32.5l-27 -71q0 -25 -16 -41l-18 -74q-5 -19 -27 -74l-6 -16q-8 -16 -8 -29h30q10 0 25.5 1t30 2t27.5 2t22 2l8 1h35q11 0 32 4.5t33 4.5l125 4q52 0 64 2h26 q9 0 28.5 -2t29.5 -2q1 0 30 -0.5t50.5 -0.5t49.5 2t44 8t16 15v19q0 4 1 9l1 5v8q0 8 -1 24.5t-1 24.5v54q0 21 3 67t3 70v24q0 44 8.5 55t34.5 11h11l20 -18q8 -8 8 -15l-8 -65v-45q0 -76 -6 -119v-62q0 -16 1 -38.5t1 -24.5h186q5 0 10 1t7 1q63 0 63 -39 q0 -12 -8.5 -19.5t-19.5 -7.5l-244 -4l-6 -73q-6 -34 -6 -91q0 -54 -8.5 -172t-8.5 -176v-26q0 -35 -26 -35q-3 0 -8.5 2t-6.5 2q-6 -2 -12 -2q-27 0 -27 37q0 8 4 24.5t4 24.5q11 231 11 254q0 36 6 108t6 109q0 14 -4 18h-31q-27 0 -82 -2t-84 -2q-4 0 -10.5 2t-11.5 2 q-15 0 -50 -0.5t-59.5 -1.5t-54 -2t-51 -4t-33.5 -8h-18q-4 0 -14 -3t-17 -3h-121q-52 -12 -70 -12l-34 -11q-48 10 -48 49z" />
<glyph unicode="5" horiz-adv-x="1150" d="M104 307q12 31 41 31h17q14 -15 26 -57l29 -66q75 -112 211 -160h41q119 0 221.5 66.5t175.5 173.5q0 3 15.5 32t15.5 31l12 25q66 151 66 301q-4 16 -4 68v57q-4 65 -29.5 138t-56.5 116l-45 61q-53 45 -105 70h2q-4 4 -35 12q-6 6 -8 6q-2 -2 -4 -2q5 0 1 -1 q-20 -7 -65 24l-3 2h-13q-11 8 -37 8h-18q-4 0 -12 4q-5 1 -24 0t-35.5 0.5t-22.5 7.5h-33q-36 0 -98 -8h-11q-40 0 -64 -6t-30 -6q-17 0 -26.5 12t-13.5 28t-7 19q0 10 6 29t6 25v43q0 5 5 10v137q0 55 12 59q10 -4 12 -4q6 22 23 25q41 -10 104 -10h37q3 0 30.5 2t30.5 2 h45q7 0 32.5 5t31.5 5h119q4 0 11.5 3t12.5 3q2 0 5.5 -1t5.5 -1h12q21 0 29 2h90q9 0 27.5 4t27.5 4q4 -4 14 -4q2 0 6 2t5 2h10q4 0 8 1l4 1q62 0 68 -57l-21 -22h-76q-65 0 -190 -7.5t-186 -7.5l-136 -14h-39q-3 0 -10.5 -1t-11.5 -1q-1 0 -5 0.5t-10.5 1t-11.5 0.5h-24 q-19 0 -19 -45v-19q0 -3 1 -8.5t1 -9.5q0 -1 -1 -12t-1 -19v-84h66q10 0 30.5 1t32.5 1q23 0 70.5 -6t71.5 -6l39 -4q1 0 6 -1t6 -1q21 -8 63 -21l62 -20q123 -51 200 -148l23 -32q35 -50 59 -101.5t23 -83.5q-2 -2 -2 -6t6 -10l12 -49q4 -8 4 -29v-76q0 -5 1 -11l1 -5v-45 q1 -11 1.5 -36t5.5 -38q0 -1 -7 -43l-6 -43q0 -1 -2 -5t-2 -5l-14 -68q-2 -14 -21 -53l-10 -22l-2 -13l-22 -45q-50 -95 -140 -182l-14 -14q-15 -11 -30.5 -23.5t-21.5 -17t-9 -4.5l-11 -11l-22 -10q-12 -6 -29 -6l-39 -25q-6 -1 -40.5 -10.5t-47.5 -9.5h-33q-4 -4 -32 -4 h-13q-62 0 -132.5 27t-108.5 65l-64 72q-2 2 -5.5 6.5t-6 7.5t-2.5 2l-25 53q-3 7 -13.5 27t-15.5 33t-4 22z" />
<glyph unicode="6" horiz-adv-x="972" d="M104 512q0 130 15 176l18 43q3 16 6 53t9 65t20 48l8 16v11q0 5 3 14l3 10l9 6q0 45 51 170l67 138q6 12 15.5 34t18 38.5t18.5 31.5l22 35q4 7 10 14.5t9.5 13t3.5 9.5l65 94q7 20 21.5 37t15.5 18l29 39q16 16 26 16q14 0 31.5 -14t17.5 -26q0 -11 -16 -27l-27 -35 q-80 -106 -149 -213q-4 -2 -4 -8l-12 -16q0 -7 -25 -49t-27 -62l-16 -35q-3 -6 -9 -23t-12 -26l-14 -29q-11 -22 -24 -68t-19 -61l-16 -45q-31 -82 -31 -129l18 12q5 11 7 11l20 12l57 31q77 51 187 51h20l4 -4l50 -8q4 -4 6 -4t4.5 1t3.5 1q86 -10 178 -109l12 -14l21 -35 l22 -39q17 -30 28.5 -90.5t16.5 -67.5v-94q0 -12 -6 -18q0 -14 -1.5 -26.5t-7 -31.5t-9.5 -32t-15.5 -47t-19.5 -58l-8 -10l-51 -74q-107 -119 -207 -133h-17q-7 0 -22 -4t-23 -4q-38 0 -98.5 16.5t-93.5 40.5l-21 14q-47 32 -72.5 68.5t-45.5 93.5q-7 7 -7 13 q-19 45 -28.5 96.5t-11 84t-1.5 93.5zM176 393q0 -81 47 -164l4 -10q16 -48 42 -81.5t60 -51.5t70.5 -25.5t81.5 -7.5h39l29 15q96 38 176 155q2 4 8 19t15 28l12 19q0 12 4 16l4 8l6 21l21 96q-2 8 -2 14q0 1 3 11t3 18v35q-4 8 -4 14l-4 33q-16 127 -103 211l-33 31 l-37 14q-8 4 -32 9t-29 5h-25q-2 0 -6.5 3t-13.5 3q-61 0 -127 -32l-25 -13l-45 -28q-63 -30 -101 -73.5t-38 -113.5v-178z" />
<glyph unicode="7" horiz-adv-x="1062" d="M106 1606q0 34 7 34h305q16 -4 47 -4h10q21 0 29 4q22 0 56 -4t50 -4h72q13 0 84 -3.5t82 -4.5h16q6 0 15 2t14 2q11 0 14.5 -2t7.5 -2q2 0 5 1t4 1q28 -21 37 -45q-6 -6 -11 -15t-8.5 -17t-8.5 -20t-7 -18l-47 -108l-37 -103q-8 -22 -17 -61.5t-12 -50.5l-18 -70 q0 -4 -2 -10t-2 -10q-27 -109 -72 -219l-12 -48q0 -1 -1 -3t-1 -3q0 -2 2 -4l-68 -178q0 -12 -3.5 -29t-13 -45.5l-16.5 -49.5t-23 -65.5t-24 -68.5l-14 -41q-1 -4 -5.5 -17.5t-7 -20.5t-7.5 -16.5t-11 -15.5v-8q-4 -18 -12 -30v-17q-2 -18 -15.5 -46t-13.5 -36 q-17 -51 -24 -123l-15 -14h-12q-49 0 -49 33q0 30 16 59q43 129 43 154v6l66 192q5 14 16 49.5t18 53.5l13 43q14 49 46 138t44 130l20 66q9 9 9 14q41 96 93.5 305.5t96.5 317.5q-31 8 -82 8q-8 -4 -27 -4q-8 4 -28 4h-47q-15 4 -17 4h-8q-8 -4 -12 -4q-12 4 -23 4h-188 l-8 -4h-111q-6 0 -28 -2t-23 -2h-72q-6 0 -16.5 -2t-16.5 -2q-15 0 -28 17.5t-13 27.5z" />
<glyph unicode="8" horiz-adv-x="1103" d="M104 397v19q0 59 9 80l6 22l2 11q2 11 2 14l8 24q6 6 14 37t19 47l57 125l10 10l37 50q0 1 1.5 3t3.5 4.5t3 4.5l46 49q6 8 8 12l14 21q29 29 35 39l45 43q4 0 12.5 8t14.5 10q0 1 -2.5 5t-2.5 5l-75 78q0 5 -5 12t-6 9l-8 18l-12 39v80l4 6v41q9 102 18 129l11 12 q-6 -2 8.5 27.5t40 59.5t45.5 30l33 16q39 21 61.5 27.5t83.5 13.5h10q27 0 64 -17t51 -28q38 -19 66 -85t28 -122v-10q-8 -70 -22 -98l-31 -45q-4 -6 -19 -30.5t-22 -31.5l-74 -69q-8 -4 -10 -6l-10 -9q-21 -14 -49.5 -36t-28.5 -25q0 -11 37 -28t45 -17l35 -18 q3 -5 14.5 -11t18.5 -6q-3 -1 11 -11.5t36 -26.5t44 -34t38 -36t16 -29q-3 3 -1 -1q1 -1 4 -5q59 -85 67 -141l22 -97l10 -22v-13q0 -24 3 -72t3 -71q0 -30 -10 -70.5t-24 -54.5l-19 -37q-3 -5 -7 -14.5t-10.5 -20.5t-19.5 -28l-14 -19q0 -2 -10.5 -10.5t-14.5 -9.5l-41 -35 l-8 -6l-30 -16q-11 -3 -13 -3l-18 -16l-6 -2h-13q-18 -18 -34 -16l-9 -6q-3 -1 -10 -5.5t-8 -5.5h-10q-49 0 -94 -18h-121q-3 0 -15 4l-22 4l-35 10l-8 8h-19q-16 3 -67 31l-17 8q-4 0 -8 2l-28 21l-43 51q-34 34 -56.5 92.5t-29.5 114.5v33q-1 0 -3 10.5t-2 13.5zM176 416 q4 -203 115 -295l24 -21q11 -11 35 -18l121 -39h14q103 2 181.5 25.5t148.5 81.5q37 31 74 95.5t41 119.5v90q4 6 4 8q-4 16 -4 22v13q-8 24 -19 90l-4 16q-8 49 -20 66l-8 12l-11 29q2 3 -2 8.5t-10.5 14t-9.5 18.5l-29 51q-17 17 -49 42.5t-56 43.5t-26 22l-57 29 q-7 10 -8 10q-9 0 -13 -4q-7 6 -44 20.5t-42 14.5q-21 0 -37 -13.5t-26.5 -26.5t-18.5 -13l-51 -49l-63 -76l-58 -80q-6 -23 -26 -68l-9 -14q-5 -8 -8.5 -17.5t-6.5 -22t-5 -17.5l-18 -52q-3 -10 -8 -41t-11 -40v-35zM408 1229q0 -5 1 -13t1 -10q0 -11 22 -55l33 -41 q4 -3 14.5 -13t21 -17t23.5 -11q18 0 39 21l12 12q0 4 13 4l2 8q84 52 141 127t57 162q0 67 -37 122.5t-106 55.5q-26 0 -49 -10l-10 -4q-33 -12 -50 -20t-41.5 -24.5t-37 -37t-25.5 -53t-18.5 -79t-5.5 -108.5v-16z" />
<glyph unicode="9" horiz-adv-x="972" d="M104 1108v96q0 1 1 4t1 4l5 9q0 67 22 120l31 74l26 39q2 2 4.5 6t6 9.5t4.5 7.5l18 24q107 119 207 133h16q7 0 21 4t22 4q41 0 98.5 -16t96.5 -41l21 -14q47 -32 72.5 -68.5t45.5 -93.5q0 -6 6 -12q19 -43 28.5 -95.5t11 -86t1.5 -93.5q0 -133 -14 -176l-18 -43 q-5 -24 -11.5 -71.5t-11.5 -71.5q-1 -3 -11.5 -18.5t-10.5 -30.5v-11l-5 -14l-8 -6q0 -45 -51 -170l-67 -137q-32 -70 -52 -103l-22 -37l-8 -16t-6.5 -12.5t-11.5 -17t-27 -33.5l-37 -52q1 -5 -4.5 -14.5t-16 -22.5t-14.5 -18l-29 -39q-16 -16 -26 -16q-14 0 -32 14.5 t-18 26.5q0 9 17 26l26 35q79 101 148 215q1 0 3.5 3t2.5 5l12 17q0 6 24.5 46t26.5 62l17 35q2 2 4 9t6.5 18t9.5 20l15 31q10 22 23.5 67.5t19.5 61.5l16 45q31 90 31 129l-19 -10q-3 -10 -6 -10l-20 -13l-58 -30q-80 -54 -186 -54h-20l-5 4l-51 9q-2 2 -6 2h-6 q-85 9 -178 110l-12 13l-21 34l-22 37q-20 30 -34 79.5t-12 78.5zM176 1128q0 -69 29 -138t82 -122l32 -28l37 -15q8 -4 32 -9t30 -5h24q12 -6 21 -6q59 0 127 33l24 12l45 27q62 29 96 67.5t42 108.5v8q0 2 1 5.5t1 4.5v170q0 84 -47 164l-4 10q-32 92 -97 129t-159 37h-37 l-62 -29q-13 -7 -24.5 -15t-23 -18.5t-19.5 -17.5t-19.5 -21t-16.5 -19.5t-16.5 -23t-14.5 -22t-16.5 -25t-15.5 -24.5l-12 -18q0 -5 -5.5 -16.5t-8.5 -28.5l-21 -99v-14q0 -1 -2 -11t-2 -18v-33z" />
<glyph unicode=":" horiz-adv-x="333" d="M104 72q0 25 16 42t46 17h10q40 -5 43 -27l8 -43q4 -12 4 -16q0 -16 -13.5 -28.5t-33.5 -12.5q-6 -2 -18 -2q-28 0 -45 21.5t-17 48.5zM104 1432q0 25 16 42t46 17h10q40 -5 43 -27l8 -43q4 -12 4 -16q0 -16 -13.5 -28.5t-33.5 -12.5q-6 -2 -18 -2q-28 0 -45 21.5 t-17 48.5z" />
<glyph unicode=";" horiz-adv-x="337" d="M102 -135q27 10 43.5 42t16.5 66q0 31 -11.5 91t-11.5 90q0 41 35 41h10q9 -5 11 -5l12 -6q10 -8 19.5 -112.5t9.5 -130.5q0 -111 -89 -111q-27 0 -45 35zM104 1432q0 25 16 42t46 17h10q40 -5 43 -27l8 -43q4 -12 4 -16q0 -16 -13.5 -28.5t-33.5 -12.5q-6 -2 -18 -2 q-28 0 -45 21.5t-17 48.5z" />
<glyph unicode="?" horiz-adv-x="921" d="M102 1202l2 21l33 143q0 1 4 10t8.5 20t6.5 15l12 23q37 69 71 100.5t83 58.5q1 0 14 8t24.5 12.5t32 11t49 10t62.5 3.5q2 0 24.5 -1.5t45 -9t38.5 -23.5q95 -56 151 -141.5t56 -196.5q0 -47 -16 -90t-35 -70.5t-60.5 -82.5t-68.5 -95q-4 -2 -26.5 -30.5t-22.5 -33.5 q-103 -140 -103 -364q0 -38 9.5 -114t9.5 -110q0 -7 -3.5 -12t-13 -8.5t-16 -5t-22.5 -4.5q-2 2 -7.5 7t-9 8.5t-7 9t-3.5 10.5v47q0 28 -7 93.5t-7 100.5v17q8 105 22 151q0 1 3 10.5t3 10.5l13 45q4 14 22.5 47.5t26.5 60.5l39 49q18 24 39 58q13 0 35.5 29.5t52 78.5 t32.5 54q2 0 6.5 13t9.5 26t9 12q18 52 18 100q0 45 -17 97.5t-44 82.5q-25 27 -42 43t-42 34t-51.5 26t-57.5 8q-49 0 -112 -29q-16 0 -31.5 -9t-24.5 -18.5t-20.5 -23.5t-15.5 -18l-29 -43l-33 -72q-2 0 -35 -127l-4 -18v-46q0 -56 15 -163l6 -14q12 -47 12 -64 q0 -11 -15 -19t-26 -8q-72 0 -72 299zM442 66q0 8 18 15t32 7q47 0 47 -68q0 -6 -16 -16t-19 -10q-34 0 -48 23t-14 49z" />
<glyph unicode="@" horiz-adv-x="1353" d="M104 999q0 6 3.5 22.5t3.5 22.5l6 23q3 8 10 34t12 41.5t12.5 37t16.5 37t18 24.5q5 14 7 14v-2q6 2 9 6.5t7 16t8 20.5l16 33q8 16 19 27l35 43q18 54 94 109.5t156 82.5l30 13q82 31 168 34q112 0 196 -28t154 -111l37 -37l66 -131q29 -49 44.5 -128t18 -135t2.5 -142 v-64q-26 -212 -92 -278l-8 -17q-25 -43 -70 -69.5t-94 -26.5q-71 0 -111.5 48.5t-66.5 131.5l-8 -8l-4 -8v2q-15 -23 -21 -35l-39 -65l-22 -23q-36 -36 -65 -47.5t-81 -13.5q-74 0 -127 90l-4 8q-20 31 -27.5 54t-17.5 93q0 4 -3.5 21.5t-7 50.5t-3.5 74v39q0 34 0.5 49 t7 43t19.5 41v14q18 74 98 130.5t158 56.5q3 0 13.5 -1.5t14.5 -1.5h8q42 0 50 -4q8 -2 21.5 -7t41.5 -22.5t41 -39.5l4 -15q5 -20 27 -32l8 -37l-4 -13q0 -5 -2 -18.5t-2 -17.5v-207q0 -41 4.5 -81t16 -83t35 -69.5t56.5 -26.5q38 0 68 47l6 10q41 54 67.5 133.5 t26.5 151.5v32q0 4 2 11.5t2 11.5q0 79 -2 123t-16.5 114.5t-42.5 133.5l-16 30q-57 104 -107 162q-31 36 -102 55t-131 19q-260 0 -441 -258q-6 0 -30 -55l-7 -9l-12 -28q-69 -139 -69 -375q0 -197 57 -371l29 -65q50 -117 181 -232t249 -114q18 0 51 6.5t39 7.5l39 6 q6 0 14 4l106 47q32 21 61.5 62t47.5 86l6 20q13 43 21 47l8 4q34 15 49 15q14 0 24.5 -12.5t10.5 -26.5q0 -7 -12 -25l-9 -12q0 -12 -6 -18l-29 -52l-57 -82q-49 -49 -125 -86l-20 -12q-34 -22 -123 -39h-21q-28 0 -49 -8l-90 8q-78 15 -151 64q-37 23 -99.5 75.5t-106 96 t-32.5 43.5q-104 170 -123 288q0 49 -4 74l-4 8q-16 47 -16 150v33q0 19 3 38t3 29v8q0 13 -4 41zM465 831q0 -81 14 -147q2 -2 6 -13t4 -14q0 -28 28 -83.5t67 -55.5q34 0 67 33l8 8q12 16 36 57t28 56l43 139q21 65 25 217q0 1 -1.5 13t-1.5 20v35q-19 65 -106 65 q-10 0 -19.5 -1t-19 -4t-15.5 -4.5t-17 -7t-14.5 -7.5t-17 -9.5t-16.5 -9.5l-22 -12l-23 -37q-53 -95 -53 -238z" />
<glyph unicode="A" horiz-adv-x="784" d="M104 25q2 16 8.5 49t8.5 49l20 141q0 17 4 21l35 286q3 13 4 36t4 36l41 303q10 39 17 101q0 34 5 75.5t15 98.5t13 82l18 141v10l2 16q2 15 5 38.5t6.5 47t6.5 40t5 16.5q12 24 28 24q20 -6 74.5 -248t60.5 -296q36 -162 66 -314t43.5 -229.5t13.5 -85.5l25 -141 q23 -142 49 -271v-41q-25 -18 -41 -18h-10q-17 6 -17 14v68q0 10 -45 241l-8 39q-5 24 -11 60t-9 58t-4 22q-85 4 -123 12h-181l-53 -371q1 -64 -26 -127h-11q-9 0 -24 5t-15 12zM242 565q25 -10 73 -10q9 0 26.5 1t25.5 1q86 -4 131 -8h8q16 2 18 4v25q-1 -1 -6 19.5 t-9.5 51.5t-4.5 51l-27 148q-15 76 -20 90l-58 250q-4 28 -19 110t-22 105l-4 -10q0 -36 -6 -66l-14 -74l-17 -137q-12 -57 -12 -65q-33 -204 -43 -301q-1 -7 -10.5 -74t-9.5 -103v-8zM358 1413q0 -4 2 -4v8q-2 0 -2 -4z" />
<glyph unicode="B" horiz-adv-x="829" d="M102 1597v11q0 15 24 22.5t48 7.5q1 -1 15.5 -3t15.5 -3q263 0 315 -186q0 -1 8.5 -20t8.5 -27v-10q0 -4 3 -33t3 -47q0 -59 -11.5 -107.5t-25.5 -77.5t-40 -57t-41.5 -40t-45.5 -31q-7 -5 -10 -7q9 -8 71 -20l41 -17l15 -2l14 -14l43 -31q51 -47 68 -80l14 -26 q37 -70 64 -144.5t28 -119.5v-41q0 -108 -22.5 -187t-92.5 -172q0 -7 -45 -38.5t-71 -41.5q-17 -2 -19 -4l-49 -20q-8 -4 -12 -4h-29q-25 -25 -172 -25q-76 0 -76 35v14q0 13 3 140t3 143t-2 151.5t-2 149.5v147q0 51 -10 147.5t-10 145.5q0 14 0.5 32t1 31t0.5 15l-8 119 q-9 121 -13 325zM178 1305q4 -43 6 -93t3.5 -110t2.5 -92h25q23 0 66 9.5t43 14.5q79 39 111 106.5t32 162.5q0 124 -58 197t-139 73h-92v-268zM199 913q0 -288 12 -516v-329l8 -5q23 -2 31 -2q43 0 122 15.5t79 23.5q53 20 89.5 57t71.5 95q41 80 41 229q0 59 -18 158 l-27 51q-2 5 -7 14q-52 99 -86 137q-75 78 -230 95q-54 0 -86 -12v-11z" />
<glyph unicode="C" horiz-adv-x="731" d="M102 977v174q1 29 10 81t11 64q2 14 5.5 43t5.5 46t7 41t11 44q4 16 19 40t19 36l64 64l98 24q1 0 9 1t10 1q3 0 13 -1t11 -1l15 -4q42 0 77 -30.5t56 -73.5l12 -27q9 -27 11.5 -39t3.5 -22.5t5.5 -51.5t12.5 -98l-8 -14q-3 -7 -17 -11q-6 -2 -10 -3h-10q-10 2 -17.5 7 t-11.5 14t-6.5 17t-3.5 21.5t-1 23t0.5 25t0.5 23.5q-2 19 -9 46.5t-20.5 62.5t-39 59t-56.5 24h-17q-1 0 -5 -2t-5 -2h-10q-48 -9 -92 -76q-82 -122 -82 -473q0 -38 8 -115t8 -127v-153v-56v-66t2 -59t5 -69t10 -58t16 -61q2 -8 6.5 -28t7 -30t8.5 -28.5t11 -29t13.5 -26 t18 -24.5t23 -19.5t29 -16t36 -9.5t44.5 -4q133 0 133 211v62q0 2 3 20.5t3 20.5v34q0 27 -5 80t-5 78q0 9 6.5 16.5t17 14.5t13.5 10h12q24 0 27.5 -8t9.5 -68q0 -3 -2 -26.5t-2 -26.5q0 -4 2 -31t2 -30v-33q0 -13 -3 -33t-3 -37t1 -46t1 -30l-9 -39q-8 -34 -11.5 -48.5 t-14 -42t-22 -41t-32 -28.5t-47.5 -22q0 -3 -9.5 -3.5t-22.5 -1t-19 -3.5l-12 -4q-39 0 -86.5 9t-58.5 20l-13 4q-43 22 -76 84t-40 110l-25 152q0 20 -4 24v9q0 10 -4 95.5t-4 94.5v229q0 26 -6.5 76t-6.5 74z" />
<glyph unicode="D" horiz-adv-x="970" d="M102 1595v11q0 13 18.5 24.5t37.5 11.5h14q7 0 25.5 -3t25.5 -3q8 0 23 1t16 1q3 -1 23 -4t22 -4q84 -8 189 -53q21 -9 40.5 -20.5t35 -22.5t32.5 -28.5t28 -28.5t26 -33t22 -31.5t21 -34.5t18 -31.5t17.5 -33t15.5 -29.5l14 -41q3 -3 14 -33q-2 -4 -2 -8l4 -9 q4 -9 4 -13q31 -87 58 -238q0 -34 9 -82.5t9 -68.5q0 -2 3 -49.5t3 -75.5q0 -148 -20 -236l-17 -68q-5 -20 -28 -79l-17 -33q-1 -2 -3.5 -10.5t-4 -11.5t-5.5 -10.5t-9 -13t-13.5 -14.5t-19.5 -18l-12 -18q-4 2 -7.5 -1.5t-6 -7.5t-3.5 -4l-8 -2l-6 -8l-41 -25q1 0 -12 -8.5 t-29 -18t-22 -11.5l-21 -19q-6 0 -17.5 -5t-17.5 -5q-4 -1 -14.5 -5t-13 -5t-11 -4t-12 -3.5t-12 -2t-15 -1.5t-17.5 -1t-22.5 -1h-27.5q-60 0 -70 2q-58 -20 -100 -20q-16 0 -28.5 10.5t-12.5 26.5q0 24 4 74.5t4 74.5q0 98 -14 284t-16 230v121q1 -1 -1 48.5t-6 119 t-8 115.5q-4 43 -4 128.5t-4 127.5l-12 112q-1 15 -6.5 59.5t-6.5 65.5zM186 1542q17 -204 17 -287v-100q0 -46 7.5 -131.5t8.5 -124.5q1 -26 1.5 -106.5t2.5 -126.5q0 -8 4 -33t4 -35q3 -26 3 -48q0 -11 -1 -20q-1 -13 -1 -28q0 -19 2 -40q2 -39 12 -71v-315q0 -4 16 -4 q12 0 37 3t39 3q13 0 35 -1t33 -1h32q8 3 23.5 3.5t21.5 2.5q28 9 62 26t51 31q4 3 42 32t46 34q6 16 21.5 44t21.5 34l2 6q15 48 27 61q14 54 14 74q25 136 25 225q0 119 -33 326q-72 416 -248 520q-2 -3 -6 1.5t-9 10.5t-7 6l-25 13q0 4 -12 4q-81 45 -236 45 q-9 0 -15.5 -1.5t-10 -2.5t-5.5 -6t-2 -6v-8.5v-8.5z" />
<glyph unicode="E" horiz-adv-x="770" d="M102 53q0 5 6.5 17t6.5 20q-4 6 -4 8q4 13 4 15v12q0 2 -2 12.5t-2 12.5v256q0 59 -4.5 174.5t-4.5 177.5v71q0 9 4.5 95t4.5 96v364q0 4 -2.5 50t-2.5 51v71q0 44 12 63t44 19l151 -12q12 -6 43 -11t58.5 -7.5t71 -6t57.5 -4.5q5 -1 28 -2t34 -3t22.5 -12t11.5 -28 q0 -9 -8 -15.5t-19 -6.5q-6 0 -48.5 5t-55.5 5h-23q-1 0 -7 2t-7 2q-123 21 -258 21q-19 0 -31 -9q0 -9 -2 -67.5t-2 -67.5v-379q0 -4 -2 -44t-2 -44v-88q18 -6 33 -6q5 0 17.5 1t19.5 1l170 -10q33 0 45 -4h22q24 0 37 -9q3 -3 4 -5v-15q0 -13 -1 -20t-7 -13t-18 -6 q-14 0 -43 6.5t-43 6.5h-70q-9 0 -28.5 3t-32.5 3q-98 0 -109 -11v-102q0 -14 6 -233q6 -190 6 -235v-11v-12q4 -36 4 -123q22 -9 68 -9h10q78 0 141.5 6.5t92.5 6.5q53 0 61 -2h12h9q25 0 36.5 -0.5t26 -3.5t20 -10t5.5 -19q0 -19 -6 -25t-31 -12q-41 12 -96 12h-21h-8 q-28 0 -79 -6q-58 -6 -83 -6h-53q-4 0 -44 -2t-44 -2h-66q-14 10 -20 15t-10.5 14.5t-4.5 23.5z" />
<glyph unicode="F" horiz-adv-x="776" d="M102 700l2 2h2v-4q-4 0 -4 2zM115 541q0 44 1 132.5t1 133.5q0 33 -1 98t-1 96q0 60 1 181.5t1 183.5v117q-2 10 -2 37v84q1 2 2.5 8.5t3 10.5t4 9t6 7.5t8.5 2.5q33 0 54 -5t26 -5h12q74 -14 148 -14q35 0 41 2l6 -2q0 -4 63 -4h13q19 -4 46.5 -7t47.5 -5t39 -6.5 t29 -15t10 -26.5q0 -9 -6 -18.5t-17 -9.5q-53 13 -109 19.5t-136.5 10.5t-110.5 7q-2 0 -18.5 2t-18.5 2h-61l-7 -4q0 -73 -4 -179v-96q0 -25 -2 -121t-2 -155v-31q0 -8 60 -12t114 -4q60 0 70 2q41 -3 41 -43q0 -14 -23 -25q-64 0 -84 8h-63q-76 0 -113 -4q0 -5 1 -46 t1 -69q0 -61 -3 -135.5t-3 -113.5q0 -17 3 -51t3 -70q0 -17 -3 -46.5t-3 -33.5q13 -112 13 -242q0 -3 0.5 -21.5t0 -26.5t-2.5 -21.5t-6.5 -21t-12.5 -11.5h-12q-25 0 -32.5 8t-10.5 35v8q0 3 2 27.5t2 27.5v70q0 61 -3 184.5t-3 186.5z" />
<glyph unicode="G" horiz-adv-x="1040" d="M102 848q0 36 1.5 66.5t4 56.5t4.5 41.5t6 40t5 32.5l22 119q4 20 11.5 42t19.5 48.5t17 40.5q67 169 149.5 236t218.5 67h76q100 -42 143 -75q49 -45 77 -115t28 -133q0 -18 -1 -28.5t-5 -25.5t-14 -22.5t-27 -7.5q-12 0 -24 7.5t-13 21.5q6 43 6 75q0 56 -26 113.5 t-74.5 97t-104.5 39.5h-14q-1 0 -11.5 -2t-11.5 -2h-35q-79 -7 -122 -39l-39 -37q-2 -4 -14.5 -21t-23 -32.5t-12.5 -19.5l-55 -109q-15 -30 -27.5 -69.5t-18.5 -65t-16.5 -78t-13.5 -68.5q-18 -88 -18 -155q0 -87 25 -283q3 -19 9 -69t10 -77t11.5 -67.5t17 -73t21.5 -61.5 q11 -26 32.5 -54.5t35 -42.5t45.5 -44q2 -2 13 -7.5t13 -11.5l2 -4q34 -37 119 -46l47 -3q1 0 12.5 2t12.5 2h35q3 0 5.5 1t6.5 1h14q42 11 70 25.5t56.5 45.5t44.5 78.5t26 124.5t10 183v98q0 3 2 25t2 24v13q0 68 -10 90q-40 0 -104 3t-95 3q-15 0 -46 -3t-46 -3h-14 q-7 3 -15 12.5t-8 11.5q0 13 7 21t15 10.5t22 5t20 4.5l186 -2l140 -2q1 -1 5.5 -6.5t8.5 -12t4 -10.5v-225q0 -27 -5 -76t-5 -75v-29q0 -25 -3.5 -51t-10 -57t-9.5 -48q-7 -6 -11.5 -29t-10.5 -47t-37.5 -57t-85.5 -59q-82 -39 -172 -39q-128 0 -203 43q-6 3 -22 16t-25 15 q-76 69 -119 127q-8 0 -32.5 75.5t-24.5 98.5l-58 403q-2 4 -2 74z" />
<glyph unicode="H" horiz-adv-x="849" d="M102 1616q0 11 11.5 17.5t23.5 6.5t25 -9t16 -21q8 -103 15 -302t8 -221q6 -123 6 -126v-54q0 -6 -1 -41t-1 -57v-9q0 -32 1 -45t8 -23.5t22 -10.5q119 -14 313 -14h72q18 6 53 6v30q-10 184 -10 301q0 45 1 121t1 78q0 34 -3.5 94.5t-3.5 120.5q0 85 3 109q-1 6 -5 27.5 t-4 31.5q0 12 13 21h14q46 0 52 -31v-17q0 -1 2.5 -10t2.5 -10v-14q0 -29 -2 -85t-3 -83q0 -33 2.5 -98.5t2.5 -96.5q0 -25 -2 -72.5t-3 -70.5q0 -37 3.5 -109t3.5 -110v-64q2 -12 4 -14v-64q0 -63 2.5 -189.5t2.5 -191.5q0 -2 -2.5 -10t-2.5 -10q0 -6 2.5 -42.5t2.5 -43.5 v-23q0 -18 -2.5 -52t-2.5 -52v-33q5 -5 5 -16q0 -16 -13.5 -25t-28.5 -12t-16 -4q0 10 -8 16t-8 13v10q6 165 6 172q0 9 -2 90t-2 90q0 13 2 41t2 43q0 4 -2 34.5t-2 33.5l-2 110h-176q-3 0 -31 1t-31 1h-123q-2 0 -13.5 2t-12.5 2h-49q-19 0 -27 -4v-24q0 -3 -2 -22t-2 -21 q4 -15 4 -17v-92l18 -313q7 -24 7 -29v-10q-7 -14 -7 -45q0 -5 3.5 -15.5t3.5 -15.5q0 -14 -12 -27.5t-29 -13.5q-4 0 -15 5t-14 9v58q0 78 -9.5 232.5t-9.5 232.5v274q0 5 -2 46.5t-2 45.5v80q0 28 -4.5 81t-5.5 73l-10 280q-4 8 -4 33v31q-1 5 -3.5 31t-5 50.5t-4.5 32.5 q-4 15 -4 17z" />
<glyph unicode="I" horiz-adv-x="299" d="M102 678q1 14 5 102t4 103l1 13q1 14 1 19q0 23 -3.5 67t-3.5 67v16q-2 2 -2 4l2 8v103q0 2 2.5 15t2.5 15v410q14 14 22 14q12 0 22 -3t16 -6t10.5 -11.5t7 -12.5t3.5 -17t1 -17.5v-20.5v-20v-13q0 -14 -11 -83l-4 -388q-1 -63 -2.5 -146.5t-2.5 -138t-1 -59.5 q0 -10 1 -104.5t1 -106.5v-47q8 -32 8 -69q0 -58 5.5 -100t5.5 -48q0 -1 -1.5 -22t-1.5 -35q0 -15 3.5 -30t3.5 -23v-33q0 -19 -0.5 -27t-3.5 -24.5t-11 -23.5t-22 -7q-7 0 -21 6t-14 10q-10 82 -10 226t-4 200q0 1 -2.5 16t-2.5 17v133q0 11 -2 34.5t-2 37.5z" />
<glyph unicode="J" horiz-adv-x="591" d="M106 217q0 15 4.5 41t4.5 39v12q0 9 3 16t11 10.5t13 5.5t18 4t16 3l10 -10q9 -4 9 -8q0 -24 -6.5 -64.5t-6.5 -66.5q0 -44 23 -119q0 -19 20 -25t62 -6h16q31 9 53.5 42.5t33.5 78t15.5 82t4.5 67.5v43q0 150 8 189q-7 20 -8 49q-1 12 -1 28q0 22 1 49q2 48 2 66v27 q0 7 1 16.5t1 10.5q0 6 -4 89.5t-4 96.5v53q0 3 -3.5 63t-3.5 85q0 6 1 13.5t1 8.5q-2 10 -2 31q0 18 4.5 57.5t4.5 59.5q0 102 -2 147v21q0 18 -6.5 53.5t-6.5 40.5q0 20 33 20q20 0 32 -12t16.5 -43t5.5 -55.5t1 -77.5v-21q0 -22 -2 -64t-2 -54v-31q-2 -29 -8 -76v-10 q0 -10 4 -88.5t4 -87.5l-1 -8q-1 -8 -1 -13v-30q0 -39 6 -222t6 -231q0 -9 -3 -67t-3 -68q0 -5 2 -33t2 -31l-1 -1q-1 -2 -1.5 -6t-1.5 -9.5t-2 -14t-2 -16.5t-3 -20t-3 -23l-6 -47q0 -2 -3 -12t-3 -12q0 -7 -15.5 -39.5t-15.5 -44.5q-21 -30 -53 -50.5t-66 -21.5h-110 q-13 0 -33.5 14.5t-28.5 28.5q-31 118 -31 178z" />
<glyph unicode="K" horiz-adv-x="935" d="M102 1604v28q10 13 21 13q27 0 35.5 -50.5t9 -157t4.5 -155.5q0 -1 -1 -53t-1 -82q0 -218 16 -318q22 16 70 91q0 11 11 26.5t26.5 33.5t21.5 28l252 381q8 13 36.5 59t46 72t43 60t45.5 50.5t36 16.5q31 0 31 -33l-12 -19q-1 -2 -7 -4.5t-8 -5.5l-10 -18l-18 -19 q-11 -11 -11 -14q-82 -116 -116 -168l-13 -18q-10 -15 -24.5 -36.5t-23 -34.5t-9.5 -13q-9 -11 -34.5 -55t-47.5 -78.5t-31 -34.5q-17 -24 -49.5 -77t-52.5 -81q0 -7 -44 -61.5t-44 -75.5q0 -4 51 -68l307 -381q19 -24 78.5 -113.5t91.5 -121.5l19 -33q3 -4 13.5 -14t17 -19 t6.5 -18q0 -7 -1 -12.5t-4.5 -9.5t-5.5 -6t-8.5 -3.5t-9.5 -2.5t-11.5 -2t-11.5 -1h-8q-2 4 -14 19.5t-20.5 29.5t-8.5 21q-2 3 -31 42.5t-34 47.5l-74 102q-12 27 -33 51l-57 68q0 2 -4.5 7.5t-5.5 6.5l-70 92q0 1 -3 3.5t-5 2.5l-19 23q-7 22 -60.5 89t-70.5 67 q-34 67 -59 73q-2 0 -8 -1t-7 -1q0 -19 1.5 -54t1.5 -54v-39q-3 -6 -3 -8q3 -9 3 -11v-28q0 -31 7.5 -89.5t8.5 -78.5l2 -27q0 -177 4 -223v-66l4 -8l-3 -6q-3 -6 -5.5 -9t-9 -6t-15.5 -3q-36 0 -36 20q0 33 2 100t2 101v69q-15 101 -15 269v51q0 1 -2 6t-2 6 q-10 195 -10 264v9q-14 151 -14 260q0 18 1 49.5t1 32.5q-1 47 -6 161.5t-5 176.5z" />
<glyph unicode="L" horiz-adv-x="604" d="M102 1602v8q3 28 41 28q15 0 22 -4.5t11 -17.5q10 -230 10 -285q0 -15 -2 -57t-2 -72q0 -20 2 -127.5t2 -124.5q4 -10 4 -22q0 -4 -1 -12t-1 -15q5 -50 5 -203v-39q0 -39 -2.5 -119t-2.5 -120q0 -7 0.5 -19t1.5 -21v-9q-1 -33 -4.5 -88t-5.5 -100t-2 -85q1 -3 2 -12 t2.5 -16t3.5 -9q24 0 70 -3t47 -3h66h12q27 0 42 -0.5t36.5 -3t32 -9.5t10.5 -19q0 -31 -56 -31h-18l-8 4h-27q-1 0 -13 2t-13 2h-88q-42 0 -60 6q-3 0 -21 -2t-20 -2h-37q-1 0 -6 -1t-6 -1q-9 9 -14 15t-5 8l-1 2q0 8 4 27t4 32q0 185 16 553q-6 87 -6 90q0 19 2 27 q-5 177 -7 321t-2.5 200t-4 134.5t-13.5 192.5z" />
<glyph unicode="M" horiz-adv-x="1054" d="M102 1528v41q8 16 41 16q20 0 28 -7t14 -19t16 -19l28 -59q3 -4 24.5 -34t39.5 -57t34.5 -58.5t16.5 -47.5q2 -5 16.5 -33.5t31.5 -61.5t34.5 -67t30.5 -58t16 -26l23 -43q1 -2 2.5 -4.5t2 -4t2 -4t2.5 -4t2.5 -3t3 -2.5t3.5 -1.5t4 -0.5q15 21 38 64.5t32 58.5l28 47 q21 40 69 138.5t77 150.5l16 32q5 11 19 39.5t24 48t22.5 42t24.5 34.5t21 12q45 0 45 -45v-28q0 -4 2 -24t2 -23v-340q0 -1 -1 -8t-2 -16.5t-1 -14.5q0 -40 5 -119t5 -119v-235q0 -4 2 -61.5t2 -67.5q0 -19 -2 -55t-2 -54q0 -16 2 -49t2 -49v-49l-4 -7q0 -1 2 -10t2 -10 v-80q0 -2 2 -16.5t2 -16.5v-114l-4.5 -9t-6 -11.5t-7 -8.5t-10.5 -4q-39 0 -39 20v779q0 10 -1 67.5t-1 69.5v16q-8 16 -7 54.5t-2 60.5v137q-2 6 -2 12v17q0 4 -2 39t-2 39v145l-4 27q-6 -4 -10 -9.5t-5.5 -9.5t-4.5 -12.5t-4 -11.5l-37 -68q-42 -76 -41 -84l-4 -6l-17 -37 q-3 -9 -14 -26t-14 -23q-15 -28 -60.5 -109t-68.5 -127l-29 -57q-2 -6 -5 -16t-5 -14t-8.5 -7.5t-18.5 -3.5q-16 0 -25 4.5t-11.5 9t-4.5 15t-4 14.5l-29 64l-41 69q-1 2 -4 11t-6 10q-97 202 -188 340q-3 4 -9.5 16.5t-13 22t-10.5 12.5q0 -2 -2 -19t-2 -22 q0 -80 12.5 -227t12.5 -213q8 -183 20 -273q0 -22 -1 -66t-1 -67q0 -73 5 -218.5t5 -219.5v-51l1 -9q1 -9 1 -12q0 -11 -8 -25t-20 -14q-41 0 -41 47q0 3 2 66t2 94q0 62 -2 112.5t-2 59.5v275q0 62 -13.5 185.5t-13.5 162.5v92q0 3 -4 38t-4 38v41q0 50 -8.5 152t-8.5 157z " />
<glyph unicode="N" horiz-adv-x="937" d="M102 1585q0 12 24 27.5t46 15.5q5 0 15 -3t10 -7l-2 -2q22 -84 79.5 -238t77.5 -225q3 -11 12.5 -28t12.5 -25l16 -64q11 -21 31 -70.5t33 -74.5l28 -57l138 -302l67 -141q0 -1 3 -6t3 -6l47 -113v37q0 35 -4 103t-4 106v78q0 37 -3 97.5t-3 131.5q0 60 2 70q-7 7 -8 41 q-1 23 -1 50v29q0 5 1 10q0 38 -4 56v416q3 13 3 55.5t8 66t34 23.5q35 0 35 -24q0 -17 -5.5 -51t-5.5 -54l-4 -258q0 -3 -2 -25.5t-2 -25.5v-70q0 -1 0.5 -6.5t1 -13t0.5 -12.5q0 -13 -2 -15l13 -342q0 -6 -1 -18.5t-1 -18.5q0 -8 4 -24q-2 -12 -2 -80q0 -72 12 -293 q2 -42 16.5 -132.5t14.5 -139.5v-8q-10 -20 -17.5 -24.5t-25.5 -4.5h-13q-18 13 -18 27q0 12 2 16q-16 46 -47.5 126.5t-40.5 104.5l-29 76l-41 80q-12 18 -40 96t-56 107l-61 125q-7 39 -54.5 136t-58.5 126q-13 34 -34.5 100t-31.5 94q-5 16 -18.5 45.5t-18.5 44.5 q-5 12 -15 45.5t-18.5 56t-13.5 25.5v-10q0 -39 4 -51v-37q0 -46 8.5 -129.5t8.5 -124.5v-71q0 -22 3.5 -64t4.5 -51v-869q0 -4 -16.5 -16t-22.5 -12q-11 0 -17.5 3.5t-8.5 12t-2.5 12.5t-0.5 15v10q0 28 3.5 65.5t3.5 49.5q0 17 -3.5 72.5t-3.5 123.5q0 142 7 156 q0 1 -1 15t-1 22q0 5 3 61t3 127q0 188 -19 408v10q0 9 -4 29l-24 317q-9 41 -9 84z" />
<glyph unicode="O" d="M102 793v16q0 1 7 27q0 19 -1.5 54.5t-1.5 53.5q11 38 18 83.5t13.5 108t9.5 87.5l13 39q13 77 73 202q7 16 19.5 32.5t22 26.5t29 28.5t26.5 25.5l30 18l29 13l82 20l59 6l13 4q31 -4 56.5 -11t36.5 -11.5t39.5 -19t37.5 -19.5q17 -15 40 -55t27 -45l8 -19 q17 -46 31 -69l10 -25q15 -45 30.5 -130.5t25.5 -121.5q28 -170 28 -332q0 -18 -2 -28q2 -31 2 -97q0 -357 -125 -546l-8 -13l-47 -41q-9 -8 -20.5 -14.5t-29.5 -14t-24 -10.5l-8 -2l-26 -10q-83 -10 -99 -10q-65 0 -113.5 15t-82 45t-54.5 61.5t-43 79.5q-6 12 -24 37.5 t-23 41.5q-9 21 -19.5 60.5t-16.5 56.5q-5 30 -16 95.5t-17 99.5v8q-1 20 -8 90.5t-7 108.5zM176 809q0 -107 14 -174v-23q3 -14 7.5 -42.5t7.5 -43.5v-14q0 -9 4 -25v-4q0 -4 6 -22q12 -69 27 -110.5t50 -101.5t50 -91q34 -43 86.5 -65.5t110.5 -24.5h8q105 11 155 57 l35 31l43 80q21 46 31.5 106t18 140.5t12.5 115.5v37q0 13 1 40t1 40q0 27 -2 41v39q0 104 -29 319l-6 14q0 11 -4.5 31.5t-5.5 28.5l-9 57l-8 19l-18 65q-13 16 -21 52t-14 49l-4 8q-14 35 -27 61l-18 25q-1 1 -43 37l-31 16l-47 6q-3 0 -10 1t-10 1t-8.5 -1t-8.5 -1 l-43 -4q-27 -5 -69 -20l-43 -31q-127 -101 -172 -479l-5 -35q0 -17 -4 -53l-4 -11l-4 -39l4 -37z" />
<glyph unicode="P" horiz-adv-x="919" d="M102 1487v8q2 13 2.5 37t2 39.5t6 32.5t17.5 25.5t34 8.5q8 0 27 -7t28 -7l12 2q200 -20 248 -20q6 -2 52.5 -14t63 -18t50.5 -20t56.5 -30.5t39.5 -38.5l13 -23q0 -5 18.5 -41.5t18.5 -60.5q26 -80 26 -146q0 -81 -14 -131l-17 -41q0 -1 -1 -8t-1 -8l-10 -22 q-48 -80 -132 -119t-177 -39h-33q-10 4 -12 4h-62q-1 0 -37.5 5t-50.5 5h-30q-4 0 -25.5 -2t-24.5 -2v-156q-4 -4 -4 -16q0 -8 4 -8q0 -12 -1 -34t-1 -34q0 -37 4.5 -107.5t4.5 -113.5q0 -2 -2 -26t-2 -27v-29q0 -42 11 -126t11 -126v-10v-8.5t-0.5 -7t-1 -7t-2 -5.5 t-3.5 -5t-4.5 -3.5t-6.5 -4t-9.5 -3t-11.5 -3.5q-13 0 -31 22v31q0 44 -7 129.5t-7 130.5q0 23 1 63.5t1 41.5q0 56 -5 169t-5 171q0 28 1 82t1 82q-6 64 -7.5 183.5t-2.5 141.5q-1 11 -7 104t-6 140zM174 1384q0 -21 4 -61t4 -59v-199q0 -2 2 -27t2 -28l4 -88h35 q45 0 118 -8.5t108 -8.5q23 0 59 6.5t45 6.5q93 22 144 88.5t51 195.5q0 63 -18 131.5t-52 118.5q0 32 -93 62.5t-155 37.5h-24q-7 4 -9 4h-26q-26 0 -78.5 4.5t-63.5 4.5q-5 0 -22 -1t-19 -1q-3 0 -6 -13.5t-6.5 -52t-3.5 -92.5v-21z" />
<glyph unicode="Q" horiz-adv-x="1048" d="M102 928v16q1 13 3.5 40.5t5 49t2.5 23.5l4 14h2q6 0 6 12q0 1 -1 4.5t-1 4.5l-6 -11q0 1 -1 5.5t-1 5.5q0 24 15 60.5t15 43.5q0 3 -2 6.5t-2 7.5q0 21 11 50l18 45q12 38 31 79t51.5 87t71 81t92 58.5t112.5 23.5h29q64 0 82 -8l8 -8l25 -12q4 -2 12 -9.5t14 -7.5 q57 -59 85.5 -101t52.5 -102l20 -34q21 -51 51 -176q21 -48 21 -101q18 -74 18 -166q0 -258 -35 -458q-2 -16 -11 -45t-11 -41q-2 -8 -6.5 -38t-10.5 -49.5t-16 -29.5q-5 -12 -15 -41t-15.5 -42.5t-19 -34.5t-30.5 -38l-2 -8q-12 -12 -16 -12v-9q23 -41 39 -88l12 -34l6 -9 q0 -10 4 -30q0 -21 -35 -21q-20 0 -35.5 25.5t-30 69.5t-16.5 49h-8q-19 -4 -53 -18.5t-49 -14.5h-17l-12 -4q-52 0 -96.5 11t-77.5 28t-62.5 48t-49 59t-41 74.5t-34.5 80.5t-32 90v24q-8 2 -8 21v16q0 15 -4 19l-6 -2q-19 63 -19 110v45q0 11 -2 11l-4 -7q-16 78 -16 146 q0 29 3 39.5t3 19.5q-4 12 -4 33h-7q0 2 3.5 10t3.5 17l-7 4q-4 12 -4 43zM106 801q0 4 5 4q2 -2 2 -4l-2 -4q-5 0 -5 4zM170 864q0 -128 10 -174q0 -2 3 -18t3 -17l27 -178v-14q2 -3 7 -26t5 -27q27 -104 63 -175.5t105 -140.5l33 -22q17 -11 52 -17.5t50 -13.5h60 q4 4 10 4l44 11q44 12 44 24q1 -2 -9.5 29t-26 76.5t-23.5 68.5q-4 0 -4 8l-5 10q0 1 -19 49t-30 68l-10 10l-2 7q-2 7 -2 12q0 16 13.5 24.5t29.5 8.5q13 0 20.5 -3.5t10 -7t5.5 -15t5 -17.5l12 -33q42 -111 86 -248q14 10 33 52.5t32 80t11 35.5l31 143q0 1 2 6.5t2 6.5 q4 16 6 33.5t3.5 39t2.5 33.5q2 7 7 44t5 44v103q5 8 5 10v8l2 27v133q0 253 -152 538q-2 2 -10 7.5t-13 11t-6 10.5l-36 39l-7 4q-3 0 -39.5 21.5t-62.5 21.5q-60 0 -102.5 -22.5t-108.5 -88.5q-6 -3 -31 -38t-58 -101.5t-48 -130.5q-15 -48 -21.5 -84t-7 -51t-0.5 -53 q-6 -15 -6 -58v-88z" />
<glyph unicode="R" horiz-adv-x="884" d="M102 1409v197q8 30 47 30h9l157 -10q3 0 10 -4t13 -4h27q27 0 30 -2l76 -17q1 0 12.5 -2t12.5 -2q68 -14 120 -47.5t83 -77t50 -99.5t26 -107.5t7 -108.5q0 -7 -6 -45t-6 -59q0 -1 -6 -18t-6 -19q-23 -62 -49 -96t-84 -62l-4 -8q-11 0 -27 -10.5t-19 -10.5l-8 2 q-9 -5 -46 -6t-48 -12q0 5 20.5 -51t34.5 -96q59 -172 78 -252q3 -17 14 -49t15 -48l4 -12q2 -4 7.5 -21t11.5 -36l6 -19q30 -94 30 -104q2 -7 20.5 -51.5t18.5 -53.5q0 -12 -11.5 -19t-25.5 -7q-19 0 -24 10q-32 91 -76 246q-15 46 -37.5 125t-42.5 142.5t-43 117.5 q0 15 -33.5 88t-44.5 84q-18 -4 -61 -4h-101q-3 0 -12 2t-16 2q-1 0 -14 -2t-15 -2q0 -33 -6 -97.5t-6 -97.5l12 -151v-349q2 -14 2 -36q0 -23 -43 -23h-8q-10 5 -10 10v398q-8 48 -8 84v55q0 26 2 80t2 80v61l-4 6q0 8 2 23t2 22v23q0 59 -3.5 128t-3.5 75v163 q0 38 -2 83.5t-2 70.5zM164 1157q0 -52 5.5 -150t6.5 -141h21q22 0 67.5 -5t69.5 -5q16 0 48 3t50 3h12q61 9 97 19q90 19 133 99t43 179q0 88 -15 144q-46 157 -77 157q0 23 -69 53.5t-97 30.5l-56 15q-4 0 -30 1t-29 1l-55 10h-113l-4 -6v-56q0 -2 -2 -20.5t-2 -20.5v-192 q0 -5 -2 -50t-2 -50v-19z" />
<glyph unicode="S" horiz-adv-x="804" d="M102 1266q0 48 10.5 86.5t34.5 93.5q10 25 20 43.5t27.5 35.5t27 26.5t38.5 26t41.5 23t54.5 27.5l25 6h31q5 0 14 1t15.5 2t7.5 1q11 0 31.5 -7t39.5 -7l47 -25q4 0 23.5 -21t32.5 -38l22 -24q0 -1 2.5 -6.5t5.5 -12.5t4 -10q29 -63 29 -127v-45q0 -5 -3 -48.5t-3 -47.5 v-19q0 -7 -14.5 -14.5t-20.5 -7.5q-18 0 -28.5 8.5t-10.5 21.5q0 20 5 56.5t5 54.5q0 260 -190 260h-37q-6 0 -45 -15.5t-51 -27.5q-52 -30 -87.5 -112t-35.5 -158q0 -43 16 -82t52 -77.5t64.5 -63t82.5 -66.5l-1 2q0 8 132 -127q70 -72 66 -72q37 -62 58 -102.5 t41.5 -103.5t20.5 -117v-164q-4 -57 -30 -100l-21 -31l-6 -8q-8 0 -21.5 -24t-21.5 -24q-13 -8 -46 -30t-48.5 -31t-43 -22t-54.5 -18t-58 -5q-23 0 -59 16.5t-45 16.5l-21 14q-7 0 -20.5 10.5t-18.5 12.5q-28 37 -51 84l-12 45v28q0 3 -1 36t-1 36q1 52 7.5 145t8.5 131 q9 11 13.5 15t12.5 8t17 4q29 0 29 -29q0 -35 -11.5 -119t-11.5 -141v-21.5v-23.5t1 -22t1.5 -24t2.5 -22t5 -23t7 -20t9.5 -21t13 -17.5t16.5 -16.5q21 -16 54 -32.5t54 -16.5q87 0 133 27q5 4 21.5 17t28 20.5t18.5 7.5q59 59 75.5 114.5t16.5 157.5q-18 123 -52 213 t-104 187q2 0 -12 13t-40 35t-54.5 47.5t-61 55.5t-55.5 53l-22 17q-2 2 -8 7t-8.5 8t-2.5 7l-37 35q-83 80 -86 191z" />
<glyph unicode="T" horiz-adv-x="688" d="M102 1612q0 9 11 17.5t20 8.5h14q53 -2 138 -10l88 -8h24q10 0 43 -5t72 -5t47 2q2 -2 9 -8t9.5 -9t5.5 -10.5t3 -17.5q0 -9 -8.5 -17t-22.5 -8h-8q-1 0 -7.5 2t-7.5 2h-67q-3 0 -21.5 3.5t-21.5 4.5q-3 0 -21 -1t-20 -1q0 -25 -2 -73.5t-2 -71.5v-92q0 -86 1.5 -278 t2.5 -333q0 -70 0.5 -107t-0.5 -40v-244q6 -18 6 -37v-102q0 -4 2 -36t2 -34v-98q-2 -3 -5 -5.5t-6 -4t-8 -3t-7.5 -1.5t-8.5 -1t-8 -1q-12 5 -15.5 8.5t-6.5 15.5v164q0 183 -7 449q-4 24 -4 26v15q0 5 2 32.5t2 32.5v176q0 244 -8 367q0 20 4 92t4 109q0 26 -3 43.5 t-5.5 27t-11.5 14t-11.5 5.5t-16 0.5t-15.5 -0.5h-43q-16 4 -72 4h-10q-2 4 -15.5 14.5t-13.5 26.5z" />
<glyph unicode="U" horiz-adv-x="878" d="M102 729q4 28 4 127v125q0 45 6 149q5 89 5 142v16q0 34 -2 101.5t-2 101.5q0 1 2 19t2 24q-6 40 -6 82q0 13 41 22q15 0 24.5 -12t9.5 -29q0 -70 -6 -137v-235q-1 -22 -5.5 -149.5t-4.5 -149.5v-99q0 -4 -2 -44.5t-2 -45.5v-106q0 -18 3 -50.5t3 -33.5v-119 q0 -56 12 -90q3 -41 11 -85.5t35 -104t67 -78.5q47 -23 88 -23q57 0 86 16q4 0 11.5 8.5t17.5 12.5q24 27 39.5 55.5t21.5 50t18.5 72.5t24.5 90q0 2 3 8.5t3 8.5v10l4 10q-1 16 2.5 39.5t12 65.5t10.5 53l14 80q0 2 3 15t3 15q4 34 9.5 102t9.5 103l10 86q0 2 1 10t1 9v108 q1 4 4.5 36.5t3.5 39.5v14q0 11 3.5 115t3.5 115v155q-5 10 -5 23q0 23 11 34t43 11q10 0 16 -12.5t6 -20.5v-16q-8 -156 -8 -234v-116q0 -2 -2 -15t-2 -14v-29q0 -37 -5 -123.5t-9 -97.5l-29 -262v-8q1 -22 -12 -75.5t-15 -70.5l-14 -110q0 -4 -10 -54q-3 -10 -11.5 -45.5 t-12.5 -50.5t-14.5 -48t-19 -49.5t-23 -44t-29.5 -42t-37 -33.5t-46.5 -28t-56.5 -16t-68 -7q-24 0 -84 22q-6 4 -17.5 11.5t-18.5 12t-16 12.5t-15 16q-28 34 -49 99t-27 130q-2 17 -8 84.5t-6 71.5v118q0 25 -4.5 77t-4.5 79z" />
<glyph unicode="V" horiz-adv-x="919" d="M102 1604q0 11 14.5 19.5t26.5 8.5q10 0 22.5 -6.5t12.5 -15.5v-4l19 -84q3 -13 19 -62t17 -71q26 -103 46 -224q5 -30 12 -90.5t12 -89.5q1 -24 14.5 -67.5t16.5 -63.5q3 -23 10.5 -94.5t15.5 -110.5q4 -21 16.5 -57t16.5 -51q-2 -5 -2 -9q0 -7 7.5 -26t7.5 -31l14 -51 l2 -23l18 -71q2 -15 4 -17l23 -96q0 -9 8 -12q12 53 21 119q0 58 18 136.5t18 104.5v15q7 4 7 18q10 64 40 211.5t48 255.5q0 55 10 84v4q0 2 4 8l27 117q0 1 1 6t1 6l18 84q0 3 2 10.5t4.5 17t3.5 11.5q0 30 27.5 126.5t52.5 96.5h21q18 -9 18 -26q0 -8 -4.5 -15t-10 -13 t-10 -26t-4.5 -51v-18q-10 -25 -22 -69t-16 -58l-52 -230q0 -9 -5 -48.5t-9 -47.5l-27 -145q-10 -60 -12 -70q0 -19 -12.5 -70t-18.5 -57q0 -35 -7 -73.5t-18 -86t-16 -75.5q-2 -22 -20.5 -157t-20.5 -159q-4 -33 -6 -46.5t-8.5 -41.5t-17 -40.5t-25.5 -12.5q-14 0 -24 13 t-14 33t-5.5 34.5t-1.5 25.5q-15 57 -51 228q-10 35 -10 47l-70 260q-9 30 -12 88.5t-8 83.5l-19 84q0 21 -20 88l-15 100l-2 13l-10 82q-2 19 -14 52.5t-15 49.5l-14 82q-7 44 -37 134t-31 106z" />
<glyph unicode="W" horiz-adv-x="1302" d="M102 1606v8q20 24 41 24q45 0 45 -92l7 -35q0 -3 8 -51t10 -71q7 -52 26 -150.5t25 -142.5l17 -127q4 -8 4 -31q2 -29 18 -91t16 -81l11 -61q3 -28 8.5 -61.5t14 -77t12.5 -64.5q4 -24 14.5 -71.5t17 -88.5t6.5 -78q5 0 5 -8l4 6q36 163 37 168l18 51q20 56 46.5 174.5 t45.5 175.5q9 19 17 25t28 6q25 0 27 -12q0 -22 18.5 -63.5t20.5 -47.5q0 -25 10.5 -61t28.5 -82.5t24 -67.5l23 -57q0 -13 8.5 -31t13.5 -37l53 -96q3 -23 29.5 -78.5t38.5 -93.5q4 6 4 19q0 2 1 32t1 35q5 16 6 24.5t0.5 17t3 43t11.5 89.5l12 64q34 266 37 284l2 7 q-2 -2 3 22.5t10 51t3 28.5l17 104q0 9 4 27t4 27l24 102l15 90q0 25 15 67t15 64q8 27 12.5 48.5t11 66.5t13.5 86v8q1 3 4.5 19t4.5 18q-5 10 -5 20q0 35 50 35q15 0 22 -10v-27q0 -2 -3 -19t-3 -19v-17q0 -1 -6 -31q-15 -48 -25.5 -115t-13.5 -79q-33 -84 -37 -150v-16 q-1 -24 -14 -67t-15 -60q-8 -53 -28 -156t-29 -159q-1 -5 -12.5 -93t-21.5 -145v-10q0 -40 -11.5 -113.5t-13.5 -105.5v-92q0 -12 -17 -80q-4 -12 -6.5 -29.5t-5 -25.5t-12 -14.5t-27.5 -6.5q-10 0 -17.5 14t-7.5 27q-5 14 -19 45.5t-26.5 56.5t-13.5 25l-27 74l-12 28 l-18 47q0 2 -6 10.5t-12 18t-7 10.5q-11 20 -33 88q-5 16 -20 49t-25 60t-10 45q-10 20 -19.5 54t-16 56.5t-11.5 24.5q-32 -83 -39 -129q-10 -52 -33 -109v-18q-1 -1 -8 -20.5t-8 -20.5l-23 -98q-4 -8 -4 -29l-12 -67q0 -18 -11 -43.5t-11 -32.5q0 -40 -13 -87.5t-43 -47.5 q-17 0 -28 22v39q0 1 -2.5 11.5t-2.5 11.5v24q0 7 -4 34t-4 44l-4 6q-1 8 -5 40.5t-8.5 65t-8.5 56.5q-12 10 -20.5 105.5t-20.5 119.5l-17 90q0 25 -8 49l-21 112t-22.5 125.5t-7.5 63.5l-41 220l-2 9q-19 76 -19 111l-14 89q-6 50 -22 116z" />
<glyph unicode="X" horiz-adv-x="772" d="M102 1591q0 31 58 31q0 -1 3 -3t3 -3l10 -17q0 -1 1 -12t1 -12l17 -68l84 -260q24 -103 65 -225q0 -5 8.5 -34.5t16.5 -41.5q4 6 8.5 34.5t11.5 49.5v8q1 5 12 45l13 60l8 12q3 25 17 80.5t14 79.5l16 61l23 113l1 8q18 129 37 137l33 4q5 0 13 -12.5t8 -17.5 q1 -12 -1.5 -23.5t-9 -27t-8.5 -23.5q-8 -27 -21 -104t-26 -103q-12 -70 -47 -201t-47 -194l-12 -62q-6 -6 -6 -24v-10q10 -52 43 -144.5t40 -118.5q3 -10 10.5 -33t13 -40.5t5.5 -24.5l10 -29q0 -1 1 -8t1 -8q12 -30 18.5 -49t11 -34t17.5 -59.5t31 -101.5q0 -2 15.5 -33.5 t31 -69.5t15.5 -56q0 -8 -13 -20.5t-24 -12.5q-9 0 -18.5 12t-17.5 33t-14 40.5t-12.5 43.5t-9.5 33q-3 8 -8 21.5t-15.5 42.5t-17.5 48t-6 19l-22 71q-11 40 -19.5 67.5t-16.5 50.5t-29 86.5t-48 148.5q-2 -2 -5 -11t-5 -10l-52 -215l-32 -108q-5 -11 -8 -27.5l-5 -27.5 t-4 -13q-22 -72 -39 -137q-12 -41 -12 -51v-13l-8 -26v-11l-4 -31v-1v-11q-9 -20 -35 -20h-8q-25 0 -25 27q0 6 4 10q10 35 35 132.5t41 145.5v11q0 27 16.5 56t16.5 54q15 38 29.5 110.5t21.5 96.5l21 70l22 125q-7 24 -29.5 88.5t-35.5 113.5q0 1 -13.5 39.5t-15.5 55.5 v14q0 1 -5 9t-5 9q-15 40 -46 139t-65 199q0 21 -13.5 49t-13.5 39z" />
<glyph unicode="Y" horiz-adv-x="704" d="M102 1554q0 8 15 13.5t20 5.5q11 0 22 -8t11 -17l18 -53l19 -39q7 -17 27 -54.5t28 -58.5q5 -29 34.5 -95t37.5 -101l16 -37l8 -27l29 -73q4 17 9.5 52t9.5 52q5 25 17 70t19 76q27 126 54 200q11 21 20 69t22.5 77.5t41.5 29.5q1 0 5.5 -3.5t9.5 -7.5t7 -5v-8 q0 -9 -24 -90l-27 -74q-30 -80 -41 -133q0 -19 -10.5 -63t-16.5 -50l-18 -76q-9 -39 -19 -104q0 -18 -10 -57.5t-10 -59.5v-55q0 -56 -4 -162t-4 -160q0 -4 1 -26.5t1 -26.5v-264q10 -147 10 -184v-11q0 -12 -12 -18t-25 -6h-12q-14 10 -14 82q0 10 1 25t1 16l-7 78 q0 6 -1 39t-1 40v9q2 47 2 137v76q0 2 -2 9.5t-2 8.5q0 4 2 32t2 31v101q0 2 1.5 17t1.5 16v34q0 3 -1.5 35t-1.5 35v33q-3 28 -9.5 58.5t-16 64.5t-10.5 39q-4 14 -20.5 52t-16.5 48q-44 148 -92 240q-10 22 -35.5 67.5t-42.5 81.5t-17 57z" />
<glyph unicode="Z" horiz-adv-x="722" d="M102 27q0 21 17 47q4 8 8.5 33t13.5 36q12 59 45 181.5t37 136.5l27 110q11 33 14 39l17 82q8 34 31 105.5t32 111.5q11 28 26.5 95.5t32.5 105.5l15 18v13q3 37 16 84t34 107.5t30 92.5l37 119l2 27h-15q-36 0 -106.5 3t-106.5 3q-25 0 -71 -6t-68 -6q-21 0 -30.5 6 t-18.5 20q3 15 12 22t30 11.5t23 5.5l11 -2l36 4q13 0 39 2t39 2h15l6 -4q10 -2 28 -2h33q10 0 31 -1t31 -1h75l50 -2l20 4l14 -14l7 -23l-5 -20l-18 -41l-35 -100q-10 -28 -28 -107.5t-35 -114.5l-29 -90q-5 -16 -28.5 -85.5t-32.5 -106.5l-31 -113q-7 -24 -23 -76 t-27.5 -93t-19.5 -79l-2 -18l-18 -66l-6 -41l-11 -32q0 -11 -4 -31l-8 -33q-2 -9 -7.5 -34t-11 -45.5t-12.5 -33.5l-36 -137l-15 -35l49 7h64q9 0 27.5 1t27.5 1h115q20 0 78 -4l24 -5l23 -22q-1 -4 -4 -8.5t-5.5 -6.5t-8.5 -7t-9 -7l-41 -2l-10 4h-14l-19 6h-151l-62 -8 h-43q-14 0 -44 -5.5t-46 -6.5l-23 8z" />
<glyph unicode="\" horiz-adv-x="495" d="M102 1604q3 32 37 32q22 0 30.5 -8.5t8.5 -34.5q0 -54 17.5 -169t17.5 -171v-6q0 -2 3.5 -14t4.5 -12l4 -74q6 -24 6 -27v-14q0 -6 4.5 -25.5t4.5 -33.5v-5q1 -3 4 -36t4 -37q2 -59 24 -150l23 -166q4 -22 8 -46.5t8.5 -54.5t7.5 -46l27 -182q0 -15 2 -23l21 -129 q7 -14 9 -42t3.5 -47.5t9.5 -19.5q-2 -8 -2 -10q4 -20 4 -30q-3 -27 -39 -27q-10 0 -16.5 5.5t-9 17t-3 20.5t-1 23.5t-0.5 19.5q-15 49 -15 86v29q-10 145 -51 331q-16 88 -16 115q-1 11 -9 42t-8 58l-24 138q-12 65 -15 129q-5 5 -9.5 49.5t-4.5 73.5v6q0 9 -12 69 l-15 142q-4 4 -4 12q0 4 1 11.5t1 10.5q-13 12 -19 48.5t-10.5 89.5t-11.5 82z" />
<glyph unicode="_" horiz-adv-x="1019" d="M-508 -178q2 3 9 12t10 10l256 -4q4 4 10 4q20 -4 22 -4h11q102 2 448.5 4t534.5 9q1 0 10 3t10 3l7 -1q6 -1 11 -1q42 0 131 5t132 5q56 1 156 -1.5t139 -2.5q125 0 141 8q11 -1 23 -28.5t12 -41.5q0 -10 -4 -13t-15 -3h-10q-11 0 -125.5 6t-204.5 6q-46 -4 -71 -4 q-36 0 -52 2h-100l-14 -4q-3 0 -33 1t-37 1q-1 0 -10.5 -3t-11.5 -3q-1 0 -10 1t-13 1q-8 0 -24 -3t-19 -3q-1 0 -8 1t-8 1h-56l-86 -6h-2q-12 1 -82 3t-82 3q-15 -6 -28 -6q-5 0 -14 1t-13 1q-10 0 -27 -1t-20 -1q-12 0 -41.5 1t-30.5 1q-2 0 -19.5 -3t-19.5 -3 q-10 2 -67 2l-14 -6l-70 2h-23q-22 0 -70.5 -1t-54.5 -1q-5 0 -10 1t-6 1q-2 0 -14 -4q-5 0 -47 1t-50 1t-79.5 -2t-79.5 -2h-54q-17 0 -44.5 -5.5t-34.5 -5.5q-20 0 -31 8.5t-20 29t-13 26.5v2z" />
<glyph unicode="a" horiz-adv-x="1003" d="M102 49q29 109 41 187l4 6q0 28 22.5 125t27.5 131q4 4 4 12l12 74q2 13 17 55t14 63v9l10 45q0 36 16 69q13 95 52.5 272t48.5 224q8 8 8 68l4 6l29 147q0 9 8 25q6 44 15 56.5t30 12.5q24 0 37.5 -20t13.5 -37l14 -66q0 -12 19 -69q5 -19 11 -57.5t11 -57.5l56 -217 q3 -14 12 -66.5t18.5 -85t22.5 -45.5v-10q0 -12 3.5 -31t6.5 -22q2 2 3 -3q0 -2 2 -12q6 -50 20 -77l14 -76q7 -34 21 -59l14 -15q0 -4 2 -16t2 -19l-8 -6q0 -10 2.5 -22t8 -32t12 -39.5t17.5 -55.5t21 -68q0 -1 9.5 -29.5t19.5 -66.5t10 -63v-9q0 -6 8 -14l27 -121 q4 -2 4 -14q0 -41 -31 -41q-21 0 -30 15t-9 30q-22 66 -42.5 160.5t-65.5 246.5v11l-19 78q-5 23 -10 25q-3 1 -22 1q-58 0 -66 -8h-18q-20 0 -41 -2.5t-50 -7t-40 -6.5q-114 0 -170 -11q-20 0 -28 -38t-12.5 -84.5t-15.5 -57.5v-12q0 -8 -6 -31t-10 -27q-3 -53 -25 -158.5 t-45 -105.5q-3 1 -8.5 3.5t-9 4.5t-8 5t-7.5 6t-5.5 7.5t-2.5 10.5zM287 600q41 0 108.5 5t85.5 5q1 0 7 -1t10 -1q8 0 18.5 4t13.5 4h27q34 0 74.5 6.5t40.5 16.5q0 3 -12 50t-23.5 92.5t-9.5 47.5q-20 91 -97 402q-4 4 -4 12l-18 72q-3 10 -11.5 50t-16.5 69.5t-15 33.5 q-2 -2 -8 -28q-3 -15 -27.5 -143t-38.5 -224l-12 -39q-4 -24 -17 -63l-55 -264q-20 -87 -20 -107z" />
<glyph unicode="b" horiz-adv-x="835" d="M102 1583q0 24 16 38.5t46 14.5q2 0 14.5 -2t14.5 -2h38q52 0 130.5 -27t111.5 -75q67 -78 113 -230q-2 -2 -2 -8q0 -12 6 -35.5t6 -31.5v-84q-6 -6 -6 -15q0 -4 1 -8l1 -4q-3 -7 -16.5 -42t-24.5 -46q0 -38 -47 -68l-98 -65q-11 -5 -11 -10q-1 -8 8.5 -10t29.5 -4 t44 -7.5t58.5 -26.5t68.5 -55q127 -130 127 -360v-10q0 -5 1 -32t1 -32q0 -8 -5.5 -37t-6.5 -30q0 -2 1 -6t1 -5q-1 -1 -4.5 -10.5t-3.5 -11.5q-2 -2 -2 -4l2 -6l-8 -11l2 -4q-3 -10 -12.5 -28.5t-12.5 -28.5l-88 -90q-12 -12 -45 -28l-33 -15h-22l-9 -4h-16 q-24 -2 -71 -9.5t-64 -9.5q-2 0 -24.5 -5t-43.5 -5h-71l-9 -4q-45 0 -45 65q0 5 1 14t1 11v313q0 103 -10 308.5t-10 306.5v28q0 59 -7 152t-7 145v78q0 9 -4.5 84t-4.5 84zM176 1499q4 -12 4 -74q2 -70 5.5 -240.5t7.5 -262.5v-11q6 -4 20 -4h37q6 4 8 4q1 0 7 -2t7 -2 l11 4h12q6 0 55 21l41 18q61 28 96 93t37 133q0 166 -92 305q-30 46 -91.5 68t-125.5 22q-32 0 -35 -8v-15q0 -33 -4 -49zM193 811q0 -72 9 -229t9 -236q0 -17 -2 -53t-2 -55v-13q0 -32 2 -71.5t4.5 -64.5t3.5 -26q17 0 37 -4q12 4 45 4q24 1 48.5 4t61.5 9t50 8t24 4 t21 5.5t16.5 5.5t16.5 8.5t13.5 8.5t13.5 11t12 10.5t14 13t14 13.5q29 29 43.5 80t14.5 145v39q0 29 -10.5 89t-10.5 81l-37 78q-55 82 -143.5 118.5t-179.5 36.5h-33q-4 0 -14 1.5t-15 1.5q-26 0 -26 -23z" />
<glyph unicode="c" horiz-adv-x="870" d="M102 745q0 2 3.5 31t3.5 47v11q0 27 6 65t6 57v27q8 89 18 129q5 19 14 48.5t15 50.5t6 32v6q5 15 11.5 53t17.5 72.5t30 59.5l6 13q16 39 23 48l31 39q4 6 10.5 18t12.5 21.5t14 15.5q10 10 21 14t16 9l36 10q10 10 76 10q43 0 101 -28q147 -75 147 -263v-16 q0 -7 0.5 -23t-0.5 -25t-1 -23.5t-2 -23t-6 -17.5t-10.5 -13t-15.5 -4q-10 0 -24.5 11.5t-14.5 21.5q0 3 1 12t1 10v51t-2 65t-7 57t-18.5 58.5t-33.5 37.5l-37 26l-25 10q0 7 -17.5 13t-27.5 6q-69 0 -110.5 -32t-83.5 -132q-6 -15 -15.5 -49t-18 -60.5t-15.5 -33.5 q-51 -147 -51 -221q-3 -32 -11.5 -96.5t-13 -115.5t-4.5 -96q0 -9 0.5 -28t1 -35t0.5 -17q0 -91 12 -114q0 -1 -1 -6t-1 -9l2 -4l2 -8q0 -4 3.5 -26t4.5 -25q0 -32 38.5 -148.5t70.5 -142.5l70 -70q6 -7 36 -21t31 -15q49 -17 94 -17q49 0 84 32t51.5 80.5t23.5 90.5t7 78 v225q0 4 -3 15t-3 14q0 2 1 7.5t1 6.5l31 29h8q32 0 35 -23v-45q0 -1 2 -15t2 -16q-2 -8 -4 -10v-67q0 -1 2 -11t2 -12t-2 -32t-2 -33v-54q-6 -9 -6 -32v-11l-13 -84q-4 -16 -10 -28l-4 -11q-24 -40 -24 -53l-13 -14q-75 -82 -166 -82h-14q-98 4 -166 51q-3 2 -16.5 10 t-22.5 14t-22.5 18t-27 28.5t-26.5 38.5q-49 70 -88 214t-39 216v86q0 11 -2 34t-2 37z" />
<glyph unicode="d" horiz-adv-x="913" d="M102 1571v43q9 22 82 22q29 0 59 -4.5t67 -12.5t59 -11q88 -34 147 -75t117 -106q18 -20 31 -55.5t20 -46.5l35 -70q8 -17 24 -68.5t21 -66.5q0 -1 3 -7t3 -7q41 -105 41 -252v-23q0 -4 -2 -41.5t-2 -41.5v-70q-4 -12 -4 -14l-15 -93q-6 -9 -9.5 -31t-8.5 -30l-29 -66 q0 -6 -4 -10q-50 -89 -108 -158l-13 -10q-1 -2 -21.5 -18t-21.5 -17l-9 -5q-64 -37 -99 -72l-27 -17q-5 -2 -34 -26t-31 -25q-54 -37 -99 -51q-20 0 -52 -18.5t-52 -18.5q-11 0 -20 13t-15 14q0 4 -1 30.5t-1 30.5q0 26 2.5 77.5t3.5 67.5q-4 16 -4 68l-6 160q-8 40 -8 88 v102q0 4 -2 38t-2 38v33q8 144 8 217v92q-8 32 -8 63v105q0 57 -7.5 168t-7.5 168zM174 1479q0 -29 4 -86t4 -86q0 -11 -4 -19q4 -28 4 -102v-70q4 -16 4 -72v-55q0 -46 -4 -139.5t-4 -140.5v-23q0 -1 4 -51t4 -92v-25q1 -28 10 -140t10 -161v-131l1 -10q14 8 41 14t37 10 q26 10 67.5 41.5t53.5 38.5q3 2 25.5 17.5t33.5 23.5l33 27q10 8 30.5 22t36 26.5t27.5 27.5q22 24 49.5 76t42.5 73q22 44 39 117q20 98 20 266q0 111 -20 180q0 11 -15 48l-14 36l-47 135q-5 5 -46.5 77t-41.5 81l-43 43q-4 1 -6 2.5t-2.5 2.5t-1.5 2.5t-4 2.5l-45 31 q-8 4 -21.5 13t-23.5 14.5t-19 5.5l-20 10q-41 13 -59 18t-49 10t-64 5q-17 0 -21 -8t-2 -21.5t-4 -32.5v-32z" />
<glyph unicode="e" horiz-adv-x="843" d="M102 1587q0 25 22.5 37t51.5 12q3 -1 15.5 -5t21.5 -5q31 0 33 2q245 0 366 -14q17 6 60 6q22 0 35 -4t21.5 -10.5t12.5 -8.5v-10q0 -35 -26 -35l-244 15q0 -4 -18 -4l-17 2q-3 0 -17.5 -1t-17.5 -1l-34 -2q-8 0 -29 1t-33 1q-10 0 -30 -1t-29 -1h-43q-6 0 -10 -3 t-6.5 -8.5t-4 -10.5t-2 -13.5t-0.5 -12.5v-12v-8q0 -18 2 -34.5t2 -26.5v-58q0 -92 4 -112q0 -13 -2 -76t-2 -74q0 -1 1 -7t1 -7l-1 -19q-1 -19 -1 -30q0 -68 4 -86v-21q0 -7 2 -12t7 -8t10 -4.5t13.5 -2t14 -0.5h17h16.5h162q16 0 43 5.5t43 5.5q7 0 17.5 -2.5t22 -10.5 t11.5 -20q-1 -7 -8.5 -16t-15 -14t-8.5 -5q-15 0 -19 4l-113 -8h-18q-11 0 -35 1t-35 1q-1 0 -9 -1t-9 -1q-27 0 -31 2q-4 -4 -6 -4q-4 -1 -25 -1.5t-38 -3.5t-17 -11q0 -24 2 -71t2 -69q0 -8 -1 -24t-1 -23l13 -348q0 -17 2 -52t2 -54q0 -1 -1 -18.5t-1 -18.5q0 -4 1 -30.5 t1 -29.5v-10q0 -20 77 -20q167 20 302 20l28 -2q8 0 28 2t32 2q2 0 9 -0.5t11 -1t10.5 -2.5t10 -5t6 -8t2.5 -12q0 -43 -25 -43q-8 0 -24 2.5t-25 2.5q-13 0 -37 -1.5t-37 -1.5h-82q-114 -17 -278 -20q-15 0 -23 -4q-55 2 -55 59q0 13 8 15q0 2 -1 14t-1 14q2 10 2 39 q0 14 -1 42.5t-1 29.5q0 2 1 19t1 18q-16 89 -16 270q0 48 3 186t3 232q-6 60 -6 201q0 86 6 161q-6 29 -6 88q0 34 -7.5 116.5t-11.5 86.5z" />
<glyph unicode="f" horiz-adv-x="837" d="M104 1622q0 18 43 18q3 0 15.5 0.5t21.5 0.5t21 -1t20 -4h8q7 0 13 -4h90q36 0 107.5 2t107.5 2q19 0 57 -2t56 -2q3 0 10.5 2t11.5 2q1 0 7.5 -2.5t9.5 -3.5t9 -4t9 -6l7 -7t5.5 -9t1.5 -11q0 -12 -10.5 -21t-24.5 -9q-8 0 -28 3t-23 3h-10q-10 0 -12 4h-66q-2 0 -26 -2 t-27 -2h-107q-9 0 -59 1q-25 1 -47 1t-41 -1q-38 -1 -72 -7v-199q2 -12 2 -39v-49q0 -35 4 -51v-164l5 -17q52 -2 75 -2q51 0 103 2.5t59 2.5h19q18 0 34.5 -9t16.5 -26q0 -14 -15.5 -25.5t-31.5 -11.5q-40 8 -62 8q-203 0 -203 -39q0 -64 8.5 -178.5t10.5 -159.5l4 -112 q1 -36 8.5 -146.5t7.5 -169.5q0 -24 6.5 -78.5t6.5 -58.5v-12q0 -7 -9 -16t-19 -14l-9 -5q-6 0 -33 16v49q0 71 -3.5 142t-11.5 188t-10 143l-14 211v62q-4 203 -14 217q6 104 6 129q0 93 -9.5 242t-9.5 229z" />
<glyph unicode="g" horiz-adv-x="956" d="M102 662v274q0 12 4.5 36.5t4.5 35.5v16q0 5 8 25q6 6 10 35.5t7.5 66t6.5 49.5q0 16 16 54t23 69q3 12 17 36.5t14 41.5l12 20q42 72 122 143.5t149 71.5h34q88 0 146 -34q4 -2 24.5 -20t24.5 -19l57 -56q3 -10 11.5 -25t11.5 -22q33 -70 33 -182v-49q-4 -16 -6 -21.5 t-10 -10.5t-23 -5q-35 0 -35 25q0 13 1 37.5t1 35.5v15q-8 95 -27 139q-19 41 -69.5 87t-79.5 46h-8q-2 0 -12 2t-11 2h-14q-8 2 -10 2h-11q-13 0 -28 -3.5t-21 -6t-26 -11.5t-21 -10l-8 -4q-166 -80 -230 -446q-2 -13 -8.5 -44.5t-10 -55t-3.5 -44.5v-16q0 -8 -4 -14v-223 q4 -26 8 -74.5t6 -67.5l15 -71q0 -9 12 -39q8 -36 21 -75t37 -96t62 -106.5t83 -77.5l28 -18q32 -21 115 -25q51 0 76 8q1 0 10 5.5t10 5.5q30 16 53 38t37.5 44t24 53.5t14.5 56.5t6.5 63.5t1.5 63.5t-1 67.5t-1 65.5q0 12 1 39l1 27q0 1 -1 13t-1 13v103q0 5 1 19t1 22 q-3 14 -7.5 18t-20.5 4q-4 0 -13.5 -2t-13.5 -2q-35 0 -102 4t-101 4h-20l-29 15q-12 6 -12 24q14 20 41 29h18q10 -1 28 -3t32.5 -4t27.5 -5h193q20 0 29.5 -4.5t15.5 -20.5v-12q4 -4 4 -19q0 -5 -4 -51t-4 -65q0 -1 1 -13.5t1 -13.5v-106q0 -16 1 -49t1 -52q0 -1 -1 -5 t-1 -5q0 -7 3 -21t3 -22q0 -141 -61 -260q1 0 -16.5 -19t-39.5 -38t-30 -19l-23 -18q-76 -31 -139 -31q-44 0 -64 4q-11 4 -33 11t-35 11.5t-30.5 13t-30.5 19.5q-64 44 -110 122t-86 200q-33 68 -33 139l-12 64q0 2 -3 8t-4 6v29q0 5 -1 17t-1 18z" />
<glyph unicode="h" horiz-adv-x="1015" d="M102 1610q0 8 16 17t25 9q5 0 9.5 -1t8 -1.5t6.5 -3t4.5 -4t3 -6l2 -6t1.5 -7.5t1 -7.5t0.5 -9t0.5 -9.5q0 -3 -1 -23.5t-1 -23.5l4 -8q-4 -20 -4 -78q0 -46 6 -70v-16q0 -22 -1.5 -57.5t-1.5 -65.5v-24q1 -40 9 -72v-2q0 -2 5.5 -66.5t5.5 -95.5q0 -19 -1 -58.5 t-1 -60.5t3 -35t5 -22t11.5 -13t13 -6t19 -3t21.5 -3h21q13 0 34 -1t42 -2.5t40 -3t31 -2.5l13 -1q15 0 38.5 1t24.5 1q6 0 59.5 -3t81.5 -3q1 0 33.5 -1t48 0t41 2.5t37.5 5.5t12 11l9 217q0 1 -2 8t-2 11q0 1 3 18t3 19t-2 15.5t-2 14.5q0 21 1 61.5t1 59.5q0 1 -2 17 t-2 18l6 227q0 3 -1 29.5t-1 28.5v47q3 11 4.5 25.5t3 21t10 11.5t25.5 5t24 -14l8 -8l-10 -391q0 -9 -1 -66t-1 -67q0 -2 1 -14.5t1 -14.5q0 -60 -4 -84q4 -14 4 -41q-1 -20 -5 -61t-5 -62v-6q0 -1 2 -12.5t2 -12.5q0 -20 -1 -62t-1 -63q0 -25 2 -75t2 -76q-6 -48 -6 -49 q0 -37 6 -49q0 -2 -1 -14.5t-1 -14.5q0 -23 2 -71t2 -72q0 -14 -2 -38.5t-2 -35.5q0 -13 3 -48t3 -46v-39q-7 -17 -41 -25q-4 2 -18 2v2q0 6 -6 12l-9 35q4 56 4.5 161.5t0.5 121.5q-5 33 -5 45v313q0 11 -2 11h-313l-6 4h-131q-1 0 -4 2t-4 2l-11 -1q-10 -1 -16 -1 q-2 0 -14 2t-19 2h-35q-47 0 -67 4q-6 -24 -6 -35v-8q0 -17 2 -48t2 -46q0 -22 -1 -67t-1 -68v-35l6 -66q0 -2 -1 -22.5t-1 -28.5v-6q0 -39 6 -51l2 -56q6 -6 6 -98v-5q0 -16 -0.5 -24t-2.5 -21t-6 -19.5t-12 -11.5t-20 -5q-19 0 -26 18l-1 11q-1 11 -1 14q0 2 2 12t2 11v36 q0 27 -9 119q3 6 3 37q-1 8 -5.5 79.5t-5.5 78.5q-1 11 -0.5 32.5t1.5 59.5t1 51q0 38 -1 113t-1 112q0 4 1 18t1 21q0 11 -4 31q2 2 2 8l2 51l-6 5q2 4 2 32q0 23 -4 27v8q0 42 -6 95.5t-6 76.5q-3 36 -3.5 105t-2.5 96v2q0 9 -6.5 110.5t-6.5 139.5z" />
<glyph unicode="i" horiz-adv-x="305" d="M102 1610v6q0 9 18.5 15.5t31.5 6.5q28 0 28 -39q0 -19 -3 -56t-3 -60v-101q0 -91 9.5 -272t9.5 -272q0 -8 -5 -13v-61q0 -32 3.5 -95t3.5 -94l2 -219q6 -31 6 -129v-114q-2 -2 -2 -19v-61q-3 -11 -17.5 -20t-25.5 -9q-17 0 -25 19v36q0 37 2 106t2 103v13q0 60 -6 114 v17q-3 91 -5.5 307t-6.5 332l-6 155q-1 9 -4 37.5t-3 44.5v168q0 7 -2 76.5t-2 77.5z" />
<glyph unicode="j" horiz-adv-x="626" d="M102 186q0 18 6.5 49t6.5 48q0 30 51 39q11 0 22 -9.5t11 -19.5q0 -8 -5.5 -33.5t-11.5 -34.5v-57q2 -24 22 -67.5t40 -43.5h94q28 0 50 30.5t33.5 72.5t17 76.5t5.5 52.5l5 6v16q0 35 4 96t4 91q0 55 -3 99.5t-3 68.5q0 21 1 55t1 35q-1 4 -5 34.5t-4 36.5v52q0 7 -1 64 t-1 63v124q-4 4 -4 13v51q0 21 -4 29v266q0 11 2 34t2 36q0 39 -4 55l4 12q3 0 20 4t19 4h27q12 -23 12 -71q0 -40 -6 -122t-6 -122v-51q0 -2 2 -24t2 -25v-62q0 -10 4 -18v-113q-4 -4 -4 -14v-6q0 -3 2 -24.5t2 -23.5v-81q0 -9 3.5 -53t4.5 -50q0 -1 -1 -41t-1 -63 q0 -18 3 -58.5t3 -62.5v-203q-2 -19 -10 -55.5t-10 -54.5v-17q-5 -39 -19.5 -81t-31.5 -62q5 0 -4 -4q-33 -17 -33 -25q4 0 -11 -12.5t-38.5 -25.5t-40.5 -13q-7 0 -21 3t-20 3q-5 0 -14.5 -2t-14.5 -2h-4q-14 0 -23.5 1t-30 5t-35 16.5t-29.5 32t-23.5 54t-8.5 79.5z" />
<glyph unicode="k" horiz-adv-x="995" d="M102 1529v13v53q0 2 2 8t9.5 12.5t17.5 6.5h12q22 0 27.5 -8.5t5.5 -32.5q0 -16 -4 -45t-4 -43q0 -49 8 -143q4 -55 7 -177.5t7 -187.5l3 -20q2 -12 2 -59q-1 -12 -1 -26v-7q0 -63 9 -80q11 9 28 43l41 51q9 18 52 82l36 53q0 1 5.5 9.5t13.5 19t14 16.5l39 59q4 0 4 11 l101 151q2 8 13 22.5t13 18.5q26 45 83.5 132t84.5 132l25 33q10 13 19 16t28 3h16q8 -11 8 -25q0 -11 -13.5 -24.5t-16.5 -20.5l-37 -59q-59 -68 -113 -162l-14 -25q-10 -10 -10 -12q0 -10 -17 -35t-41.5 -56t-32.5 -44q-7 -11 -18 -31.5t-21 -36.5t-20 -29v-10 q0 -1 2.5 -13t6.5 -27.5t7 -22.5q16 -61 44.5 -129.5t68.5 -153t60 -133.5q10 -24 27.5 -72t45.5 -114l21 -41q4 -4 6.5 -16.5t14 -47t32.5 -80.5l25 -47q2 -6 30.5 -58t28.5 -83q0 -13 -11.5 -23t-25.5 -10q-5 0 -14.5 5t-12.5 9v4q0 3 -3 9q-16 33 -44 100 q-90 211 -139 340l-31 68q-21 60 -73 166q-6 17 -36 80.5t-30 82.5l-18 33q0 -7 -2 1q0 2 -2 9q-16 85 -33 86q-10 0 -80 -112q-2 -4 -39 -60l-15 -24q-45 -76 -71 -113q6 -27 6 -53v-37q0 -6 4 -24t4 -29q0 -2 -2 -19.5t-2 -19.5v-49q0 -2 2 -30.5t2 -31.5v-254l4 -8v-16 q0 -15 2.5 -41t2.5 -41q0 -12 -10.5 -21.5t-22.5 -9.5q-20 0 -25.5 10t-5.5 29q0 40 -3 91t-3 54v27q0 2 1 21.5t1 21.5q0 4 -1 34t-1 34v98q0 2 1 17t1 16v14q0 3 -1 24t-1 23v21l-4 6v18q0 107 -23 295q-4 8 -4 21q0 71 -8.5 196.5t-9.5 181.5l-8 121q0 4 1 13.5t1 13.5z " />
<glyph unicode="l" horiz-adv-x="585" d="M102 1608l1 3q1 3 1 7l15 10q7 0 14 4t10 4q19 0 31 -12t12 -33l-8 -274q2 -8 2 -25q0 -8 -1 -24t-1 -25v-100q0 -7 -3 -69t-3 -68v-45q10 -132 10 -472q0 -19 -1 -54t-1 -52v-25q0 -8 1 -78.5t1 -78.5v-25l2 -8v-18q0 -1 2 -9.5t2 -9.5q0 -7 -1 -19t-1 -18q0 -10 7 -24 h28q31 0 95 6t96 6q1 0 16 1t20.5 -0.5t16 -5t14.5 -14t4 -26.5q-22 -15 -33.5 -19t-31.5 -4q-12 0 -36.5 1t-39.5 1q-13 0 -81.5 -8t-74.5 -8h-47q-7 0 -18.5 9t-11.5 20q0 1 4 8t4 8v14l2 21q0 4 -2 21t-2 18q4 50 4 147q-4 8 -4 29q0 8 1 25t1 24q0 4 -1 10.5t-1 10.5 q0 1 2 9t2 9v10q0 3 -1 10.5t-1 10.5q0 2 1 5t1 5q-6 27 -6 59q0 15 3 46t3 46v9q-4 50 -4 71q0 1 2 48t2 71q0 64 -6 113v12q0 8 -4 55t-5 54q7 42 7 137v12q0 7 1 21.5t1 21.5q0 23 -2 67.5t-2 65.5q0 3 1 32.5t1 33.5q0 5 -2.5 47.5t-2.5 46.5q0 3 1.5 28t1.5 27 q0 4 -3 30t-4 30z" />
<glyph unicode="m" horiz-adv-x="1077" d="M102 1544v8q0 15 24 27t32 8q18 0 27.5 -14.5t26 -56.5t36.5 -76l106 -211q33 -73 47 -109l43 -86q0 -22 39 -86q24 -76 47 -82l60 125l14 29q9 18 24 55.5l17 42.5l49 107q10 29 51 108l60 141q20 44 24 44l19 32q2 2 9 18t7 19l13 43q0 4 6 4h6q4 1 15 6t20 5 q12 0 15.5 -9t2 -21.5t2.5 -25.5v-270q-6 -60 -6 -201q0 -37 4 -113.5t4 -93.5v-59q0 -23 2 -68.5t2 -60.5v-133q0 -56 10.5 -184.5t10.5 -198.5q0 -6 -2 -18t-2 -17q0 -139 8 -139v-13q-13 -18 -33 -28q-12 0 -21.5 6t-9.5 16v238q-14 175 -14 248v10q-2 20 -2 22v52 q0 35 -4 51q4 8 4 35v51q0 25 -4 85t-4 85q0 9 1 25l1 16q0 7 0.5 50.5t0.5 70.5t-2.5 61.5t-8.5 50.5v19q0 20 3 57t3 57v150q0 33 -6 39q-3 -3 -10.5 -18l-8.5 -17l-47 -102q-1 -5 -6 -13t-6 -10q-12 -28 -44.5 -94.5t-47.5 -102.5q-2 -5 -17 -52t-26 -58l-19 -29l-24 -53 q-50 -108 -50 -139v-13l5 -6q-9 -11 -19.5 -15t-15.5 -9h-19l-6 6q-9 5 -11 6.5t-6.5 8.5t-4.5 16q-51 86 -129 270l-13 24q-95 211 -149 297q-15 40 -35 60q-2 -11 -2 -17q0 -3 1 -23l1 -20l4 -100q6 -48 6 -49v-12q1 -6 5 -64.5t5 -64.5q0 -2 -1 -37.5t-1 -57.5 q0 -29 3.5 -52t3.5 -34q0 -4 -2.5 -11.5t-2.5 -12.5l3 -6q4 -16 4 -56v-84q0 -24 6 -36q0 -1 -1 -13t-1 -18q-1 -20 3.5 -54t4.5 -49v-47q0 -18 3 -56t3 -93q0 -19 -1 -46.5t-1 -29.5q4 -4 6 -26t3.5 -52.5t2.5 -42.5q-1 0 1 -11t4.5 -26.5t2.5 -23.5v-31q0 -5 3.5 -26 t3.5 -27q0 -4 -23 -27l-8 -4q-6 0 -6 -4l-23 16l1 6q1 7 1 11q0 8 -4 24.5t-4 24.5v14q-1 1 -3 33t-4.5 71t-4.5 52v59q0 3 -2 28t-2 28v75q0 18 -1 36t-1 28q-19 256 -19 491v27l-18 274q0 21 -6.5 66t-6.5 68v43q0 53 -4 69zM166 1448q0 -4 2 -4q2 2 2 4l-2 4q-2 0 -2 -4z " />
<glyph unicode="n" d="M100 1584q0 8 2 18q2 12 7 19t14.5 12t23.5 5q19 0 30.5 -15t20.5 -48.5t11 -38.5l27 -70l16 -32l59 -148q23 -46 23 -65l22 -50q0 -20 35 -87.5t35 -79.5l12 -43q14 -36 46 -101.5t42 -87.5l31 -72q123 -252 150 -301q0 -8 10 -21t10 -20l23 -45q2 -6 8 -20t11 -25.5 t11 -23.5t11 -19t8 -6q0 46 -4 128.5t-4 90.5v37q0 24 3 85.5t3 70.5v51q0 23 3.5 93t6.5 89v19l2 22l-1 9q-1 9 -1 14q0 22 5 68t5 65v47q0 47 6 137.5t6 118.5q0 8 -2 12l19 211q0 5 -2 14.5t-2 14.5q7 22 39 22q34 0 34 -30q0 -3 -2 -9.5t-4.5 -14.5t-3.5 -11q0 -1 1 -8 t1 -9v-2l-2 -14q-14 -69 -14 -145q0 -6 1 -18.5t1 -18.5q0 -7 -3 -18t-3 -17l-2 -37q-2 -4 -2 -6q0 -4 1 -11l1 -7q-8 -82 -8 -127q0 -7 1 -22.5t1 -22.5q-15 -96 -15 -244q-12 -68 -12 -154q0 -5 1 -10l1 -6l2 -62q0 -2 -2 -17t-2 -17l10 -379q0 -5 1 -31t1 -31l4 -102 l-4 -6l-28 -17q-13 2 -29 13l-31 73q1 17 -8 38t-26 49.5t-23 41.5l-27 58q-50 101 -86 168q-6 16 -6 18l-20 41q7 0 -11.5 28t-42.5 71t-24 69q-9 21 -62 129.5t-75 179.5l-3 15q3 0 -4 9.5t-16.5 27.5t-9.5 34q-34 48 -56 127l-45 115q1 5 -6.5 14t-7.5 15l-24 61 q-3 9 -10.5 21t-10.5 12l14 -357q-2 -6 -2 -12v-12q-2 -6 -2 -55l2 -64q0 -116 -6 -158q0 -4 2 -62t2 -79v-84q1 -20 11 -124t10 -154l6 -201q6 -27 6 -43q0 -13 -11 -25t-24 -12q-5 0 -15.5 5t-10.5 9l-7 238q-8 8 -12 81t-4 128l4 6q0 6 -4 10l-6 250q0 10 -1 45.5 t-1.5 58.5t0.5 37q0 4 1 47.5t1 47.5l2 180q-3 43 -7 129t-7 129q-1 4 -5 27t-4 26v43q0 7 -1 20.5t-1 20.5v20z" />
<glyph unicode="o" horiz-adv-x="1257" d="M100 807q2 6 2 22q0 1 -1 8t-1 17v20q0 11 4.5 37t4.5 39q-3 6 -3 17q0 13 6.5 33t6.5 32q0 26 12.5 88t32.5 94l10 19q0 1 1 3t1 3q33 108 90 184l6 4l43 60q19 28 50 49l14 14q5 5 25.5 20.5t58 34.5t63.5 19q68 21 121 21q0 -3 8 -3h13q5 0 33 -3t34 -3l78 -24 q20 -13 43 -25.5t36 -22t28 -26.5l16 -18q8 -8 8 -15l8 -6q0 -6 4 -10l27 -43q2 -9 12 -25l11 -10q4 -4 4 -10l43 -72q4 -7 8 -29l14 -34l29 -107v-22q0 3 11 -37.5t15 -55.5q0 -10 11.5 -78.5t11.5 -93.5q0 -21 -9 -88t-9 -122v2q-1 0 -3 -9t-5.5 -22.5t-4.5 -18.5l-14 -55 q0 -38 -14 -92v-8q-12 -22 -15 -45l-20 -49q-8 -19 -10 -31q-5 -22 -19 -48t-32.5 -56t-24.5 -40l-64 -71l-10 -6q-37 -23 -47 -33l-16 -10q-2 -1 -11.5 -9t-20 -14t-18.5 -6q-6 0 -30.5 -11t-64 -22.5t-81.5 -11.5q-16 4 -30 4h-27q-1 0 -2 -1t-2 -1l-3 2q-2 3 -7 5.5 t-11 2.5h-4l-10 4h-10q-58 20 -112 55t-83 72l-28 35q-11 11 -17 21q-109 210 -143 417q-3 4 -3.5 14.5t-2.5 16.5l-13 129q2 4 2 8q0 1 -2 5.5t-2 21.5zM172 823q0 -4 1 -10l1 -6v-33q0 -59 8 -106q27 -173 76 -301q6 -6 6 -13l21 -41q0 -12 11.5 -33.5t23.5 -38.5t12 -18 l24 -28q1 -1 3 -3.5t3.5 -4t2.5 -1.5l26 -30q8 -4 55 -37l19 -15q64 -47 160 -47q63 0 105 18t104 62l8 4q6 5 22.5 25t30.5 35.5t18 15.5l9 14q87 138 112 301l6 39l19 72q-2 4 -2 6q0 7 5 29.5t5 28.5q0 1 -1 3.5t-1 4.5v8q0 2 -1 6.5t-1 5.5l1 9q2 10 4 24.5t4 31t3.5 33 t1.5 27.5q0 26 -6 81t-6 81l-10 22l-11 43q-19 74 -28 97l-15 51q-16 50 -16 59l-14 33q-1 0 -3.5 2.5t-2.5 3.5l-64 97q-12 12 -40 50t-56 52l-21 16l-10 4l-41 15q-2 0 -53 9t-72 9q-8 -4 -20 -4l-66 -22q-34 -10 -43 -17l-28 -24q-17 -17 -27 -23l-43 -39l-78 -100 l-10 -19q0 -1 -37 -75l-14 -35q-22 -54 -23 -70l-31 -113q-5 -18 -8.5 -48t-5.5 -42v-92q0 -4 -1 -13.5t-1 -14.5v-11z" />
<glyph unicode="p" horiz-adv-x="872" d="M102 1018v39q4 12 4 80q0 9 0.5 76t3.5 123.5t11 125.5v88q0 1 1 11.5t1 17.5q0 8 -1 19t-1 12q4 6 25 14t28 8h19q2 0 16.5 2t15.5 2h74q105 0 152 -10q11 0 33 -8t24 -8l57 -15q5 -3 20 -9t25 -12.5t33.5 -29t54.5 -59.5q11 -15 22.5 -47.5t14.5 -34.5l19 -47 q0 -15 8 -50t8 -53q0 -53 -22.5 -107.5t-57.5 -96.5q-7 -5 -24.5 -22.5t-20.5 -22.5q-60 -48 -168 -74h-16q-1 0 -8.5 -3t-8.5 -3q-55 -19 -122 -19h-109q-6 0 -21 1l-14 1q-8 0 -8 -12q0 -4 2 -24t2 -23v-279q4 -31 4 -92v-51q0 -69 6 -102v-205q0 -3 4.5 -35t4.5 -64 q0 -7 -17.5 -13.5t-25.5 -6.5q-7 0 -19 12q0 20 -10 90v68q0 1 2 7.5t2 8.5v101q0 21 -3 58t-3 42q0 14 1 38.5t1 25.5q-1 7 -4.5 51.5t-3.5 52.5v240q0 48 -5.5 118.5t-5.5 104.5zM164 977q0 -10 35.5 -13t36.5 -6h45q77 0 108 7l111 26q15 0 45 15t66 42.5t62.5 78.5 t26.5 112q0 46 -19 120.5t-36 86.5l-20 25t-24 27.5t-27.5 22.5t-46.5 26t-64 22h-8q-4 0 -17 4t-16 4h-16q-3 0 -34 2t-34 2h-76q-10 0 -30 -3t-27 -3h-8q-17 -103 -18 -268t-15 -265v-65z" />
<glyph unicode="q" horiz-adv-x="1284" d="M102 842q0 20 2 22q-2 2 -2 6q0 15 4 31q0 1 0.5 19t5 56t15.5 93l-1 5v8t1.5 13t4.5 19t9 25t15 32v11q16 15 36.5 74t22.5 63l12 22q15 27 37 60t29 33q0 1 10.5 17t26.5 34.5t26 23.5q14 15 43 37.5t43 36.5l35 19q70 24 90 28q7 -2 11 -2q18 4 26 8h92q9 0 17 -4h10 q46 0 76.5 -15t42.5 -15l53 -33q1 -1 9.5 -4.5t10.5 -3.5l9 -9q-4 0 3 -3q42 -18 42 -36l41 -34l22 -37q0 -7 15.5 -32.5t15.5 -37.5v-16q6 -12 6 -23l16 -33q0 -16 12.5 -48.5t12.5 -51.5l12 -35q10 -30 19.5 -89t13.5 -75q27 -135 27 -213q0 -40 -4.5 -77t-8.5 -57 t-13 -54t-11 -45q0 -4 -2 -28t-4.5 -42t-7 -42t-13 -43t-20.5 -31q-3 -3 -24 -55.5t-21 -57.5l-15 -27q-2 -6 -20.5 -24t-18.5 -41q0 -8 -26.5 -31.5t-26.5 -26.5q0 -6 8.5 -25t20 -44t16.5 -39q8 -22 27.5 -64t33 -75t13.5 -49q0 -25 -43 -25q-28 0 -33 22l-26 78l-43 107 q-1 0 -12 32.5t-23 32.5q-7 0 -11 -4l-32 -12q-13 -11 -54 -24t-69 -13h-23l-6 -4q-16 -2 -57 -2q-37 0 -105 33q-25 0 -100.5 48.5t-75.5 61.5l-24 23q-3 3 -17.5 30.5t-38.5 51.5q-46 67 -96.5 188t-50.5 195l-6 10l-13 74q-2 14 -2 43q0 31 2 47q-4 16 -4 39zM170 827 q3 -18 4 -46t1.5 -48.5t2.5 -25.5q9 -106 74 -283q26 -61 64.5 -122.5t89.5 -119.5t115.5 -94.5t129.5 -36.5q4 1 21 2t34 3t29 5q51 10 133 62q-1 0 -12.5 28.5t-24.5 60.5t-16 38q0 6 -7 30.5t-15 30.5l-76 203q-4 10 -19 57t-27.5 77t-23.5 42q0 27 33 27q26 0 44.5 -16 t18.5 -50q0 -11 82 -240t97 -229l2 2l18 31q8 14 27.5 39t27.5 41l13 20q1 6 5.5 15.5t7.5 22.5t3 34l10 14v10q6 34 45 156q15 53 15 111v53q6 46 6 90q0 218 -111 516q0 22 -24.5 70t-24.5 53q-4 0 -14 14.5t-25 29t-31 14.5l-16 8q-1 0 -18 8.5t-20.5 10.5t-20 9t-24 9.5 t-23 7.5t-26.5 6.5t-26 3.5t-30 2q-124 0 -185 -51l-69 -57q-29 -20 -71 -79t-60 -102q-8 0 -41 -78.5t-33 -99.5q-37 -148 -37 -256q0 -4 1 -10.5t1 -9.5q0 -5 -4 -13z" />
<glyph unicode="r" horiz-adv-x="964" d="M104 954q0 73 7 80q0 3 -1 9.5t-1 9.5q0 6 2 8q0 2 -1 18.5t-1 18.5q0 29 6 84t6 82v45q0 11 2 34.5t2 36.5q0 2 -1 22.5t-1 22.5q0 1 1 18t1 19q0 13 -4 61t-4 54q0 10 6 16q-2 5 -2 9q0 13 31.5 19.5t50.5 6.5h80q2 0 16 2t16 2h78q2 0 16.5 2t16.5 2q98 0 172.5 -30.5 t136.5 -110.5l23 -29q65 -104 65 -206v-33q0 -73 -8 -112t-31 -85l1 -1q-17 -29 -61 -73q-48 -47 -75 -47h-2q-4 -4 -27 -16t-32 -16l-43 -13v-12q0 -4 2 -18.5t8 -36.5t14 -35q0 -1 -1 -3t-1 -3q0 -9 22.5 -65.5t26.5 -57.5q11 -31 48 -133t54 -148.5t48 -123t59 -138.5 q2 -4 19 -27t18 -38q0 -19 -5.5 -24t-25.5 -5h-14q-11 0 -16.5 5t-9 13.5t-5.5 10.5l-6 6l-12 25q-51 105 -51 126q-10 26 -68.5 174.5t-87.5 233.5q-6 16 -21 47.5t-25.5 58t-10.5 43.5t-22 66t-33 49q-24 0 -56 -8q-12 0 -47.5 1t-56.5 1h-14h-24t-23 -0.5t-21 -2.5 t-17.5 -5t-11.5 -8.5t-4 -12.5q0 -1 1 -3t1 -3v-33q0 -132 4 -164v-12q3 -87 8 -230t9 -243.5t4 -105.5q-1 -7 -7.5 -10t-18.5 -4t-13 -1q-2 0 -6.5 -2t-5.5 -2q-8 0 -14 9t-8 19l-1 9q0 7 1 23t1 18q-4 15 -5.5 32.5t-1.5 29t0.5 34t0.5 33.5q0 6 1 15l1 8v24 q0 1 -2.5 22.5t-5 50t-2.5 48.5q0 4 1 34t1 34q-1 25 -11 243l2 15q1 15 1 26t-1.5 27t-1.5 18q0 1 1.5 12.5t1.5 12.5q0 26 -2.5 76.5t-2.5 74.5zM117 1126q0 -2 4 -2q2 0 2 2t-2 2zM172 911q0 -6 6 -5q4 0 8 3h2l13 -3h24q2 0 19.5 -2.5t19.5 -2.5h17q92 0 215 14h18 q23 3 62 26.5t49 23.5l39 28q11 8 20 19.5t20 28.5t17 26q2 0 8.5 13t13 32.5t7.5 34.5l6 123q-15 21 -15 71q-14 65 -61 128t-100 83q-2 0 -14 3t-13 4l-12 3q-37 8 -41 11h-109q-3 0 -27 -2t-26 -2h-29q-1 0 -28 -2.5t-52.5 -7.5t-25.5 -11q0 -5 1 -12l1 -6 q-1 -32 -10 -158v-45q-5 -84 -9 -133.5t-5.5 -58.5t-3 -17.5t-1.5 -20v-55.5v-8q0 -19 -2 -60t-2 -63z" />
<glyph unicode="s" horiz-adv-x="1019" d="M102 1214q0 94 37 164l25 49q29 62 74 95l8 4q6 3 15 12.5t15 11.5h11q9 3 16.5 8t16.5 13t14 12h10q12 4 31 12t32.5 15t14.5 8q4 -2 6 -2q15 0 50 10t54 10q35 0 76.5 -12.5t63.5 -32.5q3 0 14.5 -6.5t29.5 -23.5t29 -39l39 -56q1 -1 5.5 -13t5.5 -13q0 -2 15 -41 t15 -78v-127l-6 -14q-3 -8 -20 -12t-21 -7q-8 0 -17 11t-9 20q0 13 2 40t2 42q0 117 -41 182l-4 10q0 2 -5.5 8.5t-5.5 8.5l-26 26q-22 33 -63 55.5t-83 22.5q-57 0 -120 -26l-27 -19q-76 -37 -98 -55q-33 -27 -56 -72l-16 -29q-37 -61 -41 -165v-29q11 -42 33.5 -76.5 t56.5 -62t65 -46.5t78 -42l48 -27q9 -4 45.5 -22.5t40.5 -22.5q17 -7 46 -28t52 -37.5t31 -16.5q86 -66 169 -185.5t83 -219.5q0 -45 -5 -74.5t-16 -62t-14 -44.5q-2 -2 -30.5 -43t-31.5 -41l-45 -45l-18 -10l-8 -12q-4 -4 -39.5 -20t-44.5 -25q-13 0 -31 -8.5t-41 -8.5 l-8 -4q-62 -10 -74 -10q-9 0 -27 3t-28 3q-160 36 -221.5 125.5t-61.5 235.5v14l4 8q0 47 23 94l10 19l-1 5q-1 5 -1 9q0 7 7 14t15 7l9 4q1 0 6.5 1t7.5 1q12 0 21.5 -10t9.5 -23l-9 -10q-36 -83 -36 -164q0 -128 81.5 -203.5t213.5 -75.5h20q3 2 21.5 6.5t21.5 4.5h4 q5 -1 10 -0.5t12.5 1t15.5 3t17.5 7t20 12t20.5 17.5l11 3q3 7 29 24.5t46 48.5l15 21q3 6 11.5 21.5t11.5 22t9 20.5t8.5 23t4.5 22t2 26q0 89 -18.5 141.5t-69.5 134.5q-42 67 -101 120t-103.5 79t-119.5 65t-110 60l-23 12q-7 7 -19.5 14t-17.5 11l-71 53q-1 5 -8 12.5 t-7 8.5l-28 30q-48 70 -48 135z" />
<glyph unicode="t" horiz-adv-x="829" d="M104 1614q0 24 52 24q7 0 22 -5t23 -5q1 0 3.5 1t4.5 1q39 -10 96 -10q23 0 68 4t67 4q40 0 115 -7t115 -7h26q4 -3 13 -8.5t13 -9t5 -7.5v-24q0 -9 -9.5 -15t-21.5 -6q-2 0 -39 5t-55 5h-35l-37 9q-27 2 -73 2q-9 0 -13 -2v-35q0 -20 -4 -66q-4 -38 -4 -62v-9 q0 -74 8.5 -214.5t10.5 -193.5q1 -37 7.5 -136t6.5 -169v-217q0 -33 3 -98.5t3 -98.5v-244q-11 -20 -43 -20q-6 0 -22 20l-2 310v258l-9 59v146q0 68 -7 149t-7 145q0 58 2 68q-6 6 -6 14q0 3 1 8t1 7l-8 102q-2 8 -3 25.5t-3 25.5v222q0 4 -15 4l-6 -4q-1 0 -12 2t-12 2 h-50q-1 0 -18.5 1t-19.5 1h-54l-8 4h-18q-52 10 -52 45z" />
<glyph unicode="u" horiz-adv-x="940" d="M102 989v160q0 21 4.5 63t4.5 62q0 14 -5 29v210q0 3 2.5 28t2.5 28v22q0 17 1.5 25t9.5 15t25 7q27 0 41 -20v-19q0 -27 -5 -78.5t-5 -86.5q0 -23 1 -63.5t1 -41.5q0 -45 -6 -137t-6 -137q0 -22 2 -47t5.5 -56t4.5 -47v-24q0 -14 2 -64t2 -53l23 -199v-6q0 -7 2 -20 t2 -19v-6q27 -172 27 -176q0 -19 10 -49t10 -47q71 -181 160 -181h55l5 1q69 9 89 24l39 35q18 22 37 60t19 48q6 28 26.5 98t26.5 103q0 32 4 54t4 42v88l12 105q9 22 10.5 66t4.5 59l-1 9q-1 9 -1 15q0 2 2 17t2 24v49l6 37v15q4 8 4 32q0 14 -2 40t-2 40v41q0 2 2 25.5 t2 25.5v25l4 10v31q0 2 2 15t2 14t-2 11.5t-2 12.5l-4 111q0 64 -4 80v55q-4 8 -4 23v10l22 18q5 0 11.5 2t11.5 2q9 0 21.5 -10.5t15.5 -19.5q0 -4 -5 -9v-202q5 -17 5 -47q0 -32 -6.5 -97t-6.5 -102q0 -3 2 -22t2 -21v-31q0 -21 -5 -60.5t-5 -58.5v-53q0 -74 -10 -143 q0 -1 -1 -10.5t-1 -10.5v-18q-2 -12 -7 -36t-7.5 -43t-2.5 -36q0 -1 2.5 -7t2.5 -7v-12q0 -79 -9 -123q-1 0 -6 -27.5t-12 -61.5t-12 -47q-4 -20 -20 -57.5t-19 -56.5v-6q-8 -27 -23.5 -55.5t-45.5 -63.5t-83 -57.5t-119 -22.5q-88 0 -127 39l-12 6q-42 0 -94 131 q-1 4 -8.5 21.5t-10 25.5t-8.5 25.5t-8.5 29.5t-5 28.5t-2.5 31.5v12q-27 158 -27 164l-12 121q0 14 -2 16l-14 195q-1 17 -2 46t-3 52.5t-6 44.5zM745 764q0 -4 5 -4q2 2 2 4l-2 4q-5 0 -5 -4z" />
<glyph unicode="v" horiz-adv-x="899" d="M102 1606q0 13 16 19.5t32 6.5q30 0 30 -14l17 -62q2 -5 7.5 -17.5t6.5 -18.5v-11q39 -123 39 -184v-4q6 -36 25 -103t26 -100l16 -114l2 -11q42 -230 46 -260q3 -27 18.5 -99.5t15.5 -103.5q9 -9 13 -61t16 -72l14 -98q3 -5 7 -27t12 -28q4 4 9.5 37t11 76t7.5 53 q7 49 25 120l10 39q0 22 5 49.5t10 44t6 17.5v16q10 20 33 187q2 18 11.5 50t12.5 46l21 106q0 40 4 48q1 -3 3 3q13 34 13 68l21 84q8 44 19.5 126t14.5 104q11 16 13 48.5t9.5 52t33.5 19.5t34.5 -5.5t8.5 -28.5q0 -7 -5 -20.5t-6 -18.5q-10 -35 -19 -80t-19 -102.5 t-17 -92.5v-6q0 -34 -16.5 -87t-18.5 -73q0 -30 -15 -84.5t-15 -91.5q-15 -30 -15 -35v-24q-3 -29 -22 -97t-19 -102l-6 -10q0 -11 -2 -28.5t-4 -30.5l-2 -13q0 -4 1 -9l1 -5q-3 -20 -17 -61t-16 -64q-2 -15 -3 -44t-3 -44q-3 -22 -13 -59t-16 -77t-6 -91v-13q0 -10 -4 -14 l-12 -107q-6 -1 -11 -6t-8 -6l-14 -8q-8 -6 -10 -6q-29 13 -35 22q-4 41 -12 89t-16 82.5t-21 89.5t-19 83q0 11 -2 13q-51 229 -94 530v8q0 12 -12 54q-13 77 -88 444q0 18 -32 102.5t-32 94.5z" />
<glyph unicode="w" horiz-adv-x="1560" d="M102 1568v17q1 7 17 14t24 7q7 0 13 -1.5t10.5 -5.5t8 -8t6.5 -12t5 -13t4.5 -16.5t3.5 -18t3.5 -21t3.5 -21.5l16 -88q0 12 4 -4q3 -14 15 -77q19 -103 26 -130q1 -4 16 -62t15 -73l12 -97q4 -4 7 -20.5t6.5 -39.5t7.5 -36l14 -71q0 -8 3 -19t3 -14v-17q9 -10 14.5 -28 t10 -46t6.5 -36l24 -109q0 -2 4.5 -15.5t4.5 -14.5q11 -32 22.5 -81t25 -121t17.5 -91q0 35 68 168q7 15 18.5 58.5t16.5 57.5q0 8 11 27.5t11 40.5l14 24l21 64q3 11 17.5 51.5t24.5 73t11 47.5v12q1 0 9.5 6.5t21 13.5t22.5 7q17 0 48 -63t47 -117l12 -39q5 -16 28.5 -90 t24.5 -74q0 -1 1 -8t1 -8l27 -80q4 -13 19 -38t20 -38q0 -28 17 -63q9 -20 22 -33l28 -58q6 9 7.5 44t9.5 51q9 62 21.5 120t29.5 126t26 112l11 43q8 17 22 70t24.5 97t10.5 46v14l10 41l9 6q8 93 47 222q0 4 12 30t12 35v12q6 70 70 263q15 50 22 129v12q5 24 43 24 q1 -1 17 -3t16 -17v-7q0 -24 -6 -53q-7 -33 -21.5 -79.5t-19.5 -67.5l-20 -82q0 -25 -41 -151q0 -12 -10.5 -45t-20.5 -43q-3 -7 -4 -15t-1 -17t-1 -14q-8 -32 -22.5 -95t-22.5 -95q-7 -4 -30.5 -111.5t-31.5 -115.5l-12 -41q-14 -46 -25.5 -116.5t-17.5 -98.5q-1 -2 -8 -21 t-9 -27t-5 -24.5t-3 -32.5l-4 -47q0 -6 -4 -10q-1 -5 -3.5 -32t-7 -55t-12.5 -58t-24 -49t-37 -19q-22 0 -32.5 29t-10.5 59q-4 0 -14.5 22t-18.5 44l-8 22q-68 130 -106 244q-7 23 -27 94q-4 13 -19.5 52.5t-21.5 68.5q-5 5 -6 9.5t-8.5 26t-24.5 56.5q-4 0 -8 -8.5 t-4 -12.5l-21 -75q0 -5 -5 -13t-5 -16l-51 -127q-4 -14 -8 -33.5t-7.5 -33t-7.5 -25.5q-6 -14 -20 -43.5t-23 -52t-14 -43.5l-20 -93q-12 -25 -21.5 -68.5t-21.5 -63t-43 -19.5q-10 0 -19 11.5t-12 23.5v22q-1 26 -5.5 51.5t-14 66.5t-11.5 52v6q-1 31 -10 74.5t-22.5 94.5 t-18.5 73l-33 143q-4 16 -12.5 59t-15.5 66l-2 6q-2 4 -5 17t-6.5 28t-3.5 17l-53 303q-3 6 -6 19.5t-4 17.5q-17 53 -36.5 158.5t-31.5 148.5v8q-21 86 -30 100q-1 2 -1 6z" />
<glyph unicode="x" horiz-adv-x="921" d="M102 1587q0 18 17.5 27.5t36.5 9.5q4 0 7 -1t6 -4l5.5 -5.5t4.5 -7t3.5 -8t4 -9.5t3 -9t2.5 -10t3 -9q15 -54 59 -156t59 -148q11 -11 11 -24l63 -186q7 -38 38.5 -114t39.5 -79l2 5q32 67 33 97q4 4 14 27t6 29q23 92 62 198q0 13 6 19q9 28 23 79.5t24 71.5 q69 258 102 258q5 -2 17.5 -4.5t17 -5t9.5 -9t5 -17.5t-8 -31l-63 -170q3 4 1 -2q-1 -4 -8 -20q-28 -66 -34 -97l-2 4q-4 0 -4 -4q2 -2 4 -2v-16q-14 -8 -24.5 -69t-31.5 -71q0 -7 -4 -25.5t-4 -25.5q-8 -17 -11.5 -29.5t-10.5 -39t-19 -62.5q-1 -2 -4 -9.5t-9 -24 t-13 -40.5l-15 -28q-3 -21 -26 -76l65 -131q-1 -2 2 -9.5t6.5 -16.5t4.5 -11q-1 -16 32 -70.5t37 -89.5l15 -24q19 -31 47 -103t47 -106q0 -36 26 -62l19 -63q16 -22 16 -43q0 -18 -45 -29q-13 0 -36 54.5t-50 128t-39 96.5l-26 53q0 11 -25.5 68t-28.5 57q-17 12 -25 48 t-12 42l-16 27q-2 2 -2 10l-35 69q-7 7 -12 17q-10 -5 -15.5 -32.5t-15.5 -37.5l-8 -8q-4 -5 -19 -59.5t-34 -73.5v-10l-7 -25l-1 -8v-6q-5 -6 -5 -8l-22 -56q0 -9 -14 -46t-25 -56q0 -16 -10.5 -46t-24.5 -44q-5 -9 -17.5 -54t-29.5 -76.5t-41 -31.5q-13 0 -25 7t-12 18v6 t1.5 7t2.5 7.5t3.5 10t5 12l7.5 16.5t10 20.5t13 26.5t15 33q4 8 13 24.5t14 27t9.5 24t4.5 24.5q14 69 73 203q0 17 19.5 54t19.5 54l21 39q0 1 3 4.5t3 4.5q3 22 26 68.5t23 74.5q0 6 -2 12q-53 108 -111 287l-10 22q-4 13 -6.5 32t-9 39t-23.5 54l-10 16q-10 15 -10 31 q-10 25 -46 104t-51 120q-2 3 -19 50t-26 56zM672 1280l2 2q-2 0 -2 -2z" />
<glyph unicode="y" horiz-adv-x="1060" d="M108 1611q6 3 16 5l9 2q1 0 3.5 1t4.5 1q20 0 29.5 -9.5t16.5 -36.5t8 -30l26 -65q14 -39 27 -66l43 -78q13 -44 20 -51l84 -182q8 -19 29 -61t33 -70.5t12 -38.5h2q2 0 4 -2l33 -62q11 -23 37 -90l3 -8q4 -8 10 -23t13 -32t16.5 -37t18.5 -35q1 3 12.5 26t21 47t9.5 36 l1 3q21 37 22 62q1 0 2.5 12t5.5 28t12 24v8q0 52 33 119q4 4 24.5 79.5t20.5 92.5q6 18 19 84t32 102l25 96q1 1 4.5 9t3.5 10q0 8 4.5 41t19 72.5t33.5 39.5q17 0 31 -8t14 -18v-21q-1 -2 -5 -17t-5 -16l-22 -75q-17 -40 -37.5 -122t-36.5 -128l-23 -86q-9 -41 -71 -260 q-3 -12 -10.5 -41.5t-12.5 -47t-12 -39.5t-13.5 -36t-13.5 -21l-18 -55q-16 -48 -60.5 -165.5t-58.5 -164.5l-22 -69q-14 -27 -56 -131q-13 -20 -20.5 -52.5t-18.5 -48.5t-41 -16q-26 0 -26 29v17t1.5 7t4 3.5t8 9.5t12.5 22t19 44t26 73q9 6 18.5 41.5t16.5 42.5l19 57 q0 14 16 48.5t16 43.5l15 41q6 6 16 35.5t10 38.5q0 16 -63 145q-14 28 -39 97.5t-47 101.5l-23 45q0 3 -8 14t-8 21q-16 42 -60.5 130.5t-64.5 137.5l-10 25q-5 12 -21 44t-22 48l-45 92q-20 37 -40 88q-18 48 -18 64q0 6 6 9z" />
<glyph unicode="z" horiz-adv-x="876" d="M104 41v4q0 6 12 33.5t15 42.5q-3 0 18 52.5t48 123t34 102.5q0 2 6.5 16.5t6.5 35.5q23 44 44 120.5t21 102.5l15 47q3 11 16 31.5t16 33.5l-2 7q0 8 10 32.5t11 36.5q1 1 7 26t16 57.5t22 49.5q2 -2 4 -2q8 0 8 11l-2 6q4 4 4 8v2q0 25 6 31l23 61q0 27 8 51 q7 7 68 162q7 7 7 17.5t7 32.5t29 52l6 11l-2 10q2 23 19.5 58.5t17.5 45.5v4q-21 0 -62 -4t-61 -4q-16 0 -45 2t-45 2q-40 0 -116.5 -10t-115.5 -10h-16q-3 4 -15 13.5t-14 15.5q0 3 -5 18t-5 16q9 9 12 9h12q4 0 21 2.5t18 3.5h11q4 0 36.5 2t36.5 2l26 -1q26 -1 42 -1 q21 0 35.5 3t21.5 3q11 0 19 -4l121 2q27 8 65 8h37q7 1 15 7.5t14 6.5q27 -5 46.5 -20t22.5 -41q-47 -88 -53 -94q-12 -23 -15 -33t-3.5 -18t-21 -59.5t-62.5 -143.5q-3 -7 -15.5 -32.5t-20 -43t-7.5 -23.5q0 -21 -7 -47t-15 -44t-15 -34l-8 -16v-10q0 -5 -5.5 -13t-7.5 -8 q0 -3 -33.5 -93.5t-33.5 -127.5l-13 -24q-7 -7 -11.5 -20.5t-8.5 -34.5t-6 -29q0 -43 -45.5 -168t-48.5 -146l-39 -108q-1 -1 -12 -26.5t-22 -56.5t-11 -42l2 -8q41 -8 110 -8h23q1 0 10 2t10 2l213 6q1 0 29 -1t45 -1q21 0 42 2t38 2q24 0 37.5 -16t17.5 -35v-2 q0 -4 -8.5 -11.5t-13.5 -9.5q-2 0 -17.5 1t-17.5 1h-133q-164 0 -222 -8h-167q-4 -4 -13 -4h-18q-6 6 -31 17.5t-27 29.5z" />
<glyph unicode="|" horiz-adv-x="303" d="M100 1568.5q1 13.5 4.5 31.5t13.5 27t27 9q10 0 22.5 -7t12.5 -15l-6 -203q12 -96 12 -207q0 -28 -1 -86t-1 -86v-233l4 -162q-4 -4 -4 -25q6 -17 6 -73v-66q3 -68 3 -133v-70q0 -20 -1.5 -61.5t-1.5 -42.5q0 -18 5.5 -55.5t5.5 -57.5q0 -22 -8 -33t-20 -15t-13 -5h-19 q-1 4 -5.5 9.5t-4.5 8.5q0 2 2 10t2 13q-1 12 -4.5 47t-3.5 55v27q0 12 3 36t3 36q0 21 -2 64.5t-2 66.5q0 4 1 35.5t1 35.5q0 78 -5.5 227.5t-6.5 211.5q0 3 2 48.5t2 61.5v226q0 59 -10.5 162t-10.5 118q0 7 -1.5 31.5t-0.5 38z" />
<glyph unicode="&#xad;" horiz-adv-x="1173" d="M102 836q0 6 8 19t15 13l9 -4q8 -4 13 -4q95 -14 299 -14q34 0 99 2t98 2q13 0 40 -1t42 -1q61 0 162 3t110 3q21 0 30.5 -1t21.5 -8t22 -22q-2 -2 -2 -12q0 -37 -27 -37q-3 3 -13 4t-27 1.5t-27 2.5q-7 0 -18 -2t-15 -2q-18 0 -51 2t-49 2q-52 0 -157.5 -4t-156.5 -4 q-14 0 -38.5 1t-38.5 1h-27q-10 0 -37 -1t-29 -1q-19 0 -59 2t-61 2q-2 -2 -37 -2h-35q-64 0 -64 60z" />
<glyph unicode="&#xc0;" horiz-adv-x="784" d="M104 25q2 16 8.5 49t8.5 49l20 141q0 17 4 21l35 286q3 13 4 36t4 36l41 303q10 39 17 101q0 34 5 75.5t15 98.5t13 82l18 141v10l2 16q2 15 5 38.5t6.5 47t6.5 40t5 16.5q12 24 28 24q20 -6 74.5 -248t60.5 -296q36 -162 66 -314t43.5 -229.5t13.5 -85.5l25 -141 q23 -142 49 -271v-41q-25 -18 -41 -18h-10q-17 6 -17 14v68q0 10 -45 241l-8 39q-5 24 -11 60t-9 58t-4 22q-85 4 -123 12h-181l-53 -371q1 -64 -26 -127h-11q-9 0 -24 5t-15 12zM213 1876q0 20 15.5 32.5t31.5 12.5q17 -17 36.5 -32t45.5 -29t42.5 -22.5t49.5 -24t45 -21.5 l35 -14l10 -9q13 0 24.5 -8t17 -15.5t5.5 -10.5q0 -18 -13 -31.5t-28 -13.5q-4 0 -8 2q-32 24 -99.5 57.5t-105.5 58.5q-37 17 -81 52h-9q-14 6 -14 16zM242 565q25 -10 73 -10q9 0 26.5 1t25.5 1q86 -4 131 -8h8q16 2 18 4v25q-1 -1 -6 19.5t-9.5 51.5t-4.5 51l-27 148 q-15 76 -20 90l-58 250q-4 28 -19 110t-22 105l-4 -10q0 -36 -6 -66l-14 -74l-17 -137q-12 -57 -12 -65q-33 -204 -43 -301q-1 -7 -10.5 -74t-9.5 -103v-8zM358 1413q0 -4 2 -4v8q-2 0 -2 -4z" />
<glyph unicode="&#xc1;" horiz-adv-x="784" d="M104 25q2 16 8.5 49t8.5 49l20 141q0 17 4 21l35 286q3 13 4 36t4 36l41 303q10 39 17 101q0 34 5 75.5t15 98.5t13 82l18 141v10l2 16q2 15 5 38.5t6.5 47t6.5 40t5 16.5q12 24 28 24q20 -6 74.5 -248t60.5 -296q36 -162 66 -314t43.5 -229.5t13.5 -85.5l25 -141 q23 -142 49 -271v-41q-25 -18 -41 -18h-10q-17 6 -17 14v68q0 10 -45 241l-8 39q-5 24 -11 60t-9 58t-4 22q-85 4 -123 12h-181l-53 -371q1 -64 -26 -127h-11q-9 0 -24 5t-15 12zM213 1735q0 3 5.5 10.5t17 15.5t24.5 8l10 9l35 14q13 7 53.5 26.5t63 31.5t53 32t49.5 39 q16 0 31.5 -12.5t15.5 -32.5q0 -10 -14 -16h-8q-39 -31 -82 -52q-1 -1 -34.5 -19t-37.5 -22q-14 -7 -47 -27t-60 -35t-36 -15q-14 0 -26.5 13.5t-12.5 31.5zM242 565q25 -10 73 -10q9 0 26.5 1t25.5 1q86 -4 131 -8h8q16 2 18 4v25q-1 -1 -6 19.5t-9.5 51.5t-4.5 51l-27 148 q-15 76 -20 90l-58 250q-4 28 -19 110t-22 105l-4 -10q0 -36 -6 -66l-14 -74l-17 -137q-12 -57 -12 -65q-33 -204 -43 -301q-1 -7 -10.5 -74t-9.5 -103v-8zM358 1413q0 -4 2 -4v8q-2 0 -2 -4z" />
<glyph unicode="&#xc2;" horiz-adv-x="784" d="M92 1726q0 10 23 28t26 24l62 53q22 19 70.5 76t48.5 69v11q1 5 22 10.5t31 5.5h10l6 -6q3 -1 8 -3.5t7.5 -3.5t4.5 -3.5t3 -6.5l41 -36q11 -3 20 -15t29.5 -40.5t50.5 -57.5q16 -8 76.5 -61t60.5 -74q0 -10 -18.5 -20.5t-24.5 -10.5q-22 2 -121 109l-75 81q-10 5 -29 28 t-47 42q-5 -5 -16.5 -21t-20.5 -22l-96 -108q-10 -21 -47.5 -56t-53.5 -35q-18 0 -34.5 13t-16.5 30zM104 25q2 16 8.5 49t8.5 49l20 141q0 17 4 21l35 286q3 13 4 36t4 36l41 303q10 39 17 101q0 34 5 75.5t15 98.5t13 82l18 141v10l2 16q2 15 5 38.5t6.5 47t6.5 40t5 16.5 q12 24 28 24q20 -6 74.5 -248t60.5 -296q36 -162 66 -314t43.5 -229.5t13.5 -85.5l25 -141q23 -142 49 -271v-41q-25 -18 -41 -18h-10q-17 6 -17 14v68q0 10 -45 241l-8 39q-5 24 -11 60t-9 58t-4 22q-85 4 -123 12h-181l-53 -371q1 -64 -26 -127h-11q-9 0 -24 5t-15 12z M242 565q25 -10 73 -10q9 0 26.5 1t25.5 1q86 -4 131 -8h8q16 2 18 4v25q-1 -1 -6 19.5t-9.5 51.5t-4.5 51l-27 148q-15 76 -20 90l-58 250q-4 28 -19 110t-22 105l-4 -10q0 -36 -6 -66l-14 -74l-17 -137q-12 -57 -12 -65q-33 -204 -43 -301q-1 -7 -10.5 -74t-9.5 -103v-8z M358 1413q0 -4 2 -4v8q-2 0 -2 -4z" />
<glyph unicode="&#xc3;" horiz-adv-x="784" d="M43 1710q0 4 4 8q-2 4 -2 37q0 19 1 27.5t4.5 22.5l6.5 26q13 34 21.5 48t20 21.5t14.5 10.5q9 3 21.5 7.5t19.5 6.5t18.5 4t24.5 2q14 0 38.5 -7t30.5 -13l29 -25q23 -17 49 -46t43.5 -49.5t47 -36t65.5 -15.5q30 0 62 47.5t32 89.5v14q0 13 3.5 19t15 11.5t16.5 8.5 q41 0 41 -37v-10q-1 -3 -6 -23.5t-5 -23.5v-8l-8 -15q-1 -15 -7 -28.5t-16.5 -29t-15.5 -25.5l-8 -11l-22 -14q-4 0 -30.5 -14.5t-41.5 -14.5q-51 0 -111.5 31t-89.5 72q-3 4 -19.5 27.5t-25 33t-26 20.5t-35.5 11q-80 0 -90 -150v-22q0 -11 -7 -22t-18 -11q-16 0 -30.5 14 t-14.5 31zM104 25q2 16 8.5 49t8.5 49l20 141q0 17 4 21l35 286q3 13 4 36t4 36l41 303q10 39 17 101q0 34 5 75.5t15 98.5t13 82l18 141v10l2 16q2 15 5 38.5t6.5 47t6.5 40t5 16.5q12 24 28 24q20 -6 74.5 -248t60.5 -296q36 -162 66 -314t43.5 -229.5t13.5 -85.5l25 -141 q23 -142 49 -271v-41q-25 -18 -41 -18h-10q-17 6 -17 14v68q0 10 -45 241l-8 39q-5 24 -11 60t-9 58t-4 22q-85 4 -123 12h-181l-53 -371q1 -64 -26 -127h-11q-9 0 -24 5t-15 12zM242 565q25 -10 73 -10q9 0 26.5 1t25.5 1q86 -4 131 -8h8q16 2 18 4v25q-1 -1 -6 19.5 t-9.5 51.5t-4.5 51l-27 148q-15 76 -20 90l-58 250q-4 28 -19 110t-22 105l-4 -10q0 -36 -6 -66l-14 -74l-17 -137q-12 -57 -12 -65q-33 -204 -43 -301q-1 -7 -10.5 -74t-9.5 -103v-8zM358 1413q0 -4 2 -4v8q-2 0 -2 -4z" />
<glyph unicode="&#xc4;" horiz-adv-x="784" d="M104 25q2 16 8.5 49t8.5 49l20 141q0 17 4 21l35 286q3 13 4 36t4 36l41 303q10 39 17 101q0 34 5 75.5t15 98.5t13 82l18 141v10l2 16q2 15 5 38.5t6.5 47t6.5 40t5 16.5q12 24 28 24q20 -6 74.5 -248t60.5 -296q36 -162 66 -314t43.5 -229.5t13.5 -85.5l25 -141 q23 -142 49 -271v-41q-25 -18 -41 -18h-10q-17 6 -17 14v68q0 10 -45 241l-8 39q-5 24 -11 60t-9 58t-4 22q-85 4 -123 12h-181l-53 -371q1 -64 -26 -127h-11q-9 0 -24 5t-15 12zM225 1751q0 25 16 42t46 17h10q40 -5 43 -26l8 -43q4 -12 4 -17q0 -16 -13.5 -28.5 t-33.5 -12.5q-6 -2 -18 -2q-28 0 -45 21.5t-17 48.5zM242 565q25 -10 73 -10q9 0 26.5 1t25.5 1q86 -4 131 -8h8q16 2 18 4v25q-1 -1 -6 19.5t-9.5 51.5t-4.5 51l-27 148q-15 76 -20 90l-58 250q-4 28 -19 110t-22 105l-4 -10q0 -36 -6 -66l-14 -74l-17 -137 q-12 -57 -12 -65q-33 -204 -43 -301q-1 -7 -10.5 -74t-9.5 -103v-8zM358 1413q0 -4 2 -4v8q-2 0 -2 -4zM455 1751q0 25 15.5 42t45.5 17h10q40 -5 43 -26l9 -43q4 -12 4 -17q0 -16 -13.5 -28.5t-33.5 -12.5q-6 -2 -19 -2q-28 0 -44.5 21.5t-16.5 48.5z" />
<glyph unicode="&#xc5;" horiz-adv-x="784" d="M104 29l35 237q0 2 2 11t2 10l35 284q3 14 4.5 38t3.5 34l41 303q7 26 13 76t8 63l47 357v10q0 22 7 64.5t11 78.5q-68 13 -120 77.5t-52 131.5q0 87 25 121q0 6 12 14t12 15q85 114 213 114q30 0 54 -9.5t38 -22.5t26 -35.5t17.5 -39t13 -42t11.5 -37.5l4 -6v-25 q-1 -9 -2 -29.5t-2.5 -35.5t-5.5 -19q-3 -8 -13.5 -35t-15.5 -38t-18 -32t-25.5 -31.5t-34 -21.5t-47.5 -16q12 -32 18 -69t10.5 -84t8.5 -72q3 -19 14 -83.5t20 -121.5t11 -71q75 -325 110 -512.5t51 -307t36 -219.5v-41q-18 -14 -24 -17t-19 -3h-10q-5 2 -12 7.5t-7 8.5 v68q0 27 -32.5 180t-36.5 186q0 26 -10.5 38t-23.5 14t-43 4t-52 6l-181 -2l-49 -365q-8 -16 -9 -62t-17 -67h-13q-10 0 -24.5 5.5t-14.5 15.5zM219 1804q0 -55 53 -118l21 -17q3 -3 15.5 -8t24 -8t11.5 -4q41 0 71 26t42 62q0 17 12 47t12 47q0 26 -3.5 54.5t-11.5 58 t-23 48.5t-35 19h-13l-57 -24l-12 -7q-107 -79 -107 -176zM244 565q24 -8 57 -8q12 0 34 1t32 1q82 -4 129 -8h8q14 2 16 4v25q0 1 -2 10t-2 10l-10 64q0 2 -4.5 32.5t-13 76.5t-15.5 75q-1 24 -14 65t-15 50q-15 61 -27 123.5t-29.5 162.5t-27.5 152l-4 -10q0 -36 -6 -66 l-14 -74l-17 -135q0 -3 -6 -32.5t-6 -32.5q-26 -159 -43 -301q-1 -8 -10.5 -75t-9.5 -102v-8z" />
<glyph unicode="&#xc6;" horiz-adv-x="1273" d="M104 59q0 3 4.5 15t6.5 14l26 105q2 9 9 31.5t8 37.5l30 141q0 5 11.5 39t11.5 35q-1 19 10 51.5t12 40.5l15 70q0 2 1 17.5t1 17.5l4 6q12 32 26.5 96.5t14.5 102.5l18 63q4 8 4 47q0 34 23.5 103t28.5 94q1 3 4 25t4 24l14 49q8 8 29 168q1 1 7.5 30.5t12.5 65t6 49.5 v17q1 1 3.5 2.5l5 3t2.5 2.5h12q1 0 5.5 5t4.5 7q1 0 8.5 -1t10.5 -1q6 0 10 3t10 3q19 -12 61 -18t70 -6h45q27 0 78 -5t74 -5t70 7t83 7q20 0 32.5 -22t12.5 -44q0 -7 -10.5 -13.5t-17.5 -6.5h-369l-14 8h-49q-4 0 -4 -6q0 -62 15 -180t17 -164v-8q3 -24 6.5 -86t10.5 -97 q1 -28 1 -101t2.5 -119t10.5 -54h21q31 0 83.5 3.5l67.5 4.5l127 4l96 8l23 5q18 0 31.5 -19t13.5 -41t-33 -22q-6 0 -15 3t-14 3q-22 0 -60 -4.5t-54 -5.5h-21q-12 0 -37.5 -2.5t-40.5 -2.5q-33 0 -110.5 -8.5t-77.5 -13.5v-4l14 -238v-49q0 -1 2.5 -18t2.5 -19v-4 q0 -4 -0.5 -10.5t-1 -15.5t-0.5 -19t0.5 -22t1 -23.5t1.5 -23t2.5 -22t4.5 -20t6 -16.5v-20q0 -21 8 -25h178q130 7 232 23q4 0 12 3t16 3q23 -6 31.5 -16t17.5 -40q0 -12 -8 -21t-18 -9q-21 0 -33 6l-115 -12q-11 -1 -57.5 -6.5t-71.5 -6.5h-32q-2 0 -17.5 -2t-17.5 -2 q-4 -1 -30 -2t-49 -3.5t-28 -6.5h-45q-4 4 -19 14.5t-22 18.5q0 76 -6 151l-8 84v66l-1 18q-1 17 -1 23q-1 9 -5 80.5t-9.5 127.5t-10.5 56h-16q-25 0 -78 -8.5t-78 -8.5h-33h-11h-11t-9 -0.5t-8.5 -2t-6.5 -4.5t-6 -8t-3 -11q-6 -29 -22.5 -88t-22.5 -90l-14 -68 q0 -1 -2 -4t-2 -4l-19 -88l-5 -24q-10 -56 -13 -58q-3 -13 -7 -38.5t-8 -42.5t-10.5 -36t-19 -29t-29.5 -10q-29 17 -29 47zM332 717q0 -10 4 -12q30 -5 78 -5q17 0 74 6t73 9q0 5 1 39t1 39q0 295 -61 673l-23 -94q-4 -16 -7.5 -52.5t-8.5 -57.5q-5 -23 -18.5 -67 t-18.5 -67q0 2 -10 -27.5t-19.5 -67.5t-9.5 -56l-53 -252q-2 -6 -2 -8z" />
<glyph unicode="&#xc7;" horiz-adv-x="731" d="M102 977v174q1 29 10 81t11 64q2 14 5.5 43t5.5 46t7 41t11 44q4 16 19 40t19 36l64 64l98 24q1 0 9 1t10 1q3 0 13 -1t11 -1l15 -4q42 0 77 -30.5t56 -73.5l12 -27q9 -27 11.5 -39t3.5 -22.5t5.5 -51.5t12.5 -98l-8 -14q-3 -7 -17 -11q-6 -2 -10 -3h-10q-10 2 -17.5 7 t-11.5 14t-6.5 17t-3.5 21.5t-1 23t0.5 25t0.5 23.5q-2 19 -9 46.5t-20.5 62.5t-39 59t-56.5 24h-17q-1 0 -5 -2t-5 -2h-10q-48 -9 -92 -76q-82 -122 -82 -473q0 -38 8 -115t8 -127v-153v-56v-66t2 -59t5 -69t10 -58t16 -61q2 -8 6.5 -28t7 -30t8.5 -28.5t11 -29t13.5 -26 t18 -24.5t23 -19.5t29 -16t36 -9.5t44.5 -4q133 0 133 211v62q0 2 3 20.5t3 20.5v34q0 27 -5 80t-5 78q0 9 6.5 16.5t17 14.5t13.5 10h12q24 0 27.5 -8t9.5 -68q0 -3 -2 -26.5t-2 -26.5q0 -4 2 -31t2 -30v-33q0 -13 -3 -33t-3 -37t1 -46t1 -30l-9 -39q-8 -34 -11.5 -48.5 t-14 -42t-22 -41t-32 -28.5t-47.5 -22q0 -3 -9.5 -3.5t-22.5 -1t-19 -3.5l-12 -4q-19 0 -59 4q0 -1 1 -3t1 -3l6 -107h61q242 -11 242 -247q0 -58 -32 -113t-77 -70q-4 -1 -12.5 -3t-13.5 -5h-35q-23 0 -49.5 3t-55.5 10t-48 20.5t-19 32.5q0 26 33 26q7 0 19 -12t18 -14 q45 -17 114 -17q17 0 51 21l9 2q6 6 16 22t10 19l15 26v25q4 6 4 27q0 82 -35 137q-9 13 -40.5 35t-41.5 22q-1 0 -4.5 -1t-5.5 -1q-54 8 -78 8h-31q-1 0 -15.5 -2t-15.5 -2q-20 0 -31.5 22.5t-11.5 49.5v20q0 3 -1 20.5t-1 26.5v31l-4 6q-15 0 -28 13l-13 4q-43 22 -76 84 t-40 110l-25 152q0 20 -4 24v9q0 10 -4 95.5t-4 94.5v229q0 26 -6.5 76t-6.5 74zM461 -545q0 -2 2 -2l2 2q0 4 -2 4t-2 -4z" />
<glyph unicode="&#xc8;" horiz-adv-x="770" d="M102 49v4q0 5 6.5 17t6.5 20q-4 6 -4 8q4 13 4 15v12q0 2 -2 12.5t-2 12.5v256q0 59 -4.5 174.5t-4.5 177.5v71q0 9 4.5 95t4.5 96v364q0 4 -2.5 50t-2.5 51v71q0 44 12 63t44 19l151 -12q12 -6 43 -11t58.5 -7.5t71 -6t57.5 -4.5q5 -1 28 -2t34 -3t22.5 -12t11.5 -28 q0 -9 -8 -15.5t-17 -6.5h-2q-6 0 -48.5 5t-55.5 5h-23q-1 0 -7 2t-7 2q-123 21 -258 21q-19 0 -31 -9q0 -9 -2 -67.5t-2 -67.5v-379q0 -4 -2 -44t-2 -44v-88q18 -6 33 -6q5 0 17.5 1t19.5 1l170 -10q33 0 45 -4h22q24 0 37 -9q3 -3 4 -5v-15q0 -13 -1 -20t-7 -13t-18 -6 q-14 0 -43 6.5t-43 6.5h-70q-9 0 -28.5 3t-32.5 3q-98 0 -109 -11v-102q0 -14 6.5 -233t5.5 -246v-12q4 -36 4 -123q22 -9 68 -9h10q78 0 141.5 6.5t92.5 6.5q53 0 61 -2h12h9q25 0 36.5 -0.5t26 -3.5t20 -10t5.5 -19q0 -19 -5.5 -25t-27.5 -12h-4q-41 12 -96 12h-21 q-29 1 -87 -5.5t-83 -6.5h-53q-4 0 -44 -2t-44 -2h-66q-3 2 -8 5q-16 10 -19.5 15.5t-3.5 20.5q-4 6 -4 8zM205 1876q0 20 15.5 32.5t31.5 12.5q17 -17 36.5 -32t45.5 -29t42.5 -22.5t49.5 -24t45 -21.5l35 -14l10 -9q13 0 24.5 -8t17 -15.5t5.5 -10.5q0 -18 -13 -31.5 t-28 -13.5q-4 0 -8 2q-32 24 -99.5 57.5t-105.5 58.5q-39 18 -82 52h-8q-14 6 -14 16z" />
<glyph unicode="&#xc9;" horiz-adv-x="770" d="M102 49v4q0 5 6.5 17t6.5 20q-4 6 -4 8q4 13 4 15v12q0 2 -2 12.5t-2 12.5v256q0 59 -4.5 174.5t-4.5 177.5v71q0 9 4.5 95t4.5 96v364q0 4 -2.5 50t-2.5 51v71q0 44 12 63t44 19l151 -12q12 -6 43 -11t58.5 -7.5t71 -6t57.5 -4.5q5 -1 28 -2t34 -3t22.5 -12t11.5 -28 q0 -9 -8 -15.5t-17 -6.5h-2q-6 0 -48.5 5t-55.5 5h-23q-1 0 -7 2t-7 2q-123 21 -258 21q-19 0 -31 -9q0 -9 -2 -67.5t-2 -67.5v-379q0 -4 -2 -44t-2 -44v-88q18 -6 33 -6q5 0 17.5 1t19.5 1l170 -10q33 0 45 -4h22q24 0 37 -9q3 -3 4 -5v-15q0 -13 -1 -20t-7 -13t-18 -6 q-14 0 -43 6.5t-43 6.5h-70q-9 0 -28.5 3t-32.5 3q-98 0 -109 -11v-102q0 -14 6.5 -233t5.5 -246v-12q4 -36 4 -123q22 -9 68 -9h10q78 0 141.5 6.5t92.5 6.5q53 0 61 -2h12h9q25 0 36.5 -0.5t26 -3.5t20 -10t5.5 -19q0 -19 -5.5 -25t-27.5 -12h-4q-41 12 -96 12h-21 q-29 1 -87 -5.5t-83 -6.5h-53q-4 0 -44 -2t-44 -2h-66q-3 2 -8 5q-16 10 -19.5 15.5t-3.5 20.5q-4 6 -4 8zM205 1735q0 3 5.5 10.5t17 15.5t24.5 8l10 9l35 14q13 7 53.5 26.5t63 31.5t53 32t49.5 39q16 0 31.5 -12.5t15.5 -32.5q0 -10 -14 -16h-8q-39 -31 -82 -52 q-1 -1 -34.5 -19t-37.5 -22q-14 -7 -47 -27t-60 -35t-36 -15q-14 0 -26.5 13.5t-12.5 31.5z" />
<glyph unicode="&#xca;" horiz-adv-x="770" d="M86 1726q0 10 23 28t26 24l62 53q22 19 70 76t48 69v11q1 5 22.5 10.5t31.5 5.5h10l6 -6q3 -1 8 -3.5t7.5 -3.5t4.5 -3.5t3 -6.5l41 -36q11 -3 20 -15t29.5 -40.5t50.5 -57.5q16 -8 76.5 -61t60.5 -74q0 -10 -18.5 -20.5t-24.5 -10.5q-22 2 -121 109l-76 81q-9 5 -28 28 t-47 42q-5 -5 -16.5 -21t-20.5 -22l-96 -108q-10 -21 -47.5 -56t-53.5 -35q-18 0 -34.5 13t-16.5 30zM102 49v4q0 5 6.5 17t6.5 20q-4 6 -4 8q4 13 4 15v12q0 2 -2 12.5t-2 12.5v256q0 59 -4.5 174.5t-4.5 177.5v71q0 9 4.5 95t4.5 96v364q0 4 -2.5 50t-2.5 51v71 q0 44 12 63t44 19l151 -12q12 -6 43 -11t58.5 -7.5t71 -6t57.5 -4.5q5 -1 28 -2t34 -3t22.5 -12t11.5 -28q0 -9 -8 -15.5t-17 -6.5h-2q-6 0 -48.5 5t-55.5 5h-23q-1 0 -7 2t-7 2q-123 21 -258 21q-19 0 -31 -9q0 -9 -2 -67.5t-2 -67.5v-379q0 -4 -2 -44t-2 -44v-88 q18 -6 33 -6q5 0 17.5 1t19.5 1l170 -10q33 0 45 -4h22q24 0 37 -9q3 -3 4 -5v-15q0 -13 -1 -20t-7 -13t-18 -6q-14 0 -43 6.5t-43 6.5h-70q-9 0 -28.5 3t-32.5 3q-98 0 -109 -11v-102q0 -14 6.5 -233t5.5 -246v-12q4 -36 4 -123q22 -9 68 -9h10q78 0 141.5 6.5t92.5 6.5 q53 0 61 -2h12h9q25 0 36.5 -0.5t26 -3.5t20 -10t5.5 -19q0 -19 -5.5 -25t-27.5 -12h-4q-41 12 -96 12h-21q-29 1 -87 -5.5t-83 -6.5h-53q-4 0 -44 -2t-44 -2h-66q-3 2 -8 5q-16 10 -19.5 15.5t-3.5 20.5q-4 6 -4 8z" />
<glyph unicode="&#xcb;" horiz-adv-x="770" d="M102 49v4q0 5 6.5 17t6.5 20q-4 6 -4 8q4 13 4 15v12q0 2 -2 12.5t-2 12.5v256q0 59 -4.5 174.5t-4.5 177.5v71q0 9 4.5 95t4.5 96v364q0 4 -2.5 50t-2.5 51v71q0 44 12 63t44 19l151 -12q12 -6 43 -11t58.5 -7.5t71 -6t57.5 -4.5q5 -1 28 -2t34 -3t22.5 -12t11.5 -28 q0 -9 -8 -15.5t-17 -6.5h-2q-6 0 -48.5 5t-55.5 5h-23q-1 0 -7 2t-7 2q-123 21 -258 21q-19 0 -31 -9q0 -9 -2 -67.5t-2 -67.5v-379q0 -4 -2 -44t-2 -44v-88q18 -6 33 -6q5 0 17.5 1t19.5 1l170 -10q33 0 45 -4h22q24 0 37 -9q3 -3 4 -5v-15q0 -13 -1 -20t-7 -13t-18 -6 q-14 0 -43 6.5t-43 6.5h-70q-9 0 -28.5 3t-32.5 3q-98 0 -109 -11v-102q0 -14 6.5 -233t5.5 -246v-12q4 -36 4 -123q22 -9 68 -9h10q78 0 141.5 6.5t92.5 6.5q53 0 61 -2h12h9q25 0 36.5 -0.5t26 -3.5t20 -10t5.5 -19q0 -19 -5.5 -25t-27.5 -12h-4q-41 12 -96 12h-21 q-29 1 -87 -5.5t-83 -6.5h-53q-4 0 -44 -2t-44 -2h-66q-3 2 -8 5q-16 10 -19.5 15.5t-3.5 20.5q-4 6 -4 8zM217 1751q0 25 16 42t46 17h10q40 -5 43 -26l8 -43q4 -12 4 -17q0 -16 -13.5 -28.5t-33.5 -12.5q-6 -2 -18 -2q-28 0 -45 21.5t-17 48.5zM446 1751q0 25 16 42t46 17 h10q40 -5 43 -26l8 -43q4 -12 4 -17q0 -16 -13.5 -28.5t-33.5 -12.5q-6 -2 -18 -2q-28 0 -45 21.5t-17 48.5z" />
<glyph unicode="&#xcc;" horiz-adv-x="299" d="M-29 1876q0 20 15.5 32.5t31.5 12.5q21 -21 52.5 -41.5t48 -29.5t65 -32t54.5 -26l34 -14l11 -9q13 0 24.5 -8t17 -15.5t5.5 -10.5q0 -18 -13 -31.5t-28 -13.5q-4 0 -8 2q-32 24 -99.5 57.5t-105.5 58.5q-39 18 -82 52h-8q-15 6 -15 16zM102 678q1 14 5 102t4 103l1 13 q1 14 1 19q0 23 -3.5 67t-3.5 67v16q-2 2 -2 4l2 8v103q0 2 2.5 15t2.5 15v410q14 14 22 14q12 0 22 -3t16 -6t10.5 -11.5t7 -12.5t3.5 -17t1 -17.5v-20.5v-20v-13q0 -14 -11 -83l-4 -388q-1 -63 -2.5 -146.5t-2.5 -138t-1 -59.5q0 -10 1 -104.5t1 -106.5v-47q8 -32 8 -69 q0 -58 5.5 -100t5.5 -48q0 -1 -1.5 -22t-1.5 -35q0 -15 3.5 -30t3.5 -23v-33q0 -19 -0.5 -27t-3.5 -24.5t-11 -23.5t-22 -7q-7 0 -21 6t-14 10q-10 82 -10 226t-4 200q0 1 -2.5 16t-2.5 17v133q0 11 -2 34.5t-2 37.5z" />
<glyph unicode="&#xcd;" horiz-adv-x="299" d="M-29 1735q0 3 5.5 10.5t17 15.5t24.5 8l11 9l34 14q14 7 53.5 26.5t63 31.5t54 32t49.5 39q16 0 31.5 -12.5t15.5 -32.5q0 -10 -15 -16h-8q-39 -31 -82 -52q-1 -1 -34 -19t-37 -22q-13 -7 -47 -27t-61 -35t-36 -15q-14 0 -26.5 13.5t-12.5 31.5zM102 678q1 14 5 102 t4 103l1 13q1 14 1 19q0 23 -3.5 67t-3.5 67v16q-2 2 -2 4l2 8v103q0 2 2.5 15t2.5 15v410q14 14 22 14q12 0 22 -3t16 -6t10.5 -11.5t7 -12.5t3.5 -17t1 -17.5v-20.5v-20v-13q0 -14 -11 -83l-4 -388q-1 -63 -2.5 -146.5t-2.5 -138t-1 -59.5q0 -10 1 -104.5t1 -106.5v-47 q8 -32 8 -69q0 -58 5.5 -100t5.5 -48q0 -1 -1.5 -22t-1.5 -35q0 -15 3.5 -30t3.5 -23v-33q0 -19 -0.5 -27t-3.5 -24.5t-11 -23.5t-22 -7q-7 0 -21 6t-14 10q-10 82 -10 226t-4 200q0 1 -2.5 16t-2.5 17v133q0 11 -2 34.5t-2 37.5z" />
<glyph unicode="&#xce;" horiz-adv-x="299" d="M-150 1726q0 10 23.5 28t26.5 24l61 53q22 19 70.5 76t48.5 69v11q1 5 22 10.5t31 5.5h10l7 -6q2 -1 7.5 -3.5t7.5 -3.5t4 -3.5t3 -6.5l41 -36q11 -3 20 -15t29.5 -40.5t50.5 -57.5q16 -8 77 -61t61 -74q0 -10 -18.5 -20.5t-24.5 -10.5q-22 2 -121 109l-76 81 q-10 5 -29 28t-47 42q-5 -5 -16.5 -21t-20.5 -22l-96 -108q-10 -21 -47 -56t-53 -35q-18 0 -35 13t-17 30zM102 678q1 14 5 102t4 103l1 13q1 14 1 19q0 23 -3.5 67t-3.5 67v16q-2 2 -2 4l2 8v103q0 2 2.5 15t2.5 15v410q14 14 22 14q12 0 22 -3t16 -6t10.5 -11.5t7 -12.5 t3.5 -17t1 -17.5v-20.5v-20v-13q0 -14 -11 -83l-4 -388q-1 -63 -2.5 -146.5t-2.5 -138t-1 -59.5q0 -10 1 -104.5t1 -106.5v-47q8 -32 8 -69q0 -58 5.5 -100t5.5 -48q0 -1 -1.5 -22t-1.5 -35q0 -15 3.5 -30t3.5 -23v-33q0 -19 -0.5 -27t-3.5 -24.5t-11 -23.5t-22 -7 q-7 0 -21 6t-14 10q-10 82 -10 226t-4 200q0 1 -2.5 16t-2.5 17v133q0 11 -2 34.5t-2 37.5z" />
<glyph unicode="&#xcf;" horiz-adv-x="299" d="M-16 1751q0 25 15.5 42t45.5 17h10q40 -5 43 -26l8 -43q5 -15 5 -17q0 -16 -14 -28.5t-34 -12.5q-6 -2 -18 -2q-28 0 -44.5 21.5t-16.5 48.5zM102 678q1 14 5 102t4 103l1 13q1 14 1 19q0 23 -3.5 67t-3.5 67v16q-2 2 -2 4l2 8v103q0 2 2.5 15t2.5 15v410q14 14 22 14 q12 0 22 -3t16 -6t10.5 -11.5t7 -12.5t3.5 -17t1 -17.5v-20.5v-20v-13q0 -14 -11 -83l-4 -388q-1 -63 -2.5 -146.5t-2.5 -138t-1 -59.5q0 -10 1 -104.5t1 -106.5v-47q8 -32 8 -69q0 -58 5.5 -100t5.5 -48q0 -1 -1.5 -22t-1.5 -35q0 -15 3.5 -30t3.5 -23v-33q0 -19 -0.5 -27 t-3.5 -24.5t-11 -23.5t-22 -7q-7 0 -21 6t-14 10q-10 82 -10 226t-4 200q0 1 -2.5 16t-2.5 17v133q0 11 -2 34.5t-2 37.5zM213 1751q0 25 15.5 42t45.5 17h11q40 -5 43 -26l8 -43q4 -12 4 -17q0 -16 -13.5 -28.5t-33.5 -12.5q-6 -2 -19 -2q-28 0 -44.5 21.5t-16.5 48.5z" />
<glyph unicode="&#xd1;" horiz-adv-x="937" d="M102 1585q0 12 24 27.5t46 15.5q5 0 15 -3t10 -7l-2 -2q22 -84 79.5 -238t77.5 -225q3 -11 12.5 -28t12.5 -25l16 -64q11 -21 31 -70.5t33 -74.5l28 -57l138 -302l67 -141q0 -1 3 -6t3 -6l47 -113v37q0 35 -4 103t-4 106v78q0 37 -3 97.5t-3 131.5q0 60 2 70q-7 7 -8 41 t-0.5 79t-3.5 66v416q3 13 3 55.5t8 66t34 23.5q35 0 35 -24q0 -17 -5.5 -51t-5.5 -54l-4 -258q0 -3 -2 -25.5t-2 -25.5v-70q0 -1 0.5 -6.5t1 -13t0.5 -12.5q0 -13 -2 -15l13 -342q0 -6 -1 -18.5t-1 -18.5q0 -8 4 -24q-2 -12 -2 -80q0 -72 12 -293q2 -42 16.5 -132.5 t14.5 -139.5v-8q-10 -20 -17.5 -24.5t-25.5 -4.5h-13q-18 13 -18 27q0 12 2 16q-16 46 -47.5 126.5t-40.5 104.5l-29 76l-41 80q-12 18 -40 96t-56 107l-61 125q-7 39 -54.5 136t-58.5 126q-13 34 -34.5 100t-31.5 94q-5 16 -18.5 45.5t-18.5 44.5q-5 12 -15 45.5t-18.5 56 t-13.5 25.5v-10q0 -39 4 -51v-37q0 -46 8.5 -129.5t8.5 -124.5v-71q0 -22 3.5 -64t4.5 -51v-869q0 -4 -16.5 -16t-22.5 -12q-11 0 -17.5 3.5t-8.5 12t-2.5 12.5t-0.5 15v10q0 28 3.5 65.5t3.5 49.5q0 17 -3.5 72.5t-3.5 123.5q0 142 7 156q0 1 -1 15t-1 22q0 5 3 61t3 127 q0 188 -19 408v10q0 9 -4 29l-24 317q-9 41 -9 84zM156 1718q0 4 4 8q-2 4 -2 37q0 19 1 27.5t4.5 22.5l6.5 26q13 34 21 48t20 22t14 10q9 3 21.5 7.5t19.5 6.5t18.5 4t24.5 2q14 0 39 -7t31 -13l29 -25q26 -19 60 -60.5t66 -64t78 -22.5q30 0 62.5 47.5t32.5 89.5v14 q0 13 3 18.5t14.5 11.5t16.5 9q41 0 41 -36v-11q-1 -3 -5.5 -23.5t-4.5 -23.5v-8l-8 -14q-1 -15 -7 -28.5t-16.5 -30t-15.5 -25.5l-8 -11l-23 -14q-4 0 -30 -14.5t-41 -14.5q-51 0 -111.5 31t-89.5 72q-2 3 -19.5 27.5t-26 33.5t-26 20t-35.5 11q-80 0 -90 -149v-23 q0 -11 -6.5 -22t-17.5 -11q-16 0 -30.5 14t-14.5 31z" />
<glyph unicode="&#xd2;" d="M102 793v16q0 1 7 27q0 19 -1.5 54.5t-1.5 53.5q11 38 18 83.5t13.5 108t9.5 87.5l13 39q13 77 73 202q7 16 19.5 32.5t22 26.5t29 28.5t26.5 25.5l30 18l29 13l82 20l59 6l13 4q31 -4 56.5 -11t36.5 -11.5t39.5 -19t37.5 -19.5q17 -15 40 -55t27 -45l8 -19 q17 -46 31 -69l10 -25q15 -45 30.5 -130.5t25.5 -121.5q28 -170 28 -332q0 -18 -2 -28q2 -31 2 -97q0 -357 -125 -546l-8 -13l-47 -41q-9 -8 -20.5 -14.5t-29.5 -14t-24 -10.5l-8 -2l-26 -10q-83 -10 -99 -10q-65 0 -113.5 15t-82 45t-54.5 61.5t-43 79.5q-6 12 -24 37.5 t-23 41.5q-9 21 -19.5 60.5t-16.5 56.5q-5 30 -16 95.5t-17 99.5v8q-1 20 -8 90.5t-7 108.5zM176 809q0 -107 14 -174v-23q3 -14 7.5 -42.5t7.5 -43.5v-14q0 -9 4 -25v-4q0 -4 6 -22q12 -69 27 -110.5t50 -101.5t50 -91q34 -43 86.5 -65.5t110.5 -24.5h8q105 11 155 57 l35 31l43 80q21 46 31.5 106t18 140.5t12.5 115.5v37q0 13 1 40t1 40q0 27 -2 41v39q0 104 -29 319l-6 14q0 11 -4.5 31.5t-5.5 28.5l-9 57l-8 19l-18 65q-13 16 -21 52t-14 49l-4 8q-14 35 -27 61l-18 25q-1 1 -43 37l-31 16l-47 6q-3 0 -10 1t-10 1t-8.5 -1t-8.5 -1 l-43 -4q-27 -5 -69 -20l-43 -31q-127 -101 -172 -479l-5 -35q0 -17 -4 -53l-4 -11l-4 -39l4 -37zM330 1876q0 20 15.5 32.5t31.5 12.5q17 -17 36.5 -32t45.5 -29t42.5 -22.5t49.5 -24t45 -21.5l35 -14l10 -9q13 0 24.5 -8t17 -15.5t5.5 -10.5q0 -18 -13 -31.5t-28 -13.5 q-4 0 -8 2q-32 24 -99.5 57.5t-105.5 58.5q-39 18 -82 52h-8q-14 6 -14 16z" />
<glyph unicode="&#xd3;" d="M102 793v16q0 1 7 27q0 19 -1.5 54.5t-1.5 53.5q11 38 18 83.5t13.5 108t9.5 87.5l13 39q13 77 73 202q7 16 19.5 32.5t22 26.5t29 28.5t26.5 25.5l30 18l29 13l82 20l59 6l13 4q31 -4 56.5 -11t36.5 -11.5t39.5 -19t37.5 -19.5q17 -15 40 -55t27 -45l8 -19 q17 -46 31 -69l10 -25q15 -45 30.5 -130.5t25.5 -121.5q28 -170 28 -332q0 -18 -2 -28q2 -31 2 -97q0 -357 -125 -546l-8 -13l-47 -41q-9 -8 -20.5 -14.5t-29.5 -14t-24 -10.5l-8 -2l-26 -10q-83 -10 -99 -10q-65 0 -113.5 15t-82 45t-54.5 61.5t-43 79.5q-6 12 -24 37.5 t-23 41.5q-9 21 -19.5 60.5t-16.5 56.5q-5 30 -16 95.5t-17 99.5v8q-1 20 -8 90.5t-7 108.5zM176 809q0 -107 14 -174v-23q3 -14 7.5 -42.5t7.5 -43.5v-14q0 -9 4 -25v-4q0 -4 6 -22q12 -69 27 -110.5t50 -101.5t50 -91q34 -43 86.5 -65.5t110.5 -24.5h8q105 11 155 57 l35 31l43 80q21 46 31.5 106t18 140.5t12.5 115.5v37q0 13 1 40t1 40q0 27 -2 41v39q0 104 -29 319l-6 14q0 11 -4.5 31.5t-5.5 28.5l-9 57l-8 19l-18 65q-13 16 -21 52t-14 49l-4 8q-14 35 -27 61l-18 25q-1 1 -43 37l-31 16l-47 6q-3 0 -10 1t-10 1t-8.5 -1t-8.5 -1 l-43 -4q-27 -5 -69 -20l-43 -31q-127 -101 -172 -479l-5 -35q0 -17 -4 -53l-4 -11l-4 -39l4 -37zM330 1735q0 3 5.5 10.5t17 15.5t24.5 8l10 9l35 14q13 7 53.5 26.5t63 31.5t53 32t49.5 39q16 0 31.5 -12.5t15.5 -32.5q0 -10 -14 -16h-8q-39 -31 -82 -52q-1 -1 -34.5 -19 t-37.5 -22q-14 -7 -47 -27t-60 -35t-36 -15q-14 0 -26.5 13.5t-12.5 31.5z" />
<glyph unicode="&#xd4;" d="M102 793v16q0 1 7 27q0 19 -1.5 54.5t-1.5 53.5q11 38 18 83.5t13.5 108t9.5 87.5l13 39q13 77 73 202q7 16 19.5 32.5t22 26.5t29 28.5t26.5 25.5l30 18l29 13l82 20l59 6l13 4q31 -4 56.5 -11t36.5 -11.5t39.5 -19t37.5 -19.5q17 -15 40 -55t27 -45l8 -19 q17 -46 31 -69l10 -25q15 -45 30.5 -130.5t25.5 -121.5q28 -170 28 -332q0 -18 -2 -28q2 -31 2 -97q0 -357 -125 -546l-8 -13l-47 -41q-9 -8 -20.5 -14.5t-29.5 -14t-24 -10.5l-8 -2l-26 -10q-83 -10 -99 -10q-65 0 -113.5 15t-82 45t-54.5 61.5t-43 79.5q-6 12 -24 37.5 t-23 41.5q-9 21 -19.5 60.5t-16.5 56.5q-5 30 -16 95.5t-17 99.5v8q-1 20 -8 90.5t-7 108.5zM176 809q0 -107 14 -174v-23q3 -14 7.5 -42.5t7.5 -43.5v-14q0 -9 4 -25v-4q0 -4 6 -22q12 -69 27 -110.5t50 -101.5t50 -91q34 -43 86.5 -65.5t110.5 -24.5h8q105 11 155 57 l35 31l43 80q21 46 31.5 106t18 140.5t12.5 115.5v37q0 13 1 40t1 40q0 27 -2 41v39q0 104 -29 319l-6 14q0 11 -4.5 31.5t-5.5 28.5l-9 57l-8 19l-18 65q-13 16 -21 52t-14 49l-4 8q-14 35 -27 61l-18 25q-1 1 -43 37l-31 16l-47 6q-3 0 -10 1t-10 1t-8.5 -1t-8.5 -1 l-43 -4q-27 -5 -69 -20l-43 -31q-127 -101 -172 -479l-5 -35q0 -17 -4 -53l-4 -11l-4 -39l4 -37zM209 1726q0 10 23 28t26 24l61 53q22 19 70.5 76t48.5 69v11q1 5 22.5 10.5t31.5 5.5h10l6 -6q2 -1 7.5 -3.5t7.5 -3.5t4 -3.5t3 -6.5l41 -36q11 -3 20.5 -15t30 -40.5 t50.5 -57.5q16 -8 76.5 -61t60.5 -74q0 -10 -18.5 -20.5t-24.5 -10.5q-22 2 -121 109l-76 81q-9 5 -28 28t-47 42q-5 -5 -16.5 -21t-20.5 -22l-97 -108q-10 -21 -47 -56t-53 -35q-18 0 -34.5 13t-16.5 30z" />
<glyph unicode="&#xd5;" horiz-adv-x="923" d="M102 793v16q0 1 7 27q0 19 -1.5 54.5t-1.5 53.5q11 38 18 83.5t13.5 108t9.5 87.5l13 39q13 77 73 202q7 16 19.5 32.5t22 26.5t29 28.5t26.5 25.5l30 18l29 13l82 20l59 6l13 4q31 -4 56.5 -11t36.5 -11.5t39.5 -19t37.5 -19.5q17 -15 40 -55t27 -45l8 -19 q17 -46 31 -69l10 -25q15 -45 30.5 -130.5t25.5 -121.5q28 -170 28 -332q0 -18 -2 -28q2 -31 2 -97q0 -357 -125 -546l-8 -13l-47 -41q-9 -8 -20.5 -14.5t-29.5 -14t-24 -10.5l-8 -2l-26 -10q-83 -10 -99 -10q-65 0 -113.5 15t-82 45t-54.5 61.5t-43 79.5q-6 12 -24 37.5 t-23 41.5q-9 21 -19.5 60.5t-16.5 56.5q-5 30 -16 95.5t-17 99.5v8q-1 20 -8 90.5t-7 108.5zM152 1735q0 4 4 8q-2 4 -2 37q0 19 1 27.5t4.5 21.5t6.5 26q13 34 21 48t20 22t14 10q9 3 26 9.5t29 9t29 2.5q14 0 39 -7.5t31 -13.5l28 -24q26 -19 60 -60.5t66.5 -64.5 t78.5 -23q30 0 62 48t32 90v14q0 13 3.5 19t15 11.5t16.5 8.5q41 0 41 -37v-10q-1 -3 -5.5 -23.5t-4.5 -23.5v-9l-8 -14q-1 -15 -7 -28.5t-16.5 -30t-15.5 -25.5l-8 -10l-23 -14q-4 0 -30.5 -14.5t-41.5 -14.5q-51 0 -111 30.5t-89 71.5q-2 3 -19.5 27.5t-26 33.5t-26 20 t-35.5 11q-80 0 -90 -149v-23q0 -11 -6.5 -21.5t-17.5 -10.5q-16 0 -30.5 14t-14.5 31zM176 809q4 -128 14 -174v-23q3 -14 7.5 -42.5t7.5 -43.5v-14q0 -9 4 -25v-4q0 -4 6 -22q12 -69 27 -110.5t50 -101.5t50 -91q34 -43 86.5 -65.5t110.5 -24.5h8q105 11 155 57l35 31 l43 80q21 46 31.5 106t18 140.5t12.5 115.5v37q0 13 1 40t1 40q0 27 -2 41v39q0 104 -29 319l-6 14q0 11 -4.5 31.5t-5.5 28.5l-9 57l-8 19l-18 65q-13 16 -21 52t-14 49l-4 8q-14 35 -27 61l-18 25q-1 1 -43 37l-31 16l-47 6q-3 0 -10 1t-10 1t-8.5 -1t-8.5 -1l-43 -4 q-27 -5 -69 -20l-43 -31q-127 -101 -172 -479l-5 -35q0 -17 -4 -53l-4 -11l-4 -39l4 -37z" />
<glyph unicode="&#xd6;" d="M102 793v16q0 1 7 27q0 19 -1.5 54.5t-1.5 53.5q11 38 18 83.5t13.5 108t9.5 87.5l13 39q13 77 73 202q7 16 19.5 32.5t22 26.5t29 28.5t26.5 25.5l30 18l29 13l82 20l59 6l13 4q31 -4 56.5 -11t36.5 -11.5t39.5 -19t37.5 -19.5q17 -15 40 -55t27 -45l8 -19 q17 -46 31 -69l10 -25q15 -45 30.5 -130.5t25.5 -121.5q28 -170 28 -332q0 -18 -2 -28q2 -31 2 -97q0 -357 -125 -546l-8 -13l-47 -41q-9 -8 -20.5 -14.5t-29.5 -14t-24 -10.5l-8 -2l-26 -10q-83 -10 -99 -10q-65 0 -113.5 15t-82 45t-54.5 61.5t-43 79.5q-6 12 -24 37.5 t-23 41.5q-9 21 -19.5 60.5t-16.5 56.5q-5 30 -16 95.5t-17 99.5v8q-1 20 -8 90.5t-7 108.5zM176 809q0 -107 14 -174v-23q3 -14 7.5 -42.5t7.5 -43.5v-14q0 -9 4 -25v-4q0 -4 6 -22q12 -69 27 -110.5t50 -101.5t50 -91q34 -43 86.5 -65.5t110.5 -24.5h8q105 11 155 57 l35 31l43 80q21 46 31.5 106t18 140.5t12.5 115.5v37q0 13 1 40t1 40q0 27 -2 41v39q0 104 -29 319l-6 14q0 11 -4.5 31.5t-5.5 28.5l-9 57l-8 19l-18 65q-13 16 -21 52t-14 49l-4 8q-14 35 -27 61l-18 25q-1 1 -43 37l-31 16l-47 6q-3 0 -10 1t-10 1t-8.5 -1t-8.5 -1 l-43 -4q-27 -5 -69 -20l-43 -31q-127 -101 -172 -479l-5 -35q0 -17 -4 -53l-4 -11l-4 -39l4 -37zM342 1751q0 25 15.5 42t45.5 17h11q40 -5 43 -26l8 -43q4 -12 4 -17q0 -16 -13.5 -28.5t-33.5 -12.5q-6 -2 -19 -2q-28 0 -44.5 21.5t-16.5 48.5zM571 1751q0 25 16 42t46 17 h10q40 -5 43 -26l8 -43q4 -12 4 -17q0 -16 -13.5 -28.5t-33.5 -12.5q-6 -2 -18 -2q-28 0 -45 21.5t-17 48.5z" />
<glyph unicode="&#xd8;" d="M102 793v16q0 1 7 27q0 19 -1.5 54.5t-1.5 53.5q11 38 18 83.5t13.5 108t9.5 87.5l13 39q29 174 170 315l59 31l82 20l59 6l13 4l45 -8q9 6 28 6q29 0 35 -24l25 -13q7 -7 37 -22q17 -15 40 -55t27 -45l8 -19q17 -46 31 -69l10 -25q15 -45 30.5 -130.5t25.5 -121.5 q28 -170 28 -332q0 -18 -2 -28q2 -31 2 -97q0 -357 -125 -546l-8 -13l-47 -41q-19 -17 -74 -39l-34 -12q-83 -10 -99 -10q-17 0 -52 6t-54 6q-15 -10 -19 -10q-36 0 -39 27q-2 10 -2 12q-45 25 -72.5 62.5t-54.5 97.5q-6 14 -24 39t-23 40q-18 47 -29.5 96t-23.5 121t-16 95 v8q-1 20 -8 90.5t-7 108.5zM176 809q0 -107 14 -174v-23q3 -14 7.5 -42.5t7.5 -43.5v-14q0 -71 52.5 -203.5t119.5 -187.5q0 35 10 51l21 129q2 8 2 23l26 182q13 104 25 147l22 172q0 54 20.5 148.5t20.5 132.5v14q0 3 6 27l5 74q8 24 8 26v6q0 63 15.5 188t16.5 140l-18 2 q-3 0 -10 1t-10 1t-8.5 -1t-8.5 -1l-43 -4q-27 -5 -69 -20l-43 -31q-127 -101 -172 -479l-5 -35q0 -17 -4 -53l-4 -11l-4 -39l4 -37zM434 88q55 -20 105 -20h8q105 11 155 57l35 31l43 80q21 46 31.5 106t18 140.5t12.5 115.5v37q0 13 1 40t1 40q0 27 -2 41v39 q0 104 -29 319l-6 14q0 11 -4.5 31.5t-5.5 28.5l-9 57l-26 84q-13 16 -21 52t-14 49l-4 8q-14 35 -27 61l-18 25l-35 28l-6 -43q-4 -12 -9 -63t-16 -62q0 -3 1 -10.5t1 -11.5q0 -8 -4 -12l-14 -142q-14 -72 -14 -106q-7 -40 -13.5 -111t-13.5 -110l-25 -138 q1 -39 -8.5 -102.5t-30.5 -174.5t-26 -142q-1 -7 -6.5 -29.5t-9 -47t-3.5 -50.5v-29q0 -50 -12 -80z" />
<glyph unicode="&#xd9;" horiz-adv-x="878" d="M102 729q4 28 4 127v125q0 45 6 149t5 158q0 34 -2 101.5t-2 101.5q0 1 2 19t2 24q-6 40 -6 82q0 13 41 22q15 0 24.5 -12t9.5 -29q0 -70 -6 -137v-235q-1 -22 -5.5 -149.5t-4.5 -149.5v-99q0 -4 -2 -44.5t-2 -45.5v-106q0 -18 3 -50.5t3 -33.5v-119q0 -56 12 -90 q3 -41 11 -85.5t35 -104t67 -78.5q47 -23 88 -23q57 0 86 16q4 0 11.5 8.5t17.5 12.5q24 27 39.5 55.5t21.5 50t18.5 72.5t24.5 90q0 2 3 8.5t3 8.5v10l4 10q-1 16 2.5 39.5t12 65.5t10.5 53l14 80q0 2 3 15t3 15q4 34 9.5 102t9.5 103l10 86q0 2 1 10t1 9v108q1 4 4.5 36.5 t3.5 39.5v14q0 11 3.5 115t3.5 115v155q-5 10 -5 23q0 23 11 34t43 11q10 0 16 -12.5t6 -20.5v-16q-8 -156 -8 -234v-116q0 -2 -2 -15t-2 -14v-29q0 -37 -5 -123.5t-9 -97.5l-29 -262v-8q1 -22 -12 -75.5t-15 -70.5l-14 -110q0 -4 -10 -54q-3 -10 -11.5 -45.5t-12.5 -50.5 t-14.5 -48t-19 -49.5t-23 -44t-29.5 -42t-37 -33.5t-46.5 -28t-56.5 -16t-68 -7q-24 0 -84 22q-6 4 -17.5 11.5t-18.5 12t-16 12.5t-15 16q-28 34 -49 99t-27 130q-2 17 -8 84.5t-6 71.5v118q0 25 -4.5 77t-4.5 79zM260 1876q0 20 15.5 32.5t31.5 12.5q17 -17 36.5 -32 t45.5 -29t42.5 -22.5t49.5 -24t45 -21.5l35 -14l10 -9q13 0 24.5 -8t17 -15.5t5.5 -10.5q0 -18 -12.5 -31.5t-27.5 -13.5q-5 0 -9 2q-32 24 -99.5 57.5t-104.5 58.5q-39 18 -82 52h-9q-14 6 -14 16z" />
<glyph unicode="&#xda;" horiz-adv-x="878" d="M102 729q4 28 4 127v125q0 45 6 149t5 158q0 34 -2 101.5t-2 101.5q0 1 2 19t2 24q-6 40 -6 82q0 13 41 22q15 0 24.5 -12t9.5 -29q0 -70 -6 -137v-235q-1 -22 -5.5 -149.5t-4.5 -149.5v-99q0 -4 -2 -44.5t-2 -45.5v-106q0 -18 3 -50.5t3 -33.5v-119q0 -56 12 -90 q3 -41 11 -85.5t35 -104t67 -78.5q47 -23 88 -23q57 0 86 16q4 0 11.5 8.5t17.5 12.5q24 27 39.5 55.5t21.5 50t18.5 72.5t24.5 90q0 2 3 8.5t3 8.5v10l4 10q-1 16 2.5 39.5t12 65.5t10.5 53l14 80q0 2 3 15t3 15q4 34 9.5 102t9.5 103l10 86q0 2 1 10t1 9v108q1 4 4.5 36.5 t3.5 39.5v14q0 11 3.5 115t3.5 115v155q-5 10 -5 23q0 23 11 34t43 11q10 0 16 -12.5t6 -20.5v-16q-8 -156 -8 -234v-116q0 -2 -2 -15t-2 -14v-29q0 -37 -5 -123.5t-9 -97.5l-29 -262v-8q1 -22 -12 -75.5t-15 -70.5l-14 -110q0 -4 -10 -54q-3 -10 -11.5 -45.5t-12.5 -50.5 t-14.5 -48t-19 -49.5t-23 -44t-29.5 -42t-37 -33.5t-46.5 -28t-56.5 -16t-68 -7q-24 0 -84 22q-6 4 -17.5 11.5t-18.5 12t-16 12.5t-15 16q-28 34 -49 99t-27 130q-2 17 -8 84.5t-6 71.5v118q0 25 -4.5 77t-4.5 79zM260 1735q0 3 5.5 10.5t17 15.5t24.5 8l10 9l35 14 q13 7 53.5 26.5t63 31.5t53 32t49.5 39q16 0 31.5 -12.5t15.5 -32.5q0 -10 -14 -16h-8q-39 -31 -82 -52q-1 -1 -34.5 -19t-37.5 -22q-14 -7 -47 -27t-60 -35t-36 -15q-14 0 -26.5 13.5t-12.5 31.5z" />
<glyph unicode="&#xdb;" horiz-adv-x="878" d="M102 729q4 28 4 127v125q0 45 6 149t5 158q0 34 -2 101.5t-2 101.5q0 1 2 19t2 24q-6 40 -6 82q0 13 41 22q15 0 24.5 -12t9.5 -29q0 -70 -6 -137v-235q-1 -22 -5.5 -149.5t-4.5 -149.5v-99q0 -4 -2 -44.5t-2 -45.5v-106q0 -18 3 -50.5t3 -33.5v-119q0 -56 12 -90 q3 -41 11 -85.5t35 -104t67 -78.5q47 -23 88 -23q57 0 86 16q4 0 11.5 8.5t17.5 12.5q24 27 39.5 55.5t21.5 50t18.5 72.5t24.5 90q0 2 3 8.5t3 8.5v10l4 10q-1 16 2.5 39.5t12 65.5t10.5 53l14 80q0 2 3 15t3 15q4 34 9.5 102t9.5 103l10 86q0 2 1 10t1 9v108q1 4 4.5 36.5 t3.5 39.5v14q0 11 3.5 115t3.5 115v155q-5 10 -5 23q0 23 11 34t43 11q10 0 16 -12.5t6 -20.5v-16q-8 -156 -8 -234v-116q0 -2 -2 -15t-2 -14v-29q0 -37 -5 -123.5t-9 -97.5l-29 -262v-8q1 -22 -12 -75.5t-15 -70.5l-14 -110q0 -4 -10 -54q-3 -10 -11.5 -45.5t-12.5 -50.5 t-14.5 -48t-19 -49.5t-23 -44t-29.5 -42t-37 -33.5t-46.5 -28t-56.5 -16t-68 -7q-24 0 -84 22q-6 4 -17.5 11.5t-18.5 12t-16 12.5t-15 16q-28 34 -49 99t-27 130q-2 17 -8 84.5t-6 71.5v118q0 25 -4.5 77t-4.5 79zM139 1726q0 10 23 28t26 24l62 53q22 19 70.5 76t48.5 69 v11q1 5 22 10.5t31 5.5h10l6 -6q3 -1 8 -3.5t7.5 -3.5t4.5 -3.5t3 -6.5l41 -36q11 -3 20 -15t29.5 -40.5t50.5 -57.5q16 -8 76.5 -61t60.5 -74q0 -10 -18.5 -20.5t-24.5 -10.5q-22 2 -121 109l-75 81q-10 5 -29 28t-47 42q-5 -5 -16.5 -21t-20.5 -22l-96 -108 q-10 -21 -47.5 -56t-53.5 -35q-18 0 -34.5 13t-16.5 30z" />
<glyph unicode="&#xdc;" horiz-adv-x="878" d="M102 729q4 28 4 127v125q0 45 6 149t5 158q0 34 -2 101.5t-2 101.5q0 1 2 19t2 24q-6 40 -6 82q0 13 41 22q15 0 24.5 -12t9.5 -29q0 -70 -6 -137v-235q-1 -22 -5.5 -149.5t-4.5 -149.5v-99q0 -4 -2 -44.5t-2 -45.5v-106q0 -18 3 -50.5t3 -33.5v-119q0 -56 12 -90 q3 -41 11 -85.5t35 -104t67 -78.5q47 -23 88 -23q57 0 86 16q4 0 11.5 8.5t17.5 12.5q24 27 39.5 55.5t21.5 50t18.5 72.5t24.5 90q0 2 3 8.5t3 8.5v10l4 10q-1 16 2.5 39.5t12 65.5t10.5 53l14 80q0 2 3 15t3 15q4 34 9.5 102t9.5 103l10 86q0 2 1 10t1 9v108q1 4 4.5 36.5 t3.5 39.5v14q0 11 3.5 115t3.5 115v155q-5 10 -5 23q0 23 11 34t43 11q10 0 16 -12.5t6 -20.5v-16q-8 -156 -8 -234v-116q0 -2 -2 -15t-2 -14v-29q0 -37 -5 -123.5t-9 -97.5l-29 -262v-8q1 -22 -12 -75.5t-15 -70.5l-14 -110q0 -4 -10 -54q-3 -10 -11.5 -45.5t-12.5 -50.5 t-14.5 -48t-19 -49.5t-23 -44t-29.5 -42t-37 -33.5t-46.5 -28t-56.5 -16t-68 -7q-24 0 -84 22q-6 4 -17.5 11.5t-18.5 12t-16 12.5t-15 16q-28 34 -49 99t-27 130q-2 17 -8 84.5t-6 71.5v118q0 25 -4.5 77t-4.5 79zM272 1751q0 25 16 42t46 17h10q40 -5 43 -26l8 -43 q4 -12 4 -17q0 -16 -13.5 -28.5t-33.5 -12.5q-6 -2 -18 -2q-28 0 -45 21.5t-17 48.5zM502 1751q0 25 15.5 42t45.5 17h10q40 -5 43 -26l9 -43q4 -12 4 -17q0 -16 -13.5 -28.5t-33.5 -12.5q-6 -2 -19 -2q-28 0 -44.5 21.5t-16.5 48.5z" />
<glyph unicode="&#xdd;" horiz-adv-x="704" d="M102 1554q0 8 15 13.5t20 5.5q11 0 22 -8t11 -17l18 -53l19 -39q7 -17 27 -54.5t28 -58.5q5 -29 34.5 -95t37.5 -101l16 -37l8 -27l29 -73q4 17 9.5 52t9.5 52q5 25 17 70t19 76q27 126 54 200q11 21 20 69t22.5 77.5t41.5 29.5q1 0 5.5 -3.5t9.5 -7.5t7 -5v-8 q0 -9 -24 -90l-27 -74q-30 -80 -41 -133q0 -19 -10.5 -63t-16.5 -50l-18 -76q-9 -39 -19 -104q0 -18 -10 -57.5t-10 -59.5v-55q0 -56 -4 -162t-4 -160q0 -4 1 -26.5t1 -26.5v-264q10 -147 10 -184v-11q0 -12 -12 -18t-25 -6h-12q-14 10 -14 82q0 10 1 25t1 16l-7 78 q0 6 -1 39t-1 40v9q2 47 2 137v76q0 2 -2 9.5t-2 8.5q0 4 2 32t2 31v101q0 2 1.5 17t1.5 16v34q0 3 -1.5 35t-1.5 35v33q-3 28 -9.5 58.5t-16 64.5t-10.5 39q-4 14 -20.5 52t-16.5 48q-44 148 -92 240q-10 22 -35.5 67.5t-42.5 81.5t-17 57zM172 1735q0 3 5.5 10.5t17 15.5 t24.5 8l10 9l35 14q13 7 53.5 26.5t63 31.5t53 32t49.5 39q16 0 31.5 -12.5t15.5 -32.5q0 -10 -14 -16h-8q-39 -31 -82 -52q-1 -1 -34.5 -19t-37.5 -22q-14 -7 -47 -27t-60 -35t-36 -15q-14 0 -26.5 13.5t-12.5 31.5z" />
<glyph unicode="&#xdf;" horiz-adv-x="1024" d="M102 694q0 106 4.5 193t4.5 137q0 4 -2.5 52.5t-2.5 53.5v132q0 4 -1 15.5t-1 20.5q0 104 21 181q3 11 8.5 22t10 18.5t15.5 20t14.5 16l19 19l16.5 16.5q55 27 94 36t103 9q74 0 114 -16l23 -10q6 -3 28 -11.5t31 -13.5q44 -24 82.5 -84.5t38.5 -99.5q-2 -13 -9 -43.5 t-7 -46.5l2 -8l-9 -13q-18 -44 -34 -71l-3 -5l-2 -2q-30 -33 -30 -49v-2q77 -59 88 -80q4 -7 4 -12q75 -100 113.5 -180.5t72.5 -208.5q13 -59 13 -133v-10q-4 -91 -15 -140q-3 -14 -14 -39.5t-20 -44.5t-9 -20q-106 -184 -272 -184q-64 0 -92 14q0 1 -31 23.5t-61.5 52.5 t-30.5 49q0 10 13 23.5t24 13.5q18 0 30 -9q28 -57 62.5 -85.5t93.5 -28.5q82 0 158 76l22 22q30 37 54 108t24 124q0 131 -18 194l-19 64q0 10 -20 55l-25 61q0 4 -4 8l-6 9q-4 4 -12.5 21.5t-8.5 19.5q-2 3 -14.5 27.5t-27 49.5t-42 55.5t-59.5 49.5q-8 4 -28.5 9t-32 13 t-11.5 25q0 12 1.5 17t6.5 7.5t7 4.5q33 27 57 66t33.5 67t19.5 71q0 53 -18 74q-42 62 -83 85t-118 40h-78q-20 0 -34 -4l-62 -27q-1 -1 -10 -7t-10 -11q-28 -18 -44 -64.5t-18 -48.5v-18l-3 -19l-7 -45v-401q0 -21 -2 -86.5t-2 -138.5q0 -269 8 -400l10 -188q0 -1 2 -13 t2 -14v-77q0 -12 -9 -19.5t-21 -7.5q-30 0 -41 16l-6 236q-1 56 -0.5 101.5t-1 102t-5.5 101.5q0 10 -1 69.5t-1 71.5z" />
<glyph unicode="&#xe0;" horiz-adv-x="1003" d="M102 49q29 109 41 187l4 6q0 28 22.5 125t27.5 131q4 4 4 12l12 74q2 13 17 55t14 63v9l10 45q0 36 16 69q13 95 52.5 272t48.5 224q8 8 8 68l4 6l29 147q0 9 8 25q6 44 15 56.5t30 12.5q24 0 37.5 -20t13.5 -37l14 -66q0 -12 19 -69q5 -19 11 -57.5t11 -57.5l56 -217 q3 -14 12 -66.5t18.5 -85t22.5 -45.5v-10q0 -12 3.5 -31t6.5 -22q2 2 3 -3q0 -2 2 -12q6 -50 20 -77l14 -76q7 -34 21 -59l14 -15q0 -4 2 -16t2 -19l-8 -6q0 -10 2.5 -22t8 -32t12 -39.5t17.5 -55.5t21 -68q0 -1 9.5 -29.5t19.5 -66.5t10 -63v-9q0 -6 8 -14l27 -121 q4 -2 4 -14q0 -41 -31 -41q-21 0 -30 15t-9 30q-22 66 -42.5 160.5t-65.5 246.5v11l-19 78q-5 23 -10 25q-3 1 -22 1q-58 0 -66 -8h-18q-20 0 -41 -2.5t-50 -7t-40 -6.5q-114 0 -170 -11q-20 0 -28 -38t-12.5 -84.5t-15.5 -57.5v-12q0 -8 -6 -31t-10 -27q-3 -53 -25 -158.5 t-45 -105.5q-3 1 -8.5 3.5t-9 4.5t-8 5t-7.5 6t-5.5 7.5t-2.5 10.5zM287 600q41 0 108.5 5t85.5 5q1 0 7 -1t10 -1q8 0 18.5 4t13.5 4h27q34 0 74.5 6.5t40.5 16.5q0 3 -12 50t-23.5 92.5t-9.5 47.5q-20 91 -97 402q-4 4 -4 12l-18 72q-3 10 -11.5 50t-16.5 69.5t-15 33.5 q-2 -2 -8 -28q-3 -15 -27.5 -143t-38.5 -224l-12 -39q-4 -24 -17 -63l-55 -264q-20 -87 -20 -107zM322 1868q0 20 15.5 32.5t31.5 12.5q17 -17 36.5 -32t45.5 -29t42.5 -22.5t49.5 -24t45 -21.5l35 -15l10 -8q13 0 24.5 -8t17 -16t5.5 -11q0 -18 -13 -31.5t-28 -13.5 q-4 0 -8 2q-32 24 -100 58t-105 59q-42 19 -82 51h-8q-14 6 -14 17z" />
<glyph unicode="&#xe1;" horiz-adv-x="1003" d="M102 49q29 109 41 187l4 6q0 28 22.5 125t27.5 131q4 4 4 12l12 74q2 13 17 55t14 63v9l10 45q0 36 16 69q13 95 52.5 272t48.5 224q8 8 8 68l4 6l29 147q0 9 8 25q6 44 15 56.5t30 12.5q24 0 37.5 -20t13.5 -37l14 -66q0 -12 19 -69q5 -19 11 -57.5t11 -57.5l56 -217 q3 -14 12 -66.5t18.5 -85t22.5 -45.5v-10q0 -12 3.5 -31t6.5 -22q2 2 3 -3q0 -2 2 -12q6 -50 20 -77l14 -76q7 -34 21 -59l14 -15q0 -4 2 -16t2 -19l-8 -6q0 -10 2.5 -22t8 -32t12 -39.5t17.5 -55.5t21 -68q0 -1 9.5 -29.5t19.5 -66.5t10 -63v-9q0 -6 8 -14l27 -121 q4 -2 4 -14q0 -41 -31 -41q-21 0 -30 15t-9 30q-22 66 -42.5 160.5t-65.5 246.5v11l-19 78q-5 23 -10 25q-3 1 -22 1q-58 0 -66 -8h-18q-20 0 -41 -2.5t-50 -7t-40 -6.5q-114 0 -170 -11q-20 0 -28 -38t-12.5 -84.5t-15.5 -57.5v-12q0 -8 -6 -31t-10 -27q-3 -53 -25 -158.5 t-45 -105.5q-3 1 -8.5 3.5t-9 4.5t-8 5t-7.5 6t-5.5 7.5t-2.5 10.5zM287 600q41 0 108.5 5t85.5 5q1 0 7 -1t10 -1q8 0 18.5 4t13.5 4h27q34 0 74.5 6.5t40.5 16.5q0 3 -12 50t-23.5 92.5t-9.5 47.5q-20 91 -97 402q-4 4 -4 12l-18 72q-3 10 -11.5 50t-16.5 69.5t-15 33.5 q-2 -2 -8 -28q-3 -15 -27.5 -143t-38.5 -224l-12 -39q-4 -24 -17 -63l-55 -264q-20 -87 -20 -107zM322 1726q0 3 5.5 11t17 16t24.5 8l10 8l35 15q13 7 53.5 26.5t63 31.5t53 32t49.5 39q16 0 31.5 -12.5t15.5 -32.5q0 -11 -14 -17h-9q-36 -29 -82 -51q-1 -1 -34 -19 t-37 -22q-14 -7 -47.5 -27.5t-60.5 -35.5t-36 -15q-14 0 -26 13.5t-12 31.5z" />
<glyph unicode="&#xe2;" horiz-adv-x="1003" d="M102 49q29 109 41 187l4 6q0 28 22.5 125t27.5 131q4 4 4 12l12 74q2 13 17 55t14 63v9l10 45q0 36 16 69q13 95 52.5 272t48.5 224q8 8 8 68l4 6l29 147q0 9 8 25q6 44 15 56.5t30 12.5q24 0 37.5 -20t13.5 -37l14 -66q0 -12 19 -69q5 -19 11 -57.5t11 -57.5l56 -217 q3 -14 12 -66.5t18.5 -85t22.5 -45.5v-10q0 -12 3.5 -31t6.5 -22q2 2 3 -3q0 -2 2 -12q6 -50 20 -77l14 -76q7 -34 21 -59l14 -15q0 -4 2 -16t2 -19l-8 -6q0 -10 2.5 -22t8 -32t12 -39.5t17.5 -55.5t21 -68q0 -1 9.5 -29.5t19.5 -66.5t10 -63v-9q0 -6 8 -14l27 -121 q4 -2 4 -14q0 -41 -31 -41q-21 0 -30 15t-9 30q-22 66 -42.5 160.5t-65.5 246.5v11l-19 78q-5 23 -10 25q-3 1 -22 1q-58 0 -66 -8h-18q-20 0 -41 -2.5t-50 -7t-40 -6.5q-114 0 -170 -11q-20 0 -28 -38t-12.5 -84.5t-15.5 -57.5v-12q0 -8 -6 -31t-10 -27q-3 -53 -25 -158.5 t-45 -105.5q-3 1 -8.5 3.5t-9 4.5t-8 5t-7.5 6t-5.5 7.5t-2.5 10.5zM201 1718q0 10 23 27.5t26 23.5l61 54q22 19 70.5 76t48.5 69v10q1 5 22 11t31 6h11l6 -6q2 -1 7.5 -3.5t7.5 -3.5t4 -3.5t3 -6.5l41 -37q11 -3 20.5 -14.5t30 -40t50.5 -57.5q16 -8 76.5 -61t60.5 -74 q0 -10 -18.5 -20.5t-24.5 -10.5q-23 3 -121 108l-76 82q-10 5 -29 28t-47 42q-5 -5 -16 -21t-20 -22l-97 -109q-10 -21 -47 -55.5t-53 -34.5q-18 0 -34.5 13t-16.5 30zM287 600q41 0 108.5 5t85.5 5q1 0 7 -1t10 -1q8 0 18.5 4t13.5 4h27q34 0 74.5 6.5t40.5 16.5 q0 3 -12 50t-23.5 92.5t-9.5 47.5q-20 91 -97 402q-4 4 -4 12l-18 72q-3 10 -11.5 50t-16.5 69.5t-15 33.5q-2 -2 -8 -28q-3 -15 -27.5 -143t-38.5 -224l-12 -39q-4 -24 -17 -63l-55 -264q-20 -87 -20 -107z" />
<glyph unicode="&#xe3;" horiz-adv-x="1003" d="M102 49q29 109 41 187l4 6q0 28 22.5 125t27.5 131q4 4 4 12l12 74q2 13 17 55t14 63v9l10 45q0 36 16 69q13 95 52.5 272t48.5 224q8 8 8 68l4 6l29 147q0 9 8 25q6 44 15 56.5t30 12.5q24 0 37.5 -20t13.5 -37l14 -66q0 -12 19 -69q5 -19 11 -57.5t11 -57.5l56 -217 q3 -14 12 -66.5t18.5 -85t22.5 -45.5v-10q0 -12 3.5 -31t6.5 -22q2 2 3 -3q0 -2 2 -12q6 -50 20 -77l14 -76q7 -34 21 -59l14 -15q0 -4 2 -16t2 -19l-8 -6q0 -10 2.5 -22t8 -32t12 -39.5t17.5 -55.5t21 -68q0 -1 9.5 -29.5t19.5 -66.5t10 -63v-9q0 -6 8 -14l27 -121 q4 -2 4 -14q0 -41 -31 -41q-21 0 -30 15t-9 30q-22 66 -42.5 160.5t-65.5 246.5v11l-19 78q-5 23 -10 25q-3 1 -22 1q-58 0 -66 -8h-18q-20 0 -41 -2.5t-50 -7t-40 -6.5q-114 0 -170 -11q-20 0 -28 -38t-12.5 -84.5t-15.5 -57.5v-12q0 -8 -6 -31t-10 -27q-3 -53 -25 -158.5 t-45 -105.5q-3 1 -8.5 3.5t-9 4.5t-8 5t-7.5 6t-5.5 7.5t-2.5 10.5zM188 1710q0 3 5 8q-3 6 -3 37q0 19 1.5 28t5 22t6.5 26q13 34 21 48t20 22t14 10q9 3 21.5 7.5t19.5 6.5t18.5 4t24.5 2q14 0 39 -7t31 -13l28 -25q23 -17 49 -46t43.5 -49.5t47 -36t65.5 -15.5 q30 0 62 47.5t32 89.5v14q0 13 3.5 19t15 11.5t16.5 8.5q41 0 41 -37v-10q-1 -3 -5.5 -23.5t-4.5 -23.5v-8l-8 -15q-1 -15 -7 -28.5t-16.5 -29t-15.5 -25.5l-8 -11l-23 -14q-4 0 -30.5 -14.5t-41.5 -14.5q-51 0 -111 31t-89 72q-2 3 -19.5 27.5t-26 33.5t-26 20t-35.5 11 q-80 0 -90 -150v-22q0 -11 -7 -22t-18 -11q-16 0 -30.5 14t-14.5 31zM287 600q41 0 108.5 5t85.5 5q1 0 7 -1t10 -1q8 0 18.5 4t13.5 4h27q34 0 74.5 6.5t40.5 16.5q0 3 -12 50t-23.5 92.5t-9.5 47.5q-20 91 -97 402q-4 4 -4 12l-18 72q-3 10 -11.5 50t-16.5 69.5t-15 33.5 q-2 -2 -8 -28q-3 -15 -27.5 -143t-38.5 -224l-12 -39q-4 -24 -17 -63l-55 -264q-20 -87 -20 -107z" />
<glyph unicode="&#xe4;" horiz-adv-x="1003" d="M102 49q29 109 41 187l4 6q0 28 22.5 125t27.5 131q4 4 4 12l12 74q2 13 17 55t14 63v9l10 45q0 36 16 69q13 95 52.5 272t48.5 224q8 8 8 68l4 6l29 147q0 9 8 25q6 44 15 56.5t30 12.5q24 0 37.5 -20t13.5 -37l14 -66q0 -12 19 -69q5 -19 11 -57.5t11 -57.5l56 -217 q3 -14 12 -66.5t18.5 -85t22.5 -45.5v-10q0 -12 3.5 -31t6.5 -22q2 2 3 -3q0 -2 2 -12q6 -50 20 -77l14 -76q7 -34 21 -59l14 -15q0 -4 2 -16t2 -19l-8 -6q0 -10 2.5 -22t8 -32t12 -39.5t17.5 -55.5t21 -68q0 -1 9.5 -29.5t19.5 -66.5t10 -63v-9q0 -6 8 -14l27 -121 q4 -2 4 -14q0 -41 -31 -41q-21 0 -30 15t-9 30q-22 66 -42.5 160.5t-65.5 246.5v11l-19 78q-5 23 -10 25q-3 1 -22 1q-58 0 -66 -8h-18q-20 0 -41 -2.5t-50 -7t-40 -6.5q-114 0 -170 -11q-20 0 -28 -38t-12.5 -84.5t-15.5 -57.5v-12q0 -8 -6 -31t-10 -27q-3 -53 -25 -158.5 t-45 -105.5q-3 1 -8.5 3.5t-9 4.5t-8 5t-7.5 6t-5.5 7.5t-2.5 10.5zM287 600q41 0 108.5 5t85.5 5q1 0 7 -1t10 -1q8 0 18.5 4t13.5 4h27q34 0 74.5 6.5t40.5 16.5q0 3 -12 50t-23.5 92.5t-9.5 47.5q-20 91 -97 402q-4 4 -4 12l-18 72q-3 10 -11.5 50t-16.5 69.5t-15 33.5 q-2 -2 -8 -28q-3 -15 -27.5 -143t-38.5 -224l-12 -39q-4 -24 -17 -63l-55 -264q-20 -87 -20 -107zM334 1743q0 25 15.5 42t45.5 17h11q40 -5 43 -26l8 -43q4 -12 4 -17q0 -16 -13.5 -28.5t-33.5 -12.5q-6 -2 -19 -2q-28 0 -44.5 21.5t-16.5 48.5zM563 1743q0 25 16 42t46 17 h10q40 -5 43 -26l8 -43q4 -12 4 -17q0 -16 -13.5 -28.5t-33.5 -12.5q-6 -2 -18 -2q-28 0 -45 21.5t-17 48.5z" />
<glyph unicode="&#xe5;" horiz-adv-x="1003" d="M102 49q29 109 41 187l4 6q0 28 22.5 125t27.5 131q4 4 4 12l12 74q2 13 17 55t14 63v9l10 45q0 36 16 69q13 95 52.5 272t48.5 224q8 8 8 68l4 6l29 147q0 9 8 25v16q-68 13 -120 77.5t-52 131.5q0 89 24 121q0 6 12.5 14t12.5 15q85 114 213 114q30 0 54 -9.5t38 -22.5 t26 -35.5t17.5 -39t13 -42t11.5 -37.5l4 -6v-25q-1 -9 -2 -29.5t-2.5 -35.5t-5.5 -19q-3 -8 -14 -35t-15 -35.5t-16.5 -29.5t-24.5 -30.5t-32 -23t-46 -22.5l14 -66q0 -12 19 -69q5 -19 11 -57.5t11 -57.5l56 -217q3 -14 12 -66.5t18.5 -85t22.5 -45.5v-10q0 -12 3.5 -31 t6.5 -22q2 2 3 -3q0 -2 2 -12q6 -50 20 -77l14 -76q7 -34 21 -59l14 -15q0 -4 2 -16t2 -19l-8 -6q0 -10 2.5 -22t8 -32t12 -39.5t17.5 -55.5t21 -68q0 -1 9.5 -29.5t19.5 -66.5t10 -63v-9q0 -6 8 -14l27 -121q4 -2 4 -14q0 -41 -31 -41q-21 0 -30 15t-9 30 q-22 66 -42.5 160.5t-65.5 246.5l-19 89q-5 23 -10 25q-3 1 -22 1q-58 0 -66 -8h-18q-20 0 -41 -2.5t-50 -7t-40 -6.5q-114 0 -170 -11q-20 0 -28 -38t-12.5 -84.5t-15.5 -57.5v-12q0 -8 -6 -31t-10 -27q-3 -53 -25 -158.5t-45 -105.5q-3 1 -8.5 3.5t-9 4.5t-8 5t-7.5 6 t-5.5 7.5t-2.5 10.5zM287 600q41 0 108.5 5t85.5 5q1 0 7 -1t10 -1q8 0 18.5 4t13.5 4h27q34 0 74.5 6.5t40.5 16.5q0 3 -12 50t-23.5 92.5t-9.5 47.5q-20 91 -97 402q-4 4 -4 12l-18 72q-3 10 -11.5 50t-16.5 69.5t-15 33.5q-2 -2 -8 -28q-3 -15 -27.5 -143t-38.5 -224 l-12 -39q-4 -24 -17 -63l-55 -264q-20 -87 -20 -107zM326 1792q0 -56 53 -119l20 -16q3 -3 16 -8t24.5 -8.5t11.5 -4.5q41 0 70.5 26t41.5 62q0 16 12.5 47t12.5 48q0 36 -6 74.5t-24 72t-44 33.5h-12l-58 -25l-12 -6q-106 -78 -106 -176z" />
<glyph unicode="&#xe6;" horiz-adv-x="1394" d="M102 49q7 14 7 19l12 59q2 4 3.5 11t3 12t3.5 6v14q2 10 13 49t16 70q2 14 17.5 45.5t15.5 54.5v17l4 6v10q3 18 14 47.5t14 40.5q9 14 13.5 42.5t13.5 37.5v12l8 25q3 7 9.5 26t11 33.5t4.5 13.5v23q0 5 8 37l22 61v17q8 49 21 57l8 43l8 16l1 9q1 9 4.5 15.5t11.5 6.5 v12q0 1 -1 5q-1 1 -1.5 2.5t-1.5 3.5q4 4 7.5 10t5 9t3.5 3v19q2 6 4 8l2 6q5 16 13 50l3 9v11q4 20 17.5 63t17.5 59l27 68q15 40 37 121v12q0 9 2 22.5t6 35t6 40.5q7 54 21.5 69t52.5 15q3 0 35 -5t41 -5h30q22 0 62 -8l16 4q4 0 10 -2t9 -2q4 0 13.5 1t14.5 1q1 0 3 -1 t3 -1h62q10 4 37 4h147q2 0 20.5 2t20.5 2h8q14 0 29.5 -16t15.5 -29q0 -21 -20 -27h-33q-30 0 -59 5h-148q-18 0 -33 -5l-233 -2l-1 -12q-1 -13 -1 -18q0 -22 2 -66t2 -67v-23l12 -221q0 -2 -0.5 -14.5t-1 -30t-0.5 -31.5q0 -39 5 -110t6 -103q0 -1 -0.5 -11.5t-1 -25.5 t-0.5 -26q0 -64 12 -76h28q2 -2 7 -2q17 0 33 3t22 3q12 0 16 -4h94q2 4 9 4q2 0 14 -2t14 -2q0 1 2 4t2 4h72q2 0 8.5 1t12.5 1q2 0 6.5 -1t7.5 -1q5 0 16.5 5t16.5 5q6 0 10 -4h55l6 4l5 -2q5 -2 10 -2q4 0 10.5 4t11.5 4q1 -2 9 -10t10 -11t6.5 -10t6 -13t1.5 -13 q0 -5 -9 -8.5t-16 -3.5h-157q-17 0 -49 -4t-47 -4q-5 0 -12.5 0.5t-12.5 1t-6 0.5q-12 -4 -72 -4h-98q-28 0 -43 -5v-34q0 -33 16 -230l19 -209q1 -16 2 -37t1.5 -33t2.5 -23.5t5 -17t9 -5.5h51q3 0 29 2t29 2h32q62 0 144 10h39q26 0 34 4h13l14 -4q14 0 52.5 5.5t56.5 6.5 h8q3 0 9 5t7 5q14 0 29.5 -14.5t15.5 -34.5q0 -22 -26 -22h-35q-92 -3 -266.5 -19t-235.5 -20h-16l-6 -4h-31q-25 25 -25 78v32l-4 6q0 27 -4 39v41q0 8 -3 29t-3 33l-4 76q-1 16 -3.5 45.5t-5 59.5t-3.5 38q0 8 1 22t1 15l-5 12q0 60 -8 84v53q-2 2 -10 2q-3 0 -17 -1 t-16 -1h-164q-35 0 -52.5 -8t-22.5 -17.5t-12.5 -35.5t-16.5 -45l-6 -10q-40 -134 -70 -271q0 -13 -10 -34.5t-10 -36.5l-13 -62q-16 -83 -23.5 -98t-41.5 -15q-7 0 -15 9t-8 20zM297 762q0 -2 2 -2l2 2q0 4 -2 4t-2 -4zM348 723q94 -8 144 -8q8 0 24.5 1t24.5 1q2 -2 16 -2 q4 0 6 2h45q0 7 -5 28t-5 35q0 12 1 35t1 35q-1 14 -4.5 56t-3.5 65q0 3 2 10.5t2 11.5q0 6 -4 8v154q-6 25 -6 84q1 4 1.5 14.5t1.5 18.5t3 10l-6 -4q0 3 -2 18t-2 17v59q-4 20 -6 49.5t-5 44.5q-4 -26 -20 -75t-16 -58q-9 -20 -16.5 -38.5t-13.5 -34t-11 -29.5t-8 -25 t-6 -21t-4.5 -17.5t-3 -14t-2 -11.5t-1 -8.5t-0.5 -5.5q0 -6 -0.5 -6.5t-3.5 0.5q0 -12 -8 -39t-11 -30q-10 -29 -34.5 -114.5t-42.5 -139.5q0 -2 -5.5 -12.5t-10.5 -28t-5 -35.5zM362 975q1 -2 3 -2l2 2q0 4 -2 4q-3 0 -3 -4zM375 983q0 -4 2 -4t2 4t-2 4t-2 -4z" />
<glyph unicode="&#xe7;" horiz-adv-x="870" d="M102 750l2 12q2 13 3.5 30.5t1.5 30.5v11q0 27 6 65t6 57v27q8 89 18 129q5 19 14 48.5t15 50.5t6 32v6q5 15 11.5 53t17.5 72.5t30 59.5l6 13q16 39 23 48l31 39q4 6 10.5 18t12.5 21.5t14 15.5q10 10 21 14t16 9l36 10q10 10 76 10q43 0 101 -28q147 -75 147 -263v-16 q0 -7 0.5 -23t0 -25t-1 -23.5t-2.5 -23t-6 -17.5t-10.5 -13t-15.5 -4q-10 0 -24.5 11.5t-14.5 21.5q0 3 1 12t1 10v51t-2 65t-7 57t-18.5 58.5t-33.5 37.5l-37 26l-25 10q0 7 -17.5 13t-27.5 6q-69 0 -110.5 -32t-83.5 -132q-6 -15 -15.5 -49t-18 -60.5t-15.5 -33.5 q-51 -147 -51 -221q-3 -32 -11.5 -96.5t-13 -115.5t-4.5 -96q0 -9 0.5 -28t1 -35t0.5 -17q0 -91 12 -114q0 -1 -1 -6t-1 -9l2 -4l2 -8q0 -4 3.5 -26t4.5 -25q0 -32 38.5 -148.5t70.5 -142.5l70 -70q6 -7 36 -21t31 -15q49 -17 94 -17q49 0 84 32t51.5 80.5t23.5 90.5t7 78 v225q0 4 -3 15t-3 14q0 2 1 7.5t1 6.5l31 29h8q32 0 35 -23v-45q0 -1 2 -15t2 -16q-2 -8 -4 -10v-67q0 -1 2 -11t2 -12t-2 -32t-2 -33v-54q-6 -9 -6 -32v-11l-13 -84q-4 -16 -10 -28l-4 -11q-24 -40 -24 -53l-13 -14q-75 -82 -166 -82h-14q-16 0 -43 4t-33 4l6 -106h62 q242 -11 242 -248q0 -58 -32 -112.5t-77 -69.5q-3 -1 -12.5 -3.5t-14.5 -5.5h-34q-23 0 -49.5 3t-55.5 10t-48 20.5t-19 32.5q0 27 32 27q7 0 19 -12.5t18 -14.5q42 -16 115 -16q19 0 51 20l8 2q6 6 16.5 22t10.5 19l14 27v24q4 6 4 27q0 82 -35 137q-10 13 -40.5 35 t-40.5 22q-1 0 -5 -1t-6 -1q-61 9 -78 9h-30q-1 0 -15.5 -2.5t-15.5 -2.5q-20 0 -31.5 22.5t-11.5 49.5v21q0 3 -1 20.5t-1 26.5v30q0 7 -5.5 12t-15 10t-14.5 9q-3 2 -27.5 17t-45.5 36t-42 56q-49 70 -88 214t-39 216v86q0 10 -2 35t-2 41zM530 -532q0 -3 2 -3l3 3 q0 4 -3 4q-2 0 -2 -4z" />
<glyph unicode="&#xe8;" horiz-adv-x="843" d="M102 1587q0 25 22.5 37t51.5 12q3 -1 15.5 -5t21.5 -5q31 0 33 2q245 0 366 -14q17 6 60 6q22 0 35 -4t21.5 -10.5t12.5 -8.5v-10q0 -35 -26 -35l-244 15q0 -4 -18 -4l-17 2q-3 0 -17.5 -1t-17.5 -1l-34 -2q-8 0 -29 1t-33 1q-10 0 -30 -1t-29 -1h-43q-6 0 -10 -3 t-6.5 -8.5t-4 -10.5t-2 -13.5t-0.5 -12.5v-12v-8q0 -18 2 -34.5t2 -26.5v-58q0 -92 4 -112q0 -13 -2 -76t-2 -74q0 -1 1 -7t1 -7l-1 -19q-1 -19 -1 -30q0 -68 4 -86v-21q0 -7 2 -12t7 -8t10 -4.5t13.5 -2t14 -0.5h17h16.5h162q16 0 43 5.5t43 5.5q7 0 17.5 -2.5t22 -10.5 t11.5 -20q-1 -7 -8.5 -16t-15 -14t-8.5 -5q-15 0 -19 4l-113 -8h-18q-11 0 -35 1t-35 1q-1 0 -9 -1t-9 -1q-27 0 -31 2q-4 -4 -6 -4q-4 -1 -25 -1.5t-38 -3.5t-17 -11q0 -24 2 -71t2 -69q0 -8 -1 -24t-1 -23l13 -348q0 -17 2 -52t2 -54q0 -1 -1 -18.5t-1 -18.5q0 -4 1 -30.5 t1 -29.5v-10q0 -20 77 -20q167 20 302 20l28 -2q8 0 28 2t32 2q2 0 9 -0.5t11 -1t10.5 -2.5t10 -5t6 -8t2.5 -12q0 -43 -25 -43q-8 0 -24 2.5t-25 2.5q-13 0 -37 -1.5t-37 -1.5h-82q-114 -17 -278 -20q-15 0 -23 -4q-55 2 -55 59q0 13 8 15q0 2 -1 14t-1 14q2 10 2 39 q0 14 -1 42.5t-1 29.5q0 2 1 19t1 18q-2 12 -2.5 50.5t-5 61.5t-16.5 23l10 530q0 3 2 10t2 13q-6 60 -6 201q0 86 6 161q-6 29 -6 88q0 34 -7.5 116.5t-11.5 86.5zM242 1868q0 20 15.5 32.5t31.5 12.5q17 -17 36.5 -32t45.5 -29t42.5 -22.5t49.5 -24t45 -21.5l35 -15l10 -8 q13 0 24.5 -8t17 -16t5.5 -11q0 -18 -13 -31.5t-28 -13.5q-4 0 -8 2q-32 24 -100 58t-105 59q-42 19 -82 51h-8q-14 6 -14 17z" />
<glyph unicode="&#xe9;" horiz-adv-x="843" d="M102 1587q0 25 22.5 37t51.5 12q3 -1 15.5 -5t21.5 -5q31 0 33 2q245 0 366 -14q17 6 60 6q22 0 35 -4t21.5 -10.5t12.5 -8.5v-10q0 -35 -26 -35l-244 15q0 -4 -18 -4l-17 2q-3 0 -17.5 -1t-17.5 -1l-34 -2q-8 0 -29 1t-33 1q-10 0 -30 -1t-29 -1h-43q-6 0 -10 -3 t-6.5 -8.5t-4 -10.5t-2 -13.5t-0.5 -12.5v-12v-8q0 -18 2 -34.5t2 -26.5v-58q0 -92 4 -112q0 -13 -2 -76t-2 -74q0 -1 1 -7t1 -7l-1 -19q-1 -19 -1 -30q0 -68 4 -86v-21q0 -7 2 -12t7 -8t10 -4.5t13.5 -2t14 -0.5h17h16.5h162q16 0 43 5.5t43 5.5q7 0 17.5 -2.5t22 -10.5 t11.5 -20q-1 -7 -8.5 -16t-15 -14t-8.5 -5q-15 0 -19 4l-113 -8h-18q-11 0 -35 1t-35 1q-1 0 -9 -1t-9 -1q-27 0 -31 2q-4 -4 -6 -4q-4 -1 -25 -1.5t-38 -3.5t-17 -11q0 -24 2 -71t2 -69q0 -8 -1 -24t-1 -23l13 -348q0 -17 2 -52t2 -54q0 -1 -1 -18.5t-1 -18.5q0 -4 1 -30.5 t1 -29.5v-10q0 -20 77 -20q167 20 302 20l28 -2q8 0 28 2t32 2q2 0 9 -0.5t11 -1t10.5 -2.5t10 -5t6 -8t2.5 -12q0 -43 -25 -43q-8 0 -24 2.5t-25 2.5q-13 0 -37 -1.5t-37 -1.5h-82q-114 -17 -278 -20q-15 0 -23 -4q-55 2 -55 59q0 13 8 15q0 2 -1 14t-1 14q2 10 2 39 q0 14 -1 42.5t-1 29.5q0 2 1 19t1 18q-2 12 -2.5 50.5t-5 61.5t-16.5 23l10 530q0 3 2 10t2 13q-6 60 -6 201q0 86 6 161q-6 29 -6 88q0 34 -7.5 116.5t-11.5 86.5zM242 1726q0 3 5.5 11t17 16t24.5 8l10 8l35 15q13 7 53.5 26.5t63 31.5t53 32t49.5 39q16 0 31.5 -12.5 t15.5 -32.5q0 -11 -14 -17h-8q-36 -29 -82 -51q-1 -1 -34.5 -19t-37.5 -22q-14 -7 -47 -27.5t-60 -35.5t-36 -15q-14 0 -26.5 13.5t-12.5 31.5z" />
<glyph unicode="&#xea;" horiz-adv-x="843" d="M102 1587q0 25 22.5 37t51.5 12q3 -1 15.5 -5t21.5 -5q31 0 33 2q245 0 366 -14q17 6 60 6q22 0 35 -4t21.5 -10.5t12.5 -8.5v-10q0 -35 -26 -35l-244 15q0 -4 -18 -4l-17 2q-3 0 -17.5 -1t-17.5 -1l-34 -2q-8 0 -29 1t-33 1q-10 0 -30 -1t-29 -1h-43q-6 0 -10 -3 t-6.5 -8.5t-4 -10.5t-2 -13.5t-0.5 -12.5v-12v-8q0 -18 2 -34.5t2 -26.5v-58q0 -92 4 -112q0 -13 -2 -76t-2 -74q0 -1 1 -7t1 -7l-1 -19q-1 -19 -1 -30q0 -68 4 -86v-21q0 -7 2 -12t7 -8t10 -4.5t13.5 -2t14 -0.5h17h16.5h162q16 0 43 5.5t43 5.5q7 0 17.5 -2.5t22 -10.5 t11.5 -20q-1 -7 -8.5 -16t-15 -14t-8.5 -5q-15 0 -19 4l-113 -8h-18q-11 0 -35 1t-35 1q-1 0 -9 -1t-9 -1q-27 0 -31 2q-4 -4 -6 -4q-4 -1 -25 -1.5t-38 -3.5t-17 -11q0 -24 2 -71t2 -69q0 -8 -1 -24t-1 -23l13 -348q0 -17 2 -52t2 -54q0 -1 -1 -18.5t-1 -18.5q0 -4 1 -30.5 t1 -29.5v-10q0 -20 77 -20q167 20 302 20l28 -2q8 0 28 2t32 2q2 0 9 -0.5t11 -1t10.5 -2.5t10 -5t6 -8t2.5 -12q0 -43 -25 -43q-8 0 -24 2.5t-25 2.5q-13 0 -37 -1.5t-37 -1.5h-82q-114 -17 -278 -20q-15 0 -23 -4q-55 2 -55 59q0 13 8 15q0 2 -1 14t-1 14q2 10 2 39 q0 14 -1 42.5t-1 29.5q0 2 1 19t1 18q-2 12 -2.5 50.5t-5 61.5t-16.5 23l10 530q0 3 2 10t2 13q-6 60 -6 201q0 86 6 161q-6 29 -6 88q0 34 -7.5 116.5t-11.5 86.5zM121 1718q0 10 23 27.5t26 23.5l61 54q22 19 70.5 76t48.5 69v10q1 5 22 11t31 6h11l6 -6q2 -1 7.5 -3.5 t7.5 -3.5t4 -3.5t3 -6.5l41 -37q11 -3 20.5 -14.5t30 -40t50.5 -57.5q16 -8 76.5 -61t60.5 -74q0 -10 -18.5 -20.5t-24.5 -10.5q-23 3 -121 108l-76 82q-9 5 -28 28t-47 42q-5 -5 -16.5 -21t-20.5 -22l-97 -109q-10 -21 -47 -55.5t-53 -34.5q-18 0 -34.5 13t-16.5 30z" />
<glyph unicode="&#xeb;" horiz-adv-x="843" d="M102 1587q0 25 22.5 37t51.5 12q3 -1 15.5 -5t21.5 -5q31 0 33 2q245 0 366 -14q17 6 60 6q22 0 35 -4t21.5 -10.5t12.5 -8.5v-10q0 -35 -26 -35l-244 15q0 -4 -18 -4l-17 2q-3 0 -17.5 -1t-17.5 -1l-34 -2q-8 0 -29 1t-33 1q-10 0 -30 -1t-29 -1h-43q-6 0 -10 -3 t-6.5 -8.5t-4 -10.5t-2 -13.5t-0.5 -12.5v-12v-8q0 -18 2 -34.5t2 -26.5v-58q0 -92 4 -112q0 -13 -2 -76t-2 -74q0 -1 1 -7t1 -7l-1 -19q-1 -19 -1 -30q0 -68 4 -86v-21q0 -7 2 -12t7 -8t10 -4.5t13.5 -2t14 -0.5h17h16.5h162q16 0 43 5.5t43 5.5q7 0 17.5 -2.5t22 -10.5 t11.5 -20q-1 -7 -8.5 -16t-15 -14t-8.5 -5q-15 0 -19 4l-113 -8h-18q-11 0 -35 1t-35 1q-1 0 -9 -1t-9 -1q-27 0 -31 2q-4 -4 -6 -4q-4 -1 -25 -1.5t-38 -3.5t-17 -11q0 -24 2 -71t2 -69q0 -8 -1 -24t-1 -23l13 -348q0 -17 2 -52t2 -54q0 -1 -1 -18.5t-1 -18.5q0 -4 1 -30.5 t1 -29.5v-10q0 -20 77 -20q167 20 302 20l28 -2q8 0 28 2t32 2q2 0 9 -0.5t11 -1t10.5 -2.5t10 -5t6 -8t2.5 -12q0 -43 -25 -43q-8 0 -24 2.5t-25 2.5q-13 0 -37 -1.5t-37 -1.5h-82q-114 -17 -278 -20q-15 0 -23 -4q-55 2 -55 59q0 13 8 15q0 2 -1 14t-1 14q2 10 2 39 q0 14 -1 42.5t-1 29.5q0 2 1 19t1 18q-2 12 -2.5 50.5t-5 61.5t-16.5 23l10 530q0 3 2 10t2 13q-6 60 -6 201q0 86 6 161q-6 29 -6 88q0 34 -7.5 116.5t-11.5 86.5zM254 1743q0 25 15.5 42t45.5 17h11q40 -5 43 -26l8 -43q4 -12 4 -17q0 -16 -13.5 -28.5t-33.5 -12.5 q-6 -2 -19 -2q-28 0 -44.5 21.5t-16.5 48.5zM483 1743q0 25 16 42t46 17h10q40 -5 43 -26l8 -43q4 -12 4 -17q0 -16 -13.5 -28.5t-33.5 -12.5q-6 -2 -18 -2q-28 0 -45 21.5t-17 48.5z" />
<glyph unicode="&#xec;" horiz-adv-x="305" d="M-27 1868q0 20 15.5 32.5t31.5 12.5q21 -21 52.5 -41.5t48 -29.5t65 -32t54.5 -26l34 -15l11 -8q13 0 24.5 -8t17 -16t5.5 -11q0 -18 -13 -31.5t-28 -13.5q-4 0 -8 2q-32 24 -100 58t-105 59q-42 19 -82 51h-8q-15 6 -15 17zM102 1616q0 9 18.5 15.5t31.5 6.5 q28 0 28 -39q0 -19 -3 -56t-3 -60v-101q0 -91 9.5 -272t9.5 -272q0 -8 -5 -13v-61q0 -32 3.5 -95t3.5 -94l2 -219q6 -31 6 -129v-114q-2 -2 -2 -19v-61q-3 -11 -17.5 -20t-25.5 -9q-17 0 -25 19v36q0 37 2 106t2 103v13q0 60 -6 114v17q-3 91 -5.5 307t-6.5 332l-6 155 q-1 9 -4 37.5t-3 44.5v168q0 6 -2 76.5t-2 83.5z" />
<glyph unicode="&#xed;" horiz-adv-x="305" d="M-27 1726q0 3 5.5 11t17 16t24.5 8l11 8l35 15q13 7 53.5 26.5t63 31.5t53 32t49.5 39q16 0 31.5 -12.5t15.5 -32.5q0 -11 -15 -17h-8q-36 -29 -82 -51q-1 -1 -34 -19t-37 -22q-14 -7 -47.5 -27.5t-60.5 -35.5t-36 -15q-14 0 -26.5 13.5t-12.5 31.5zM102 1616 q0 9 18.5 15.5t31.5 6.5q28 0 28 -39q0 -19 -3 -56t-3 -60v-101q0 -91 9.5 -272t9.5 -272q0 -8 -5 -13v-61q0 -32 3.5 -95t3.5 -94l2 -219q6 -31 6 -129v-114q-2 -2 -2 -19v-61q-3 -11 -17.5 -20t-25.5 -9q-17 0 -25 19v36q0 37 2 106t2 103v13q0 60 -6 114v17 q-3 91 -5.5 307t-6.5 332l-6 155q-1 9 -4 37.5t-3 44.5v168q0 6 -2 76.5t-2 83.5z" />
<glyph unicode="&#xee;" horiz-adv-x="305" d="M-147 1718q0 10 23 27.5t26 23.5l61 54q22 19 70.5 76t48.5 69v10q1 5 22 11t31 6h10l7 -6q2 -1 7.5 -3.5t7.5 -3.5t4 -3.5t3 -6.5l41 -37q11 -3 20 -15t29.5 -40t50.5 -57q16 -8 77 -61t61 -74q0 -10 -18.5 -20.5t-24.5 -10.5q-23 3 -121 108l-76 82q-10 5 -29 28 t-47 42q-5 -5 -16.5 -21t-20.5 -22l-96 -109q-10 -21 -47 -55.5t-53 -34.5q-18 0 -34.5 13t-16.5 30zM102 1616q0 9 18.5 15.5t31.5 6.5q28 0 28 -39q0 -19 -3 -56t-3 -60v-101q0 -91 9.5 -272t9.5 -272q0 -8 -5 -13v-61q0 -32 3.5 -95t3.5 -94l2 -219q6 -31 6 -129v-114 q-2 -2 -2 -19v-61q-3 -11 -17.5 -20t-25.5 -9q-17 0 -25 19v36q0 37 2 106t2 103v13q0 60 -6 114v17q-3 91 -5.5 307t-6.5 332l-6 155q-1 9 -4 37.5t-3 44.5v168q0 6 -2 76.5t-2 83.5z" />
<glyph unicode="&#xef;" horiz-adv-x="305" d="M-14 1743q0 25 15.5 42t45.5 17h10q40 -5 43 -26l9 -43q4 -12 4 -17q0 -16 -13.5 -28.5t-33.5 -12.5q-6 -2 -19 -2q-28 0 -44.5 21.5t-16.5 48.5zM102 1616q0 9 18.5 15.5t31.5 6.5q28 0 28 -39q0 -19 -3 -56t-3 -60v-101q0 -91 9.5 -272t9.5 -272q0 -8 -5 -13v-61 q0 -32 3.5 -95t3.5 -94l2 -219q6 -31 6 -129v-114q-2 -2 -2 -19v-61q-3 -11 -17.5 -20t-25.5 -9q-17 0 -25 19v36q0 37 2 106t2 103v13q0 60 -6 114v17q-3 91 -5.5 307t-6.5 332l-6 155q-1 9 -4 37.5t-3 44.5v168q0 6 -2 76.5t-2 83.5zM215 1743q0 25 15.5 42t45.5 17h11 q40 -5 43 -26l8 -43q4 -12 4 -17q0 -16 -13.5 -28.5t-33.5 -12.5q-6 -2 -19 -2q-28 0 -44.5 21.5t-16.5 48.5z" />
<glyph unicode="&#xf1;" d="M100.5 1580.5q-0.5 8.5 1.5 21t7 19.5t14.5 12t23.5 5q19 0 30.5 -15t20.5 -48.5t11 -38.5l27 -70l16 -32l59 -148q23 -46 23 -65l22 -50q0 -20 35 -87.5t35 -79.5l12 -43q14 -36 46 -101.5t42 -87.5l31 -72q123 -252 150 -301q0 -8 10 -21t10 -20l23 -45q2 -6 8 -20 t11 -25.5t11 -23.5t11 -19t8 -6q0 46 -4 128.5t-4 90.5v37q0 24 3 85.5t3 70.5v51q0 23 3.5 93t6.5 89v19l2 22l-1 9q-1 9 -1 14q0 22 5 68t5 65v47q0 47 6 137.5t6 118.5q0 8 -2 12l19 211q0 5 -2 14.5t-2 14.5q7 22 39 22q34 0 34 -30q0 -3 -2 -9.5t-4.5 -14.5t-3.5 -11 q0 -1 1 -8t1 -9v-2l-2 -14q-14 -69 -14 -145q0 -6 1 -18.5t1 -18.5q0 -7 -3 -18t-3 -17l-2 -37q-2 -4 -2 -6q0 -4 1 -11l1 -7q-8 -82 -8 -127q0 -7 1 -22.5t1 -22.5q-15 -96 -15 -244q-12 -68 -12 -154q0 -5 1 -10l1 -6l2 -62q0 -2 -2 -17t-2 -17l10 -379q0 -5 1 -31t1 -31 l4 -102l-4 -6l-28 -17q-13 2 -29 13l-31 73q1 17 -8 38t-26 49.5t-23 41.5l-27 58q-50 101 -86 168q-6 16 -6 18l-20 41q7 0 -11.5 28t-42.5 71t-24 69q-9 21 -62 129.5t-75 179.5l-3 15q3 0 -4 9.5t-16.5 27.5t-9.5 34q-34 48 -56 127l-45 115q1 5 -6.5 14t-7.5 15l-24 61 q-3 9 -10.5 21t-10.5 12l14 -357q-2 -6 -2 -12v-12q-2 -6 -2 -55l2 -64q0 -116 -6 -158q0 -4 2 -62t2 -79v-84q1 -20 11 -124t10 -154l6 -201q6 -27 6 -43q0 -13 -11 -25t-24 -12q-5 0 -15.5 5t-10.5 9l-7 238q-8 8 -12 81t-4 128l4 6q0 6 -4 10l-6 250q0 10 -1 45.5 t-1.5 58.5t0.5 37q0 4 1 47.5t1 47.5l2 180q-3 43 -7 129t-7 129q-1 4 -5 27t-4 26v43q0 7 -1 20.5t-1 20.5q0 6 -0.5 20t-1 22.5zM195 1710q0 4 4 8q-2 4 -2 37q0 19 1 27.5t4.5 22.5l6.5 26q13 34 21 48t20 22t14 10q9 3 21.5 7.5t19.5 6.5t18.5 4t24.5 2q14 0 39 -7 t31 -13l28 -25q23 -17 49 -46t43.5 -49.5t47 -36t65.5 -15.5q30 0 62 47.5t32 89.5v14q0 13 3.5 19t15 11.5t16.5 8.5q41 0 41 -37v-10q-1 -3 -5.5 -23.5t-4.5 -23.5v-8l-8 -15q-1 -15 -7 -28.5t-16.5 -29t-15.5 -25.5l-8 -11l-23 -14q-4 0 -30 -14.5t-41 -14.5 q-51 0 -111.5 31t-89.5 72q-2 3 -19.5 27.5t-26 33.5t-26 20t-35.5 11q-80 0 -90 -150v-22q0 -11 -6.5 -22t-17.5 -11q-16 0 -30.5 14t-14.5 31z" />
<glyph unicode="&#xf2;" horiz-adv-x="1257" d="M100 807q2 6 2 22q0 1 -1 8t-1 17v20q0 11 4.5 37t4.5 39q-3 6 -3 17q0 13 6.5 33t6.5 32q0 26 12.5 88t32.5 94l10 19q0 1 1 3t1 3q33 108 90 184l6 4l43 60q19 28 50 49l14 14q5 5 25.5 20.5t58 34.5t63.5 19q68 21 121 21q0 -3 8 -3h13q5 0 33 -3t34 -3l78 -24 q20 -13 43 -25.5t36 -22t28 -26.5l16 -18q8 -8 8 -15l8 -6q0 -6 4 -10l27 -43q2 -9 12 -25l11 -10q4 -4 4 -10l43 -72q4 -7 8 -29l14 -34l29 -107v-22q0 3 11 -37.5t15 -55.5q0 -10 11.5 -78.5t11.5 -93.5q0 -21 -9 -88t-9 -122v2q-1 0 -3 -9t-5.5 -22.5t-4.5 -18.5l-14 -55 q0 -38 -14 -92v-8q-12 -22 -15 -45l-20 -49q-8 -19 -10 -31q-5 -22 -19 -48t-32.5 -56t-24.5 -40l-64 -71l-10 -6q-37 -23 -47 -33l-16 -10q-2 -1 -11.5 -9t-20 -14t-18.5 -6q-6 0 -30.5 -11t-64 -22.5t-81.5 -11.5q-16 4 -30 4h-27q-1 0 -2 -1t-2 -1l-3 2q-2 3 -7 5.5 t-11 2.5h-4l-10 4h-10q-58 20 -112 55t-83 72l-28 35q-11 11 -17 21q-109 210 -143 417q-3 4 -3.5 14.5t-2.5 16.5l-13 129q2 4 2 8q0 1 -2 5.5t-2 21.5zM172 823q0 -4 1 -10l1 -6v-33q0 -59 8 -106q27 -173 76 -301q6 -6 6 -13l21 -41q0 -12 11.5 -33.5t23.5 -38.5t12 -18 l24 -28q1 -1 3 -3.5t3.5 -4t2.5 -1.5l26 -30q8 -4 55 -37l19 -15q64 -47 160 -47q63 0 105 18t104 62l8 4q6 5 22.5 25t30.5 35.5t18 15.5l9 14q87 138 112 301l6 39l19 72q-2 4 -2 6q0 7 5 29.5t5 28.5q0 1 -1 3.5t-1 4.5v8q0 2 -1 6.5t-1 5.5l1 9q2 10 4 24.5t4 31t3.5 33 t1.5 27.5q0 26 -6 81t-6 81l-10 22l-11 43q-19 74 -28 97l-15 51q-16 50 -16 59l-14 33q-1 0 -3.5 2.5t-2.5 3.5l-64 97q-12 12 -40 50t-56 52l-21 16l-10 4l-41 15q-2 0 -53 9t-72 9q-8 -4 -20 -4l-66 -22q-34 -10 -43 -17l-28 -24q-17 -17 -27 -23l-43 -39l-78 -100 l-10 -19q0 -1 -37 -75l-14 -35q-22 -54 -23 -70l-31 -113q-5 -18 -8.5 -48t-5.5 -42v-92q0 -4 -1 -13.5t-1 -14.5v-11zM449 1868q0 20 15.5 32.5t31.5 12.5q17 -17 36.5 -32t45.5 -29t42.5 -22.5t49.5 -24t45 -21.5l35 -15l10 -8q13 0 24.5 -8t17 -16t5.5 -11 q0 -18 -13 -31.5t-28 -13.5q-4 0 -8 2q-32 24 -100 58t-105 59q-42 19 -82 51h-8q-14 6 -14 17z" />
<glyph unicode="&#xf3;" horiz-adv-x="1257" d="M100 807q2 6 2 22q0 1 -1 8t-1 17v20q0 11 4.5 37t4.5 39q-3 6 -3 17q0 13 6.5 33t6.5 32q0 26 12.5 88t32.5 94l10 19q0 1 1 3t1 3q33 108 90 184l6 4l43 60q19 28 50 49l14 14q5 5 25.5 20.5t58 34.5t63.5 19q68 21 121 21q0 -3 8 -3h13q5 0 33 -3t34 -3l78 -24 q20 -13 43 -25.5t36 -22t28 -26.5l16 -18q8 -8 8 -15l8 -6q0 -6 4 -10l27 -43q2 -9 12 -25l11 -10q4 -4 4 -10l43 -72q4 -7 8 -29l14 -34l29 -107v-22q0 3 11 -37.5t15 -55.5q0 -10 11.5 -78.5t11.5 -93.5q0 -21 -9 -88t-9 -120q-1 0 -3 -9t-5.5 -22.5t-4.5 -18.5l-14 -55 q0 -38 -14 -92v-8q-12 -22 -15 -45l-20 -49q-8 -19 -10 -31q-5 -22 -19 -48t-32.5 -56t-24.5 -40l-64 -71l-10 -6q-37 -23 -47 -33l-16 -10q-2 -1 -11.5 -9t-20 -14t-18.5 -6q-6 0 -30.5 -11t-64 -22.5t-81.5 -11.5q-16 4 -30 4h-27q-1 0 -2 -1t-2 -1l-3 2q-2 3 -7 5.5 t-11 2.5h-4l-10 4h-10q-58 20 -112 55t-83 72l-28 35q-11 11 -17 21q-109 210 -143 417q-3 4 -3.5 14.5t-2.5 16.5l-13 129q2 4 2 8q0 1 -2 5.5t-2 21.5zM172 823q0 -4 1 -10l1 -6v-33q0 -59 8 -106q27 -173 76 -301q6 -6 6 -13l21 -41q0 -12 11.5 -33.5t23.5 -38.5t12 -18 l24 -28q1 -1 3 -3.5t3.5 -4t2.5 -1.5l26 -30q8 -4 55 -37l19 -15q64 -47 160 -47q63 0 105 18t104 62l8 4q6 5 22.5 25t30.5 35.5t18 15.5l9 14q87 138 112 301l6 39l19 72q-2 4 -2 6q0 7 5 29.5t5 28.5q0 1 -1 3.5t-1 4.5v8q0 2 -1 6.5t-1 5.5l1 9q2 10 4 24.5t4 31t3.5 33 t1.5 27.5q0 26 -6 81t-6 81l-10 22l-11 43q-19 74 -28 97l-15 51q-16 50 -16 59l-14 33q-1 0 -3.5 2.5t-2.5 3.5l-64 97q-12 12 -40 50t-56 52l-21 16l-10 4l-41 15q-2 0 -53 9t-72 9q-8 -4 -20 -4l-66 -22q-34 -10 -43 -17l-28 -24q-17 -17 -27 -23l-43 -39l-78 -100 l-10 -19q0 -1 -37 -75l-14 -35q-22 -54 -23 -70l-31 -113q-5 -18 -8.5 -48t-5.5 -42v-92q0 -4 -1 -13.5t-1 -14.5v-11zM449 1726q0 3 5.5 11t17 16t24.5 8l10 8l35 15q13 7 53.5 26.5t63 31.5t53 32t49.5 39q16 0 31.5 -12.5t15.5 -32.5q0 -11 -14 -17h-9q-36 -29 -82 -51 q-1 -1 -34 -19t-37 -22q-14 -7 -47.5 -27.5t-60.5 -35.5t-36 -15q-14 0 -26 13.5t-12 31.5z" />
<glyph unicode="&#xf4;" horiz-adv-x="1257" d="M100 807q2 6 2 22q0 1 -1 8t-1 17v20q0 11 4.5 37t4.5 39q-3 6 -3 17q0 13 6.5 33t6.5 32q0 26 12.5 88t32.5 94l10 19q0 1 1 3t1 3q33 108 90 184l6 4l43 60q19 28 50 49l14 14q5 5 25.5 20.5t58 34.5t63.5 19q68 21 121 21q0 -3 8 -3h13q5 0 33 -3t34 -3l78 -24 q20 -13 43 -25.5t36 -22t28 -26.5l16 -18q8 -8 8 -15l8 -6q0 -6 4 -10l27 -43q2 -9 12 -25l11 -10q4 -4 4 -10l43 -72q4 -7 8 -29l14 -34l29 -107v-22q0 3 11 -37.5t15 -55.5q0 -10 11.5 -78.5t11.5 -93.5q0 -59 -8 -75q-7 -27 -9.5 -44t-2.5 -27.5t-2.5 -40t-8.5 -71.5 l-14 -55q0 -38 -14 -92v-8q-12 -22 -15 -45l-20 -49q-8 -19 -10 -31q-5 -22 -19 -48t-32.5 -56t-24.5 -40l-64 -71l-10 -6q-37 -23 -47 -33l-16 -10q-2 -1 -11.5 -9t-20 -14t-18.5 -6q-6 0 -30.5 -11t-64 -22.5t-81.5 -11.5q-16 4 -30 4h-27q-1 0 -2 -1t-2 -1l-3 2 q-2 3 -7 5.5t-11 2.5h-4l-10 4h-10q-58 20 -112 55t-83 72l-28 35q-11 11 -17 21q-109 210 -143 417q-3 4 -3.5 14.5t-2.5 16.5l-13 129q2 4 2 8q0 1 -2 5.5t-2 21.5zM172 823q0 -4 1 -10l1 -6v-33q0 -59 8 -106q27 -173 76 -301q6 -6 6 -13l21 -41q0 -12 11.5 -33.5 t23.5 -38.5t12 -18l24 -28q1 -1 3 -3.5t3.5 -4t2.5 -1.5l26 -30q8 -4 55 -37l19 -15q64 -47 160 -47q63 0 105 18t104 62l8 4q6 5 22.5 25t30.5 35.5t18 15.5l9 14q87 138 112 301l6 39l19 72q-2 4 -2 6q0 7 5 29.5t5 28.5q0 1 -1 3.5t-1 4.5v8q0 2 -1 6.5t-1 5.5l1 9 q2 10 4 24.5t4 31t3.5 33t1.5 27.5q0 26 -6 81t-6 81l-10 22l-11 43q-19 74 -28 97l-15 51q-16 50 -16 59l-14 33q-1 0 -3.5 2.5t-2.5 3.5l-64 97q-12 12 -40 50t-56 52l-21 16l-10 4l-41 15q-2 0 -53 9t-72 9q-8 -4 -20 -4l-66 -22q-34 -10 -43 -17l-28 -24 q-17 -17 -27 -23l-43 -39l-78 -100l-10 -19q0 -1 -37 -75l-14 -35q-22 -54 -23 -70l-31 -113q-5 -18 -8.5 -48t-5.5 -42v-92q0 -4 -1 -13.5t-1 -14.5v-11zM328 1718q0 10 23 27.5t26 23.5l61 54q22 19 70.5 76t48.5 69v10q1 5 22 11t31 6h11l6 -6q2 -1 7.5 -3.5t7.5 -3.5 t4 -3.5t3 -6.5l41 -37q11 -3 20.5 -14.5t30 -40t50.5 -57.5q16 -8 76.5 -61t60.5 -74q0 -10 -18.5 -20.5t-24.5 -10.5q-23 3 -121 108l-76 82q-10 5 -29 28t-47 42q-5 -5 -16.5 -21t-20.5 -22l-96 -109q-10 -21 -47 -55.5t-53 -34.5q-18 0 -34.5 13t-16.5 30z" />
<glyph unicode="&#xf5;" horiz-adv-x="1257" d="M100 807q2 6 2 22q0 1 -1 8t-1 17v20q0 11 4.5 37t4.5 39q-3 6 -3 17q0 13 6.5 33t6.5 32q0 26 12.5 88t32.5 94l10 19q0 1 1 3t1 3q33 108 90 184l6 4l43 60q19 28 50 49l14 14q5 5 25.5 20.5t58 34.5t63.5 19q68 21 121 21q0 -3 8 -3h13q5 0 33 -3t34 -3l78 -24 q20 -13 43 -25.5t36 -22t28 -26.5l16 -18q8 -8 8 -15l8 -6q0 -6 4 -10l27 -43q2 -9 12 -25l11 -10q4 -4 4 -10l43 -72q4 -7 8 -29l14 -34l29 -107v-22q0 3 11 -37.5t15 -55.5q0 -10 11.5 -78.5t11.5 -93.5q0 -59 -8 -75q-7 -27 -9.5 -44t-2.5 -27.5t-2.5 -40t-8.5 -71.5 l-14 -55q0 -38 -14 -92v-8q-12 -22 -15 -45l-20 -49q-8 -19 -10 -31q-5 -22 -19 -48t-32.5 -56t-24.5 -40l-64 -71l-10 -6q-37 -23 -47 -33l-16 -10q-2 -1 -11.5 -9t-20 -14t-18.5 -6q-6 0 -30.5 -11t-64 -22.5t-81.5 -11.5q-16 4 -30 4h-27q-1 0 -2 -1t-2 -1l-3 2 q-2 3 -7 5.5t-11 2.5h-4l-10 4h-10q-58 20 -112 55t-83 72l-28 35q-11 11 -17 21q-109 210 -143 417q-3 4 -3.5 14.5t-2.5 16.5l-13 129q2 4 2 8q0 1 -2 5.5t-2 21.5zM172 823q0 -4 1 -10l1 -6v-33q0 -59 8 -106q27 -173 76 -301q6 -6 6 -13l21 -41q0 -12 11.5 -33.5 t23.5 -38.5t12 -18l24 -28q1 -1 3 -3.5t3.5 -4t2.5 -1.5l26 -30q8 -4 55 -37l19 -15q64 -47 160 -47q63 0 105 18t104 62l8 4q6 5 22.5 25t30.5 35.5t18 15.5l9 14q87 138 112 301l6 39l19 72q-2 4 -2 6q0 7 5 29.5t5 28.5q0 1 -1 3.5t-1 4.5v8q0 2 -1 6.5t-1 5.5l1 9 q2 10 4 24.5t4 31t3.5 33t1.5 27.5q0 26 -6 81t-6 81l-10 22l-11 43q-19 74 -28 97l-15 51q-16 50 -16 59l-14 33q-1 0 -3.5 2.5t-2.5 3.5l-64 97q-12 12 -40 50t-56 52l-21 16l-10 4l-41 15q-2 0 -53 9t-72 9q-8 -4 -20 -4l-66 -22q-34 -10 -43 -17l-28 -24 q-17 -17 -27 -23l-43 -39l-78 -100l-10 -19q0 -1 -37 -75l-14 -35q-22 -54 -23 -70l-31 -113q-5 -18 -8.5 -48t-5.5 -42v-92q0 -4 -1 -13.5t-1 -14.5v-11zM315 1710q0 4 4 8q-2 4 -2 37q0 19 1.5 28t5 22t6.5 26q13 34 21 48t20 22t14 10q9 3 21.5 7.5t19.5 6.5t18.5 4 t24.5 2q14 0 39 -7t31 -13l28 -25q23 -17 49 -46t43.5 -49.5t47 -36t65.5 -15.5q30 0 62 47.5t32 89.5v14q0 13 3.5 19t15 11.5t16.5 8.5q41 0 41 -37v-10q-1 -3 -5.5 -23.5t-4.5 -23.5v-8l-8 -15q-1 -15 -7 -28.5t-16.5 -29t-15.5 -25.5l-8 -11l-23 -14q-4 0 -30.5 -14.5 t-41.5 -14.5q-51 0 -111 31t-89 72q-2 3 -19.5 27.5t-26 33.5t-26 20t-35.5 11q-80 0 -90 -150v-22q0 -11 -7 -22t-18 -11q-16 0 -30.5 14t-14.5 31z" />
<glyph unicode="&#xf6;" horiz-adv-x="1257" d="M100 807q2 6 2 22q0 1 -1 8t-1 17v20q0 11 4.5 37t4.5 39q-3 6 -3 17q0 13 6.5 33t6.5 32q0 26 12.5 88t32.5 94l10 19q0 1 1 3t1 3q33 108 90 184l6 4l43 60q19 28 50 49l14 14q5 5 25.5 20.5t58 34.5t63.5 19q68 21 121 21q0 -3 8 -3h13q5 0 33 -3t34 -3l78 -24 q20 -13 43 -25.5t36 -22t28 -26.5l16 -18q8 -8 8 -15l8 -6q0 -6 4 -10l27 -43q2 -9 12 -25l11 -10q4 -4 4 -10l43 -72q4 -7 8 -29l14 -34l29 -107v-22q0 3 11 -37.5t15 -55.5q0 -10 11.5 -78.5t11.5 -93.5q0 -59 -8 -75q-7 -27 -9.5 -44t-2.5 -27.5t-2.5 -40t-8.5 -71.5 l-14 -55q0 -38 -14 -92v-8q-12 -22 -15 -45l-20 -49q-8 -19 -10 -31q-5 -22 -19 -48t-32.5 -56t-24.5 -40l-64 -71l-10 -6q-37 -23 -47 -33l-16 -10q-2 -1 -11.5 -9t-20 -14t-18.5 -6q-6 0 -30.5 -11t-64 -22.5t-81.5 -11.5q-16 4 -30 4h-27q-1 0 -2 -1t-2 -1l-3 2 q-2 3 -7 5.5t-11 2.5h-4l-10 4h-10q-58 20 -112 55t-83 72l-28 35q-11 11 -17 21q-109 210 -143 417q-3 4 -3.5 14.5t-2.5 16.5l-13 129q2 4 2 8q0 1 -2 5.5t-2 21.5zM172 823q0 -4 1 -10l1 -6v-33q0 -59 8 -106q27 -173 76 -301q6 -6 6 -13l21 -41q0 -12 11.5 -33.5 t23.5 -38.5t12 -18l24 -28q1 -1 3 -3.5t3.5 -4t2.5 -1.5l26 -30q8 -4 55 -37l19 -15q64 -47 160 -47q63 0 105 18t104 62l8 4q6 5 22.5 25t30.5 35.5t18 15.5l9 14q87 138 112 301l6 39l19 72q-2 4 -2 6q0 7 5 29.5t5 28.5q0 1 -1 3.5t-1 4.5v8q0 2 -1 6.5t-1 5.5l1 9 q2 10 4 24.5t4 31t3.5 33t1.5 27.5q0 26 -6 81t-6 81l-10 22l-11 43q-19 74 -28 97l-15 51q-16 50 -16 59l-14 33q-1 0 -3.5 2.5t-2.5 3.5l-64 97q-12 12 -40 50t-56 52l-21 16l-10 4l-41 15q-2 0 -53 9t-72 9q-8 -4 -20 -4l-66 -22q-34 -10 -43 -17l-28 -24 q-17 -17 -27 -23l-43 -39l-78 -100l-10 -19q0 -1 -37 -75l-14 -35q-22 -54 -23 -70l-31 -113q-5 -18 -8.5 -48t-5.5 -42v-92q0 -4 -1 -13.5t-1 -14.5v-11zM461 1743q0 25 15.5 42t45.5 17h10q40 -5 43 -26l9 -43q4 -12 4 -17q0 -16 -13.5 -28.5t-33.5 -12.5q-6 -2 -19 -2 q-28 0 -44.5 21.5t-16.5 48.5zM690 1743q0 25 16 42t46 17h10q40 -5 43 -26l8 -43q4 -12 4 -17q0 -16 -13.5 -28.5t-33.5 -12.5q-6 -2 -18 -2q-28 0 -45 21.5t-17 48.5z" />
<glyph unicode="&#xf8;" horiz-adv-x="1257" d="M102 803l1 11q1 11 1 17q-2 32 -2 46t4 40t5 35q-2 0 -2 17q0 89 67 266l2 6q13 44 45 116.5t51 72.5l43 59q51 69 123 104q19 13 47.5 23t38.5 10q73 21 111 21h14l4 -2h9q-1 0 14.5 -1.5t34 -3.5t24.5 -2q207 -69 207 -131l8 -6q0 -6 6 -12l11 -12q5 -8 14 -27t14 -27 q2 0 12.5 -14.5t23.5 -36.5t20 -39q3 -9 10 -30.5t12 -34.5l31 -107v-22l4 -11q22 -71 31 -137q3 -27 7 -50t5.5 -36t1.5 -28q0 -41 -8.5 -115.5t-9.5 -99.5q-3 -15 -13.5 -49t-13.5 -54q-9 -71 -14 -92v-8q-11 -20 -17 -45l-20 -49q-50 -117 -84 -172l-66 -74 q-33 -22 -39 -27q-3 0 -34 -25.5t-48 -25.5q-105 -45 -176 -45q-6 2 -16 2.5t-14 1.5h-25q-1 0 -3 -1t-3 -1q-2 0 -10 8q-10 -10 -19 -10q-36 0 -39 24q-287 117 -360 594q-3 4 -4 8.5t-1 11t-1 9.5l-13 131q2 4 2 8q0 2 -2 9t-2 12zM170 836q0 -1 1 -13t1 -14v-33 q0 -188 86 -411q4 0 4 -11l21 -41q0 -4 17 -36t22 -37q0 -13 40 -58l29 -30q16 -7 55.5 -37t47.5 -33q4 12 4.5 43t9.5 47l20 129q2 8 2 23l27 182q11 90 25 147l22 166q6 30 13 107.5t20 115.5v5q0 9 4 29t4 30v14q0 3 6 27l4 74q9 24 9 26v6q0 47 5.5 102t14.5 120.5 t12 99.5v8q-54 8 -86 8l-52 -13q-52 -14 -81 -30q-10 -7 -27.5 -23.5t-27.5 -23.5l-21 -16q-4 -3 -11.5 -12t-10.5 -11l-78 -102q-6 -21 -20 -35q-49 -80 -64 -166q-5 -24 -17 -66.5t-20 -79t-8 -71.5v-39q0 -13 -1 -34t-1 -33zM551 59q46 -8 67 -8q67 0 113.5 19.5 t106.5 62.5l8 4q13 12 36.5 39t35.5 39q97 181 126 356q2 7 9.5 33.5t9.5 40.5v4q0 24 8 60q0 4 -2 11t-2 11q0 3 3 12t3 15q8 44 8 104q0 26 -6 80t-6 82l-10 23q-3 11 -10.5 42t-14 53.5t-14.5 43.5l2 4q-3 3 -17.5 48.5t-15.5 59.5l-2 11l-14 20q0 1 -2 5t-2 5l-13 17 q-7 13 -23.5 36t-28 39t-11.5 19q1 0 -13 18t-34.5 39.5t-34.5 28.5l-23 18l-12 5l-10 2q-2 -9 -4 -27t-4 -25q-4 -12 -9 -63t-16 -62q0 -3 1 -10.5t1 -11.5q0 -8 -4 -12l-14 -142q-12 -60 -12 -69v-6q0 -5 -1 -18l-2 -13q-7 -40 -13 -111t-13 -110l-25 -138q0 -46 -33 -215 q-6 -34 -16 -102t-16 -102q-15 -67 -19 -127v-29q0 -23 -8 -50.5t-8 -58.5z" />
<glyph unicode="&#xf9;" horiz-adv-x="940" d="M102 989v160q0 21 4.5 63t4.5 62q0 14 -5 29v210q0 3 2.5 28t2.5 28v22q0 17 1.5 25t9.5 15t25 7q27 0 41 -20v-19q0 -27 -5 -78.5t-5 -86.5q0 -23 1 -63.5t1 -41.5q0 -45 -6 -137t-6 -137q0 -22 2 -47t5.5 -56t4.5 -47v-24q0 -14 2 -64t2 -53l23 -199v-6q0 -7 2 -20 t2 -19v-6q27 -172 27 -176q0 -19 10 -49t10 -47q71 -181 160 -181h55l5 1q69 9 89 24l39 35q18 22 37 60t19 48q6 28 26.5 98t26.5 103q0 32 4 54t4 42v88l12 105q9 22 10.5 66t4.5 59l-1 9q-1 9 -1 15q0 2 2 17t2 24v49l6 37v15q4 8 4 32q0 14 -2 40t-2 40v41q0 2 2 25.5 t2 25.5v25l4 10v31q0 2 2 15t2 14t-2 11.5t-2 12.5l-4 111q0 64 -4 80v55q-4 8 -4 23v10l22 18q5 0 11.5 2t11.5 2q9 0 21.5 -10.5t15.5 -19.5q0 -4 -5 -9v-202q5 -17 5 -47q0 -32 -6.5 -97t-6.5 -102q0 -3 2 -22t2 -21v-31q0 -21 -5 -60.5t-5 -58.5v-53q0 -74 -10 -143 q0 -1 -1 -10.5t-1 -10.5v-18q-2 -12 -7 -36t-7.5 -43t-2.5 -36q0 -1 2.5 -7t2.5 -7v-12q0 -79 -9 -123q-1 0 -6 -27.5t-12 -61.5t-12 -47q-4 -20 -20 -57.5t-19 -56.5v-6q-8 -27 -23.5 -55.5t-45.5 -63.5t-83 -57.5t-119 -22.5q-88 0 -127 39l-12 6q-42 0 -94 131 q-1 4 -8.5 21.5t-10 25.5t-8.5 25.5t-8.5 29.5t-5 28.5t-2.5 31.5v12q-27 158 -27 164l-12 121q0 14 -2 16l-14 195q-1 17 -2 46t-3 52.5t-6 44.5zM291 1868q0 20 15.5 32.5t31.5 12.5q17 -17 36.5 -32t45.5 -29t42.5 -22.5t49.5 -24t45 -21.5l35 -15l10 -8q13 0 24.5 -8 t17 -16t5.5 -11q0 -18 -13 -31.5t-28 -13.5q-4 0 -8 2q-32 24 -100 58t-105 59q-42 19 -82 51h-8q-14 6 -14 17zM745 764q0 -4 5 -4q2 2 2 4l-2 4q-5 0 -5 -4z" />
<glyph unicode="&#xfa;" horiz-adv-x="940" d="M102 989v160q0 21 4.5 63t4.5 62q0 14 -5 29v210q0 3 2.5 28t2.5 28v22q0 17 1.5 25t9.5 15t25 7q27 0 41 -20v-19q0 -27 -5 -78.5t-5 -86.5q0 -23 1 -63.5t1 -41.5q0 -45 -6 -137t-6 -137q0 -22 2 -47t5.5 -56t4.5 -47v-24q0 -14 2 -64t2 -53l23 -199v-6q0 -7 2 -20 t2 -19v-6q27 -172 27 -176q0 -19 10 -49t10 -47q71 -181 160 -181h55l5 1q69 9 89 24l39 35q18 22 37 60t19 48q6 28 26.5 98t26.5 103q0 32 4 54t4 42v88l12 105q6 14 10 45q0 -4 5 -4q2 2 2 4l-2 4q-5 0 -5 -4q0 4 0.5 33.5t4.5 46.5l-1 9q-1 9 -1 15q0 2 2 17t2 24v49 l6 37v15q4 8 4 32q0 14 -2 40t-2 40v41q0 2 2 25.5t2 25.5v25l4 10v31q0 2 2 15t2 14t-2 11.5t-2 12.5l-4 111q0 64 -4 80v55q-4 8 -4 23v10l22 18q5 0 11.5 2t11.5 2q9 0 21.5 -10.5t15.5 -19.5q0 -4 -5 -9v-202q5 -17 5 -47q0 -32 -6.5 -97t-6.5 -102q0 -3 2 -22t2 -21 v-31q0 -21 -5 -60.5t-5 -58.5v-53q0 -74 -10 -143q0 -1 -1 -10.5t-1 -10.5v-18q-2 -12 -7 -36t-7.5 -43t-2.5 -36q0 -1 2.5 -7t2.5 -7v-12q0 -79 -9 -123q-1 0 -6 -27.5t-12 -61.5t-12 -47q-4 -20 -20 -57.5t-19 -56.5v-6q-8 -27 -23.5 -55.5t-45.5 -63.5t-83 -57.5 t-119 -22.5q-88 0 -127 39l-12 6q-42 0 -94 131q-1 4 -8.5 21.5t-10 25.5t-8.5 25.5t-8.5 29.5t-5 28.5t-2.5 31.5v12q-27 158 -27 164l-12 121q0 14 -2 16l-14 195q-1 17 -2 46t-3 52.5t-6 44.5zM291 1726q0 3 5.5 11t17 16t24.5 8l10 8l35 15q13 7 53.5 26.5t63 31.5 t53 32t49.5 39q16 0 31.5 -12.5t15.5 -32.5q0 -11 -14 -17h-8q-36 -29 -82 -51q-1 -1 -34.5 -19t-37.5 -22q-14 -7 -47 -27.5t-60 -35.5t-36 -15q-14 0 -26.5 13.5t-12.5 31.5z" />
<glyph unicode="&#xfb;" horiz-adv-x="940" d="M102 989v160q0 21 4.5 63t4.5 62q0 14 -5 29v210q0 3 2.5 28t2.5 28v22q0 17 1.5 25t9.5 15t25 7q27 0 41 -20v-19q0 -27 -5 -78.5t-5 -86.5q0 -23 1 -63.5t1 -41.5q0 -45 -6 -137t-6 -137q0 -22 2 -47t5.5 -56t4.5 -47v-24q0 -14 2 -64t2 -53l23 -199v-6q0 -7 2 -20 t2 -19v-6q27 -172 27 -176q0 -19 10 -49t10 -47q71 -181 160 -181h55l5 1q69 9 89 24l39 35q18 22 37 60t19 48q6 28 26.5 98t26.5 103q0 32 4 54t4 42v88l12 105q6 14 10 45q0 -4 5 -4q2 2 2 4l-2 4q-5 0 -5 -4q0 4 0.5 33.5t4.5 46.5l-1 9q-1 9 -1 15q0 2 2 17t2 24v49 l6 37v15q4 8 4 32q0 14 -2 40t-2 40v41q0 2 2 25.5t2 25.5v25l4 10v31q0 2 2 15t2 14t-2 11.5t-2 12.5l-4 111q0 64 -4 80v55q-4 8 -4 23v10l22 18q5 0 11.5 2t11.5 2q9 0 21.5 -10.5t15.5 -19.5q0 -4 -5 -9v-202q5 -17 5 -47q0 -32 -6.5 -97t-6.5 -102q0 -3 2 -22t2 -21 v-31q0 -21 -5 -60.5t-5 -58.5v-53q0 -74 -10 -143q0 -1 -1 -10.5t-1 -10.5v-18q-2 -12 -7 -36t-7.5 -43t-2.5 -36q0 -1 2.5 -7t2.5 -7v-12q0 -79 -9 -123q-1 0 -6 -27.5t-12 -61.5t-12 -47q-4 -20 -20 -57.5t-19 -56.5v-6q-8 -27 -23.5 -55.5t-45.5 -63.5t-83 -57.5 t-119 -22.5q-88 0 -127 39l-12 6q-42 0 -94 131q-1 4 -8.5 21.5t-10 25.5t-8.5 25.5t-8.5 29.5t-5 28.5t-2.5 31.5v12q-27 158 -27 164l-12 121q0 14 -2 16l-14 195q-1 17 -2 46t-3 52.5t-6 44.5zM170 1718q0 10 23 27.5t26 23.5l62 54q22 19 70 76t48 69v10q1 5 22.5 11 t31.5 6h10l6 -6q3 -1 8 -3.5t7.5 -3.5t4.5 -3.5t3 -6.5l40 -37q11 -3 20.5 -14.5t30 -40t50.5 -57.5q16 -8 76.5 -61t60.5 -74q0 -10 -18.5 -20.5t-24.5 -10.5q-23 3 -121 108l-76 82q-9 5 -28 28t-47 42q-5 -5 -16.5 -21t-20.5 -22l-96 -109q-10 -20 -47.5 -55t-53.5 -35 q-18 0 -34.5 13t-16.5 30z" />
<glyph unicode="&#xfc;" horiz-adv-x="940" d="M102 989v160q0 21 4.5 63t4.5 62q0 14 -5 29v210q0 3 2.5 28t2.5 28v22q0 17 1.5 25t9.5 15t25 7q27 0 41 -20v-19q0 -27 -5 -78.5t-5 -86.5q0 -23 1 -63.5t1 -41.5q0 -45 -6 -137t-6 -137q0 -22 2 -47t5.5 -56t4.5 -47v-24q0 -14 2 -64t2 -53l23 -199v-6q0 -7 2 -20 t2 -19v-6q27 -172 27 -176q0 -19 10 -49t10 -47q71 -181 160 -181h55l5 1q69 9 89 24l39 35q18 22 37 60t19 48q6 28 26.5 98t26.5 103q0 32 4 54t4 42v88l12 105q9 22 10.5 66t4.5 59l-1 9q-1 9 -1 15q0 2 2 17t2 24v49l6 37v15q4 8 4 32q0 14 -2 40t-2 40v41q0 2 2 25.5 t2 25.5v25l4 10v31q0 2 2 15t2 14t-2 11.5t-2 12.5l-4 111q0 64 -4 80v55q-4 8 -4 23v10l22 18q5 0 11.5 2t11.5 2q9 0 21.5 -10.5t15.5 -19.5q0 -4 -5 -9v-202q5 -17 5 -47q0 -32 -6.5 -97t-6.5 -102q0 -3 2 -22t2 -21v-31q0 -21 -5 -60.5t-5 -58.5v-53q0 -74 -10 -143 q0 -1 -1 -10.5t-1 -10.5v-18q-2 -12 -7 -36t-7.5 -43t-2.5 -36q0 -1 2.5 -7t2.5 -7v-12q0 -79 -9 -123q-1 0 -6 -27.5t-12 -61.5t-12 -47q-4 -20 -20 -57.5t-19 -56.5v-6q-8 -27 -23.5 -55.5t-45.5 -63.5t-83 -57.5t-119 -22.5q-88 0 -127 39l-12 6q-42 0 -94 131 q-1 4 -8.5 21.5t-10 25.5t-8.5 25.5t-8.5 29.5t-5 28.5t-2.5 31.5v12q-27 158 -27 164l-12 121q0 14 -2 16l-14 195q-1 17 -2 46t-3 52.5t-6 44.5zM303 1743q0 25 16 42t46 17h10q40 -5 43 -26l8 -43q4 -12 4 -17q0 -16 -13.5 -28.5t-33.5 -12.5q-6 -2 -18 -2 q-28 0 -45 21.5t-17 48.5zM532 1743q0 25 16 42t46 17h10q40 -5 43 -26l8 -43q4 -12 4 -17q0 -16 -13.5 -28.5t-33.5 -12.5q-6 -2 -18 -2q-28 0 -45 21.5t-17 48.5zM745 764q0 -4 5 -4q2 2 2 4l-2 4q-5 0 -5 -4z" />
<glyph unicode="&#xfd;" horiz-adv-x="1060" d="M102 1604q0 4 6 7t16 5l9 2q1 0 3.5 1t4.5 1q20 0 29.5 -9.5t16.5 -36.5t8 -30l26 -65q14 -39 27 -66l43 -78q13 -44 20 -51l84 -182q8 -19 29 -61t33 -70.5t12 -38.5h2q2 0 4 -2l33 -62q11 -23 37 -90l3 -8q4 -8 10 -23t13 -32t16.5 -37t18.5 -35q1 3 12.5 26t21 47 t9.5 36l1 3q21 37 22 62q1 0 2.5 12t5.5 28t12 24v8q0 52 33 119q4 4 24.5 79.5t20.5 92.5q6 18 19 84t32 102l25 96q1 1 4.5 9t3.5 10q0 8 4.5 41t19 72.5t33.5 39.5q17 0 31 -8t14 -18v-21q-1 -2 -5 -17t-5 -16l-22 -75q-17 -40 -37.5 -122t-36.5 -128l-23 -86 q-9 -41 -71 -260q-3 -12 -10.5 -41.5t-12.5 -47t-12 -39.5t-13.5 -36t-13.5 -21l-18 -55q-16 -48 -60.5 -165.5t-58.5 -164.5l-22 -69q-14 -27 -56 -131q-13 -20 -20.5 -52.5t-18.5 -48.5t-41 -16q-26 0 -26 29q0 15 -0.5 17.5t2 6.5t4.5 3.5t8 9t13 22.5t18.5 44t25.5 73 q9 6 18.5 41.5t16.5 42.5l19 57q0 14 16 48.5t16 43.5l15 41q6 6 16 35.5t10 38.5q0 16 -63 145q-14 28 -39 97.5t-47 101.5l-23 45q0 3 -8 14t-8 21q-16 42 -60.5 130.5t-64.5 137.5l-10 25q-5 12 -21 44t-22 48l-45 92q-20 37 -39.5 87.5t-18.5 66.5zM350 1726q0 3 5.5 11 t17 16t24.5 8l11 8l34 15q14 7 53.5 26.5t63 31.5t54 32t49.5 39q16 0 31.5 -12.5t15.5 -32.5q0 -11 -15 -17h-8q-36 -29 -82 -51q-1 -1 -34.5 -19t-37.5 -22q-14 -7 -47 -27.5t-60 -35.5t-36 -15q-14 0 -26.5 13.5t-12.5 31.5z" />
<glyph unicode="&#xff;" horiz-adv-x="1060" d="M102 1604q0 4 6 7t16 5l9 2q1 0 3.5 1t4.5 1q20 0 29.5 -9.5t16.5 -36.5t8 -30l26 -65q14 -39 27 -66l43 -78q13 -44 20 -51l84 -182q8 -19 29 -61t33 -70.5t12 -38.5h2q2 0 4 -2l33 -62q11 -23 37 -90l3 -8q4 -8 10 -23t13 -32t16.5 -37t18.5 -35q1 3 12.5 26t21 47 t9.5 36l1 3q21 37 22 62q1 0 2.5 12t5.5 28t12 24v8q0 52 33 119q4 4 24.5 79.5t20.5 92.5q6 18 19 84t32 102l25 96q1 1 4.5 9t3.5 10q0 8 4.5 41t19 72.5t33.5 39.5q17 0 31 -8t14 -18v-21q-1 -2 -5 -17t-5 -16l-22 -75q-17 -40 -37.5 -122t-36.5 -128l-23 -86 q-9 -41 -71 -260q-3 -12 -10.5 -41.5t-12.5 -47t-12 -39.5t-13.5 -36t-13.5 -21l-18 -55q-16 -48 -60.5 -165.5t-58.5 -164.5l-22 -69q-14 -27 -56 -131q-13 -20 -20.5 -52.5t-18.5 -48.5t-41 -16q-26 0 -26 29v17t1.5 7t4 3.5t8 9.5t12.5 22t19 44t26 73q9 6 18.5 41.5 t16.5 42.5l19 57q0 14 16 48.5t16 43.5l15 41q6 6 16 35.5t10 38.5q0 16 -63 145q-14 28 -39 97.5t-47 101.5l-23 45q0 3 -8 14t-8 21q-16 42 -60.5 130.5t-64.5 137.5l-10 25q-5 12 -21 44t-22 48l-45 92q-20 37 -39.5 87.5t-18.5 66.5zM362 1743q0 25 16 42t46 17h10 q40 -5 43 -26l8 -43q4 -12 4 -17q0 -16 -13.5 -28.5t-33.5 -12.5q-6 -2 -18 -2q-28 0 -45 21.5t-17 48.5zM592 1743q0 25 15.5 42t45.5 17h11q40 -5 43 -26l8 -43q4 -12 4 -17q0 -16 -13.5 -28.5t-33.5 -12.5q-6 -2 -19 -2q-28 0 -44.5 21.5t-16.5 48.5z" />
<glyph unicode="&#x152;" horiz-adv-x="1468" d="M104 743v142q0 23 4 52.5t8 50.5l3 20v12l6 10q4 4 4 17q42 128 80 204l10 21q26 26 51.5 77t83.5 109q22 27 60 46t55 32q39 23 104 43q6 0 14.5 6.5t28.5 13.5t52 7q126 28 137 28l21 -8q20 -8 42 -8h78q40 0 122 5t124 5h35q23 10 88 10h8q18 0 30.5 -17.5t12.5 -37.5 q0 -2 -1 -6.5t-1 -5.5l-10 -6h-94q-47 -17 -197 -21h-80q-4 0 -49.5 -2t-50.5 -2h-33q-4 0 -8 -4v-68q0 -24 3 -70t3 -69q0 -80 -8 -117l2 -292q2 -1 5 -2t5 -2t4 -1t10 1.5t13 1.5q4 -1 32 -4t33 -3h76q5 1 52 3.5t52 3.5l17 -2q17 -1 26 -1q12 0 41 7.5t43 7.5 q17 0 32 -19t15 -37q0 -10 -7.5 -17t-16.5 -7l-197 -10q-8 -2 -22 -2h-39q-8 0 -57 -2t-58 -2q-6 4 -16 4q-24 0 -45 -9v-81q0 -12 3 -102.5t3 -100.5l4 -332q0 -2 2 -23.5t2 -23.5v-64l14 -4h47q49 0 150.5 4t151.5 4h38q37 -22 37 -53q0 -19 -16 -26q-4 0 -37.5 1t-56.5 1 q-21 0 -68 1t-76.5 1t-66.5 -2t-62.5 -8t-40.5 -17h-80q-10 -4 -24 -4h-10q-3 0 -20 2t-19 2h-25q-24 0 -46.5 6t-29.5 6h-18q-4 0 -55 17l-6 2q-5 0 -27.5 8t-22.5 16h-8q-10 2 -26.5 17.5t-20.5 17.5q-1 0 -11 5t-15 8t-17 10t-20.5 13t-21.5 15t-23 18t-21.5 21t-21.5 25 l-9 12q-11 11 -21.5 23t-18 21t-16 24t-13.5 22t-13 25t-10.5 23.5t-10 26.5t-9 25t-10 28.5t-9.5 27.5q-8 24 -13 69t-7 56l-13 76v34q0 2 -1 20t-1 21zM166 782q0 -109 24 -260q1 -1 2.5 -8t2.5 -8l4 -8q28 -94 65.5 -166.5t100.5 -118.5l49 -35q27 -9 44 -23.5t26.5 -26 t46.5 -25.5t102 -25h18q8 -1 20.5 -2.5t23 -2.5t20.5 -1q65 0 71 12v121q0 276 -12 549q0 3 -2 14.5t-2 13.5v453q4 25 4 59q0 78 -12 226v8q-6 4 -17 4q-21 0 -47.5 -4.5t-41.5 -8.5t-49.5 -14t-41.5 -12q-16 -5 -40.5 -20t-32.5 -19q-6 -3 -26 -11.5t-35 -17t-23 -18.5 l-11 -16l-69 -76q-13 -20 -15 -27l-34 -67q-113 -197 -113 -426v-13z" />
<glyph unicode="&#x153;" horiz-adv-x="1755" d="M104 858q0 156 78 326q51 76 51 82q-4 0 29 40.5t80 92t76 76.5q9 8 36 21.5t40 25.5q130 58 335 98q25 0 29 4h74q4 0 14 2t17 2l14 -4h24q121 0 244 12h314q20 0 26 6q19 0 29 -15.5t10 -37.5q0 -4 -8 -12h-41q-31 0 -91.5 2t-88.5 2q-65 0 -197 -12h-80 q-1 -1 -16.5 -4.5t-18.5 -3.5h-22q-23 0 -33 -5h-8q-8 0 -10 -6q2 -10 2 -32q0 -12 -1 -34t-1 -34q0 -10 3 -29t3 -24l4 -207q4 -18 4 -57v-132q0 -1 -1 -17t-1 -23q0 -44 8 -60q5 0 42.5 -3t55.5 -3h41q24 0 69 2t67 2h24l47 2q1 0 15 2t16 2h47q1 0 10.5 1t10.5 1h73 q5 0 33 3t33 3q37 -8 37 -41q0 -8 -5.5 -18t-13.5 -10q-3 0 -7.5 2t-6.5 2q-6 0 -15.5 -2t-15.5 -2q-13 0 -39 3t-41 3q-8 0 -21.5 -2t-21.5 -2q-10 0 -26 1t-17 1l-112 -8q-47 -4 -285 -9q0 -7 -3 -42t-3 -39q0 -16 1 -44t1 -42v-21l-8 -119l-2 -28v-125q0 -14 -3 -62 t-3 -51v-45q0 -48 -3 -55q0 -73 11 -84q19 0 68 -5.5t85 -5.5q4 0 44.5 2.5t45.5 2.5h150q3 0 32 1t33 1h64q10 2 36 3t34 7l28 -6q5 -1 8.5 -15.5t6.5 -17.5v-8q0 -25 -33 -25q-5 0 -12.5 2t-12.5 2h-14q-2 0 -21.5 -2t-21.5 -2q-3 0 -9 2t-10 2q-2 0 -13 -2t-13 -2h-121 q-103 0 -127 -4h-33q-2 0 -26 -1t-27 -1h-90q-2 0 -22.5 -1t-22.5 -1h-10q-1 0 -9.5 -4t-9.5 -4t-5 2t-5 2h-18q-12 0 -31 5t-27 5q-5 0 -11 -1l-7 -1q-5 4 -12 7t-17.5 4.5t-18 2t-19 1.5t-15.5 1q-29 0 -77.5 24.5t-66.5 29.5q-42 10 -53 16q-164 66 -164 72l-18 10 q-3 0 -9.5 4.5t-16.5 11t-15 9.5l-29 16q-2 0 -3 -1.5t-21 18.5q-34 35 -68 69l-8 4l-18 27q-2 3 -16 21.5t-24.5 32.5t-19.5 32t-8 28l-18 45q0 1 -12.5 37t-12.5 74q-4 4 -4 12l2 13q-1 5 -4.5 16.5t-3.5 17.5v5q-6 47 -6 73v4q-5 97 -5 117zM150 827q0 -35 2.5 -70.5 t9 -90t8.5 -70.5q4 -33 7 -47.5t20 -52.5t51 -95q5 -7 20.5 -24.5t27 -31.5t11.5 -19q58 -56 142 -103.5t155 -60.5l58 -25q28 -6 53 -22q27 -3 96 -24t131 -21v55q0 91 4 119q0 1 -2 12t-2 12q4 57 6 153.5t5 159.5t10 83q0 1 -1 11t-1 11v94l4 146q-4 66 -4 98q0 16 1 45 t1 43q0 23 -3.5 67t-3.5 58v70q0 55 -6 61l-6 86v62q-2 8 -2 10v16q0 12 -4 12h-39l-8 -4h-19q-23 0 -52 -4t-46 -7.5t-54 -12t-46 -10.5q-3 -3 -18.5 -8t-20.5 -5q-22 -7 -49.5 -17t-63 -24.5t-59 -28t-23.5 -22.5q4 -1 -2.5 -5t-28 -20t-40.5 -40l-52 -64q0 -1 -6.5 -11.5 t-15.5 -24t-12 -19.5l-4 -6q-2 -2 -6.5 -6t-7 -6.5t-5 -6t-2.5 -6.5q-61 -90 -84.5 -176.5t-23.5 -192.5z" />
<glyph unicode="&#x178;" horiz-adv-x="704" d="M102 1554q0 8 15 13.5t20 5.5q11 0 22 -8t11 -17l18 -53l19 -39q7 -17 27 -54.5t28 -58.5q5 -29 34.5 -95t37.5 -101l16 -37l8 -27l29 -73q4 17 9.5 52t9.5 52q5 25 17 70t19 76q27 126 54 200q11 21 20 69t22.5 77.5t41.5 29.5q1 0 5.5 -3.5t9.5 -7.5t7 -5v-8 q0 -9 -24 -90l-27 -74q-30 -80 -41 -133q0 -19 -10.5 -63t-16.5 -50l-18 -76q-9 -39 -19 -104q0 -18 -10 -57.5t-10 -59.5v-55q0 -56 -4 -162t-4 -160q0 -4 1 -26.5t1 -26.5v-264q10 -147 10 -184v-11q0 -12 -12 -18t-25 -6h-12q-14 10 -14 82q0 10 1 25t1 16l-7 78 q0 6 -1 39t-1 40v9q2 47 2 137v76q0 2 -2 9.5t-2 8.5q0 4 2 32t2 31v101q0 2 1.5 17t1.5 16v34q0 3 -1.5 35t-1.5 35v33q-3 28 -9.5 58.5t-16 64.5t-10.5 39q-4 14 -20.5 52t-16.5 48q-44 148 -92 240q-10 22 -35.5 67.5t-42.5 81.5t-17 57zM184 1751q0 25 16 42t46 17h10 q40 -5 43 -26l8 -43q4 -12 4 -17q0 -16 -13.5 -28.5t-33.5 -12.5q-6 -2 -18 -2q-28 0 -45 21.5t-17 48.5zM414 1751q0 25 15.5 42t45.5 17h10q40 -5 43 -26l9 -43q4 -12 4 -17q0 -16 -13.5 -28.5t-33.5 -12.5q-6 -2 -19 -2q-28 0 -44.5 21.5t-16.5 48.5z" />
<glyph unicode="&#x2000;" horiz-adv-x="1034" />
<glyph unicode="&#x2001;" horiz-adv-x="2068" />
<glyph unicode="&#x2002;" horiz-adv-x="1034" />
<glyph unicode="&#x2003;" horiz-adv-x="2068" />
<glyph unicode="&#x2004;" horiz-adv-x="689" />
<glyph unicode="&#x2005;" horiz-adv-x="517" />
<glyph unicode="&#x2006;" horiz-adv-x="344" />
<glyph unicode="&#x2007;" horiz-adv-x="344" />
<glyph unicode="&#x2008;" horiz-adv-x="258" />
<glyph unicode="&#x2009;" horiz-adv-x="413" />
<glyph unicode="&#x200a;" horiz-adv-x="114" />
<glyph unicode="&#x2010;" horiz-adv-x="1173" d="M102 836q0 6 8 19t15 13l9 -4q8 -4 13 -4q95 -14 299 -14q34 0 99 2t98 2q13 0 40 -1t42 -1q61 0 162 3t110 3q21 0 30.5 -1t21.5 -8t22 -22q-2 -2 -2 -12q0 -37 -27 -37q-3 3 -13 4t-27 1.5t-27 2.5q-7 0 -18 -2t-15 -2q-18 0 -51 2t-49 2q-52 0 -157.5 -4t-156.5 -4 q-14 0 -38.5 1t-38.5 1h-27q-10 0 -37 -1t-29 -1q-19 0 -59 2t-61 2q-2 -2 -37 -2h-35q-64 0 -64 60z" />
<glyph unicode="&#x2011;" horiz-adv-x="1173" d="M102 836q0 6 8 19t15 13l9 -4q8 -4 13 -4q95 -14 299 -14q34 0 99 2t98 2q13 0 40 -1t42 -1q61 0 162 3t110 3q21 0 30.5 -1t21.5 -8t22 -22q-2 -2 -2 -12q0 -37 -27 -37q-3 3 -13 4t-27 1.5t-27 2.5q-7 0 -18 -2t-15 -2q-18 0 -51 2t-49 2q-52 0 -157.5 -4t-156.5 -4 q-14 0 -38.5 1t-38.5 1h-27q-10 0 -37 -1t-29 -1q-19 0 -59 2t-61 2q-2 -2 -37 -2h-35q-64 0 -64 60z" />
<glyph unicode="&#x2012;" horiz-adv-x="1173" d="M102 836q0 6 8 19t15 13l9 -4q8 -4 13 -4q95 -14 299 -14q34 0 99 2t98 2q13 0 40 -1t42 -1q61 0 162 3t110 3q21 0 30.5 -1t21.5 -8t22 -22q-2 -2 -2 -12q0 -37 -27 -37q-3 3 -13 4t-27 1.5t-27 2.5q-7 0 -18 -2t-15 -2q-18 0 -51 2t-49 2q-52 0 -157.5 -4t-156.5 -4 q-14 0 -38.5 1t-38.5 1h-27q-10 0 -37 -1t-29 -1q-19 0 -59 2t-61 2q-2 -2 -37 -2h-35q-64 0 -64 60z" />
<glyph unicode="&#x2013;" horiz-adv-x="1228" d="M102 836q0 6 8.5 19t15.5 13l10 -4q8 -4 14 -4q100 -14 316 -14q35 0 104 2t104 2q13 0 42 -1t44 -1q65 0 171.5 3t116.5 3q22 0 32 -1t22.5 -8t23.5 -22q-2 -2 -2 -12q0 -37 -29 -37q-3 3 -13.5 4t-28.5 1.5t-28 2.5q-8 0 -19.5 -2t-15.5 -2q-19 0 -54 2t-52 2 q-55 0 -166.5 -4t-165.5 -4q-15 0 -40.5 1t-40.5 1h-29q-10 0 -38.5 -1t-30.5 -1q-21 0 -63 2t-64 2q-2 -2 -39 -2h-37q-68 0 -68 60z" />
<glyph unicode="&#x2014;" horiz-adv-x="2252" d="M102 836q0 6 17 19t32 13l19 -4q17 -4 27 -4q201 -14 632 -14q72 0 209.5 2t206.5 2q28 0 85 -1t89 -1q129 0 342.5 3t232.5 3q44 0 64 -1t45.5 -8t46.5 -22q-4 -2 -4 -12q0 -37 -57 -37q-7 3 -28 4t-57 1.5t-57 2.5q-15 0 -38 -2t-32 -2q-38 0 -107.5 2t-103.5 2 q-110 0 -333 -4t-331 -4q-29 0 -81 1t-81 1h-57q-22 0 -79 -1t-61 -1q-40 0 -124.5 2t-129.5 2q-4 -2 -78 -2h-74q-135 0 -135 60z" />
<glyph unicode="&#x2018;" horiz-adv-x="303" d="M102 1616q0 11 14.5 17.5t26.5 6.5q33 0 39 -24q0 -68 4 -96l-1 -17q-1 -17 -1 -26q0 -3 1 -9l1 -6q0 -9 6.5 -61.5t8.5 -61.5v-12q0 -12 -13 -18t-28 -6q-29 0 -45 24v35q0 16 -4 99.5t-5 94.5v25q0 6 -2 17t-2 18z" />
<glyph unicode="&#x2019;" horiz-adv-x="303" d="M102 1604v12q0 12 13 18t28 6q29 0 45 -24v-35q0 -16 4 -100t5 -95l-1 -10q-1 -9 -1 -14q0 -7 3 -17.5t3 -17.5q0 -11 -14.5 -17.5t-26.5 -6.5q-33 0 -39 24q0 68 -4 96v58q0 9 -6.5 61.5t-8.5 61.5z" />
<glyph unicode="&#x201a;" horiz-adv-x="303" d="M102 174v12q0 12 13 18.5t28 6.5q28 0 45 -25v-34q0 -16 4 -100t5 -95l-1 -10q-1 -10 -1 -15q0 -7 3 -17t3 -17q0 -11 -14.5 -18t-26.5 -7q-33 0 -39 25q0 68 -4 96v57q0 9 -6.5 61.5t-8.5 61.5z" />
<glyph unicode="&#x201c;" horiz-adv-x="495" d="M102 1616q0 11 14.5 17.5t26.5 6.5q33 0 39 -24q0 -68 4 -96l-1 -17q-1 -17 -1 -26q0 -3 1 -9l1 -6q0 -9 6.5 -61.5t8.5 -61.5v-12q0 -12 -13 -18t-28 -6q-29 0 -45 24v35q0 16 -4 99.5t-5 94.5v25q0 6 -2 17t-2 18zM295 1612q0 11 14.5 17.5t26.5 6.5q33 0 39 -24 q0 -68 4 -96l-1 -17q-1 -17 -1 -26q0 -3 1 -9l1 -6q0 -10 6 -62t8 -61v-12q0 -12 -13 -18.5t-28 -6.5q-28 0 -45 25v35q0 17 -3.5 100t-4.5 94v25q0 6 -2 17t-2 18z" />
<glyph unicode="&#x201d;" horiz-adv-x="495" d="M102 1604v12q0 12 13 18t28 6q29 0 45 -24v-35q0 -16 4 -100t5 -95l-1 -10q-1 -9 -1 -14q0 -7 3 -17.5t3 -17.5q0 -11 -14.5 -17.5t-26.5 -6.5q-33 0 -39 24q0 68 -4 96v58q0 9 -6.5 61.5t-8.5 61.5zM295 1599v13q0 12 13 18t28 6q29 0 45 -24v-35q0 -17 3.5 -100.5 t4.5 -94.5l-1 -10q-1 -9 -1 -14q0 -7 3 -17.5t3 -17.5q0 -11 -14.5 -18t-26.5 -7q-33 0 -39 25q0 68 -4 96v58q0 10 -6 61.5t-8 60.5z" />
<glyph unicode="&#x201e;" horiz-adv-x="495" d="M102 178v12q0 12 13 18.5t28 6.5q28 0 45 -25v-34q0 -16 4 -100t5 -95l-1 -9q-1 -10 -1 -15q0 -7 3 -17.5t3 -17.5q0 -11 -14.5 -18t-26.5 -7q-33 0 -39 25q0 68 -4 96v57q0 9 -6.5 61.5t-8.5 61.5zM295 174v12q0 12 13 18.5t28 6.5q28 0 45 -25v-34q0 -17 3.5 -100.5 t4.5 -94.5l-1 -10q-1 -10 -1 -15q0 -7 3 -17t3 -17q0 -11 -14.5 -18t-26.5 -7q-33 0 -39 25q0 68 -4 96v57q0 10 -6 62t-8 61z" />
<glyph unicode="&#x202f;" horiz-adv-x="413" />
<glyph unicode="&#x205f;" horiz-adv-x="517" />
<glyph unicode="&#x20ac;" horiz-adv-x="1036" d="M102 952q0 25 23 25q99 0 131 -14q8 33 16 98t13 92q2 12 24.5 62t22.5 57l67 127q4 8 24.5 34t20.5 40v4q46 67 112 118.5t134 51.5q30 0 73 -27.5t48 -28.5l47 -45q7 -4 21 -22l10 -17q-40 -36 -51 -43q0 15 -43 55t-50 40l-8 4q-2 0 -7.5 4.5t-15 10.5t-20.5 9 q-103 0 -241 -235q0 -1 -21.5 -32t-21.5 -46l-37 -76q-8 -19 -14.5 -43.5t-8.5 -38t-6.5 -47t-5.5 -39.5l-12 -72q102 -4 137 -4l219 -8q-18 -35 -20 -63h-74q-21 0 -62.5 3.5t-54.5 4.5q-1 0 -24.5 -1t-38.5 -1q-12 0 -34 2t-34 2h-27q-17 -75 -22 -135q0 -4 1 -12.5 t1 -12.5t-4 -12h192q30 0 88 4q-5 -42 -14 -66q-27 -4 -135 -4q-84 0 -98 2q-8 -4 -25 -4h-8v-125q10 -12 13 -45t5 -41l12 -43q8 -89 53 -169.5t123.5 -132.5t172.5 -52q54 0 102 51.5t80 120.5l16 27q0 8 2 10l6 16l60 -26q-10 -28 -41 -84q4 2 -3 -8q-23 -36 -46 -57 q-3 -3 -4 -3q-13 -19 -32 -34.5t-30.5 -22t-36.5 -19.5l-24 -12q-2 -2 -10 -2h-13q-3 0 -11.5 -3t-10.5 -5h-10q-335 0 -418 420l-11 63q0 15 -5 45t-5 47v80q-65 0 -78 10l-20 23v12q0 28 8 31h27q36 0 63 -4v22l4 17q0 81 15 135q-10 2 -23 2h-57l-6 -4q-54 0 -54 59z" />
<glyph unicode="&#xe000;" horiz-adv-x="1638" d="M0 0v1638h1638v-1638h-1638z" />
</font>
</defs>
</svg>
